<?xml version="1.0" encoding="UTF-8" standalone="no"?>
<svg
   xmlns:dc="http://purl.org/dc/elements/1.1/"
   xmlns:cc="http://creativecommons.org/ns#"
   xmlns:rdf="http://www.w3.org/1999/02/22-rdf-syntax-ns#"
   xmlns:svg="http://www.w3.org/2000/svg"
   xmlns="http://www.w3.org/2000/svg"
   xmlns:sodipodi="http://sodipodi.sourceforge.net/DTD/sodipodi-0.dtd"
   xmlns:inkscape="http://www.inkscape.org/namespaces/inkscape"
   version="1.1"
   id="Layer_1"
   x="0px"
   y="0px"
   width="640"
   height="300"
   viewBox="0 0 640 300"
   enable-background="new 0 0 600 300"
   xml:space="preserve"
   sodipodi:docname="skunkboard_se.svg"
   inkscape:version="1.0.1 (1.0.1+r73)"><metadata
   id="metadata111"><rdf:RDF><cc:Work
       rdf:about=""><dc:format>image/svg+xml</dc:format><dc:type
         rdf:resource="http://purl.org/dc/dcmitype/StillImage" /><dc:title></dc:title></cc:Work></rdf:RDF></metadata><defs
   id="defs109">
	
	

		
		
		
		
		
		
		
		
		
		
		
		
		
		
		
		
		
		
		
		
		
		
		
		
		
		
		
		
		
		
		
		
		
		
		
		
		
		
		
		
		
		
		
		
		
		
		
		
		
		
	</defs><sodipodi:namedview
   pagecolor="#ffffff"
   bordercolor="#666666"
   borderopacity="1"
   objecttolerance="10"
   gridtolerance="10"
   guidetolerance="10"
   inkscape:pageopacity="0"
   inkscape:pageshadow="2"
   inkscape:window-width="1920"
   inkscape:window-height="1015"
   id="namedview107"
   showgrid="false"
   inkscape:zoom="1.3317178"
   inkscape:cx="526.10845"
   inkscape:cy="142.01072"
   inkscape:window-x="0"
   inkscape:window-y="0"
   inkscape:window-maximized="1"
   inkscape:current-layer="layer3"
   inkscape:document-rotation="0"
   fit-margin-top="0"
   fit-margin-left="0"
   fit-margin-right="0"
   fit-margin-bottom="0" />
<g
   inkscape:groupmode="layer"
   id="layer1"
   inkscape:label="background"
   style="display:inline"><path
     id="rect2"
     d="M 0,0 H 640 V 300 H 0 Z"
     style="display:inline;stroke-width:1.0328" /></g><g
   inkscape:groupmode="layer"
   id="layer3"
   inkscape:label="logo"
   style="display:inline"><path
     fill="none"
     stroke="#ffffff"
     stroke-width="0.0938"
     stroke-miterlimit="10"
     d="m 544.3,55.4 c 2.7,-2.7 4.8,-6.1 8.3,-7.9 0,3.5 -2.5,6 -4.6,8.5 -2.8,3.4 -6.2,6.4 -8.6,10.2 6.6,0 8.199,-8.1 14,-9.6 -1,2 -2.4,3.7 -3.4,5.7 -0.6,2 -0.5,4.2 -1.9,5.8 -1.899,3.2 -5.399,4.6 -7.699,7.3 -4.801,5.2 -9.101,10.9 -14,16.1 -2.4,2.7 -6.801,2.8 -8.601,6.2 -3.1,5.2 -8.1,9.1 -10.399,14.6 -1.601,4.2 -5.601,6.5 -8.5,9.6 -2.4,2.9 -5.801,4.6 -8.5,7.2 0.399,-2.5 0.899,-4.9 1.1,-7.3 -3,3 -4.8,7 -7.9,9.8 0.2,-2 0.7,-4 1.101,-6.1 -1.4,-0.4 -2.8,-0.9 -4.2,-1.5 0.4,-2 0.9,-4 1.5,-6 -0.9,0 -2.7,0 -3.6,0 1.899,-6.8 7.399,-11.7 11.3,-17.4 2,-2.6 3.2,-5.9 5.6,-8.3 5.7,-5.7 11.2,-11.7 18.2,-15.8 4.5,-4.5 8.2,-9.8 12.4,-14.6 2.5,-2.8 4.699,-6.3 8.399,-7.6 -1.399,4.6 -5,7.9 -7.3,11.9 1.8,-0.5 3.7,-0.7 5.2,-1.9 2.399,-2 3.7,-5.1 6.399,-6.7 1.7,-1.1 3.8,-1.4 5.7,-2.2 z"
     id="path8"
     style="display:inline;opacity:1;fill:#ffffff;stroke:none;stroke-width:0;stroke-miterlimit:10;stroke-dasharray:none" /><path
     fill="none"
     stroke="#ffffff"
     stroke-width="0.0938"
     stroke-miterlimit="10"
     d="m 462.2,67.4 c 1.7,-2.2 4.7,-3.3 7.399,-2.2 1.801,1.3 1,3.8 1,5.7 -1.5,11.2 -3.899,22.3 -6.5,33.2 -2.199,5.2 -6.899,9.1 -8.3,14.8 -2.399,7.4 -2.7,15.2 -5.3,22.5 -0.7,3.9 -0.7,8 -2.4,11.7 -2.5,5.801 -1.399,12.4 -4,18.101 -1.5,3.3 -2.199,6.8 -2.6,10.399 -1.6,2.801 -2.9,5.7 -3.5,8.9 -0.9,-0.1 -2.7,-0.3 -3.5,-0.3 0.5,-2.2 2.1,-3.8 3.7,-5.3 -0.101,-2.4 -0.601,-4.9 0.8,-6.9 1.4,-2.3 1,-5 0.9,-7.5 -1.4,1 -2.101,2.4 -2.5,4 -2.101,7 -4.9,13.8 -9.301,19.7 -1,-1.601 -2,-3.2 -3,-4.8 -1.3,4.199 -1.199,8.699 -3.6,12.5 -1.6,-0.801 -3.1,0.199 -4.4,1 -0.5,-1.601 -1.1,-3.2 -1.6,-4.9 0.7,-1.1 1.5,-2.2 2.2,-3.3 -0.7,-1.8 -1.9,-3.601 -1.4,-5.601 0.8,-6.199 4.7,-11.199 6.9,-16.8 1.2,-1.6 -0.101,-3.399 -0.3,-5 1.899,-2 2.699,-4.6 3,-7.3 0.199,-3.2 3.199,-5.1 5.399,-7.1 -0.1,-2.601 -0.8,-5.2 0,-7.7 2,-6.9 4.3,-13.7 6.7,-20.4 1,-2.1 0.1,-4.4 0.1,-6.7 1.101,-3.2 4,-5.5 5,-8.8 1.2,-4 3,-8 2.9,-12.2 0,-4 2.2,-8 1.2,-11.9 -3,-3.7 -2.5,-8.6 -3.3,-12.9 1.899,-0.3 4.3,-0.4 5,-2.5 0.899,-2.7 3.8,-3.2 6.199,-3.9 C 457.7,64.8 459.9,69.6 462.2,67.4 Z"
     id="path20"
     style="display:inline;fill:#ffffff;stroke:none;stroke-width:0;stroke-miterlimit:10;stroke-dasharray:none" /><path
     id="path28"
     style="display:inline;fill:#ffffff;stroke:none;stroke-width:0;stroke-miterlimit:10;stroke-dasharray:none"
     d="m 492.99609,141.97266 c -4.96604,0.0743 -9.91489,0.90859 -14.5957,2.52734 -4.5,1.7 -9.50017,4.5 -10.70117,9.5 0.2,5.2 6.899,6.9 7.5,12 0.5,7.4 -3.10178,14.2 -5.30078,21 -4.2,12.1 -9.70039,25.1 -5.90039,38 3.7,11.8 15.30117,18.59961 26.20117,22.59961 13.7,5.7 29.19883,5.40039 43.29883,1.90039 6.3,-1.5 12.5,-4.3 16.5,-9.5 3.701,-5 7.50156,-10.90178 7.10156,-17.30078 -1.8,0.899 -3.50022,2.10017 -5.19922,3.20117 -6.7,4.5 -15,6.29961 -23,6.09961 -4.2,0 -8.9,-2.20078 -10.5,-6.30078 C 516.50039,220.89922 517.3,215.3 520,211 c 6.4,-11.1 13.00039,-22.9 13.40039,-36 0.1,-13.2 -9.60117,-25.09961 -21.70117,-29.59961 -5.90625,-2.3625 -12.31821,-3.52331 -18.70313,-3.42773 z m -9.71093,5.0039 C 483.51172,146.95645 483.75,146.9625 484,147 c 9.5,0.4 19.70039,0.59961 27.90039,6.09961 6.399,3.801 9.79961,11.60139 9.09961,18.90039 -0.9,9.8 -4.00039,19.5 -8.90039,28 -2.399,4.7 -5.49883,9.09922 -6.79883,14.19922 -0.8,5.399 -0.80139,11.90039 3.59961,15.90039 4.199,3.7 9.69922,5.69861 15.19922,6.59961 5.7,1 11.4,-0.39883 17,-1.29883 1.5,-0.5 2.69978,0.50022 3.80078,1.19922 -12.2,7.2 -28.19978,8.60078 -41.30078,2.80078 -5.3,-2.7 -11,-5.4 -15,-10 -4.5,-4.4 -7.1,-10.99978 -5.5,-17.30078 2.601,-9.899 5.301,-19.80139 10,-28.90039 3.301,-6.2 4.70056,-14.101 1.10156,-20.5 -3.001,-6.1 -9.80156,-8.69961 -14.60156,-13.09961 1.05,-1.05 2.09961,-2.48223 3.68555,-2.62305 z" /><path
     id="path56"
     style="display:inline;fill:#ffffff;stroke:none;stroke-width:0;stroke-miterlimit:10;stroke-dasharray:none"
     d="m 397.41406,230.98633 c -1.00371,0.0473 -2.01367,0.21367 -3.01367,0.51367 -6.8,1.7 -11.50039,8.6 -11.40039,15.5 -0.2,8.5 7.2,16.7 16,16 9.4,-0.6 16,-10.90178 13.5,-19.80078 -1.3125,-7 -8.05996,-12.54375 -15.08594,-12.21289 z m -5.61328,6.91406 c 3.601,0.6 9.19861,-0.90117 11.09961,3.29883 0.8,3.7 1.10078,7.80139 -0.19922,11.40039 -2.5,3.4 -7.30039,2.09944 -10.90039,2.39844 -10e-4,-5.699 -0.1,-11.39766 0,-17.09766 z m 4,3 c -0.1,3.8 -0.1,7.59883 0,11.29883 1.2,-0.2 2.4,-0.49883 3.5,-0.79883 0.5,-3.301 0.79861,-6.801 -0.40039,-10 -0.801,-0.101 -2.29961,-0.4 -3.09961,-0.5 z" /><path
     id="path52"
     style="display:inline;fill:#ffffff;stroke:none;stroke-width:0;stroke-miterlimit:10;stroke-dasharray:none"
     d="m 346.41406,230.98633 c -1.00371,0.0473 -2.01367,0.21367 -3.01367,0.51367 -6.8,1.7 -11.50039,8.6 -11.40039,15.5 -0.2,8.5 7.2,16.7 16,16 9.4,-0.6 16,-10.90178 13.5,-19.80078 -1.3125,-7 -8.05996,-12.54375 -15.08594,-12.21289 z M 341,238 c 3.3,0.2 6.90039,-0.50039 9.90039,1.09961 3.1,2.4 1.69922,7.10139 -1.30078,8.90039 1.2,2.3 2.301,4.6 3.5,7 h -4 c -1.199,-2.6 -2.30156,-5.39922 -4.10156,-7.69922 -0.3,2.601 -0.29883,5.10022 -0.29883,7.69922 h -3.70117 c 0.001,-5.7 0.002,-11.4 0.002,-17 z m 3.80078,2.5 v 5.19922 c 1.299,-0.299 2.59844,-0.59844 3.89844,-0.89844 v -3.5 c -1.299,-0.3 -2.59844,-0.50078 -3.89844,-0.80078 z" /><path
     fill="none"
     stroke="#ffffff"
     stroke-width="0.0938"
     stroke-miterlimit="10"
     d="m 282.6,68.7 c 3,-0.7 7.9,-2.5 9.6,1.1 1.2,1.9 1.7,4.2 2.6,6.3 1.1,1.5 3,2.1 4.5,3.1 -2.3,6.8 -7,12.4 -10.6,18.5 -1.5,2.4 -1.1,5.4 -1.7,8.1 -1.1,1.6 -2.6,3 -3.7,4.7 -0.9,2.6 -0.8,5.7 -2.9,7.9 -1.5,2.3 -4.6,3.9 -4.9,6.9 -0.5,4.6 -4.4,7.9 -5.9,12.1 0,6.2 -4.4,11.2 -6.4,16.8 -0.4,3.899 -2.3,7.8 -1,11.7 5.7,0.1 9.8,-4.601 14.5,-7.2 4.6,-2.4 5.7,-8.101 9.9,-11.1 2.9,-3.2 7.2,-5.3 8.5,-9.7 2.6,-6.9 5.8,-13.7 6.5,-21.2 0.7,-3.4 0.4,-7.4 3.301,-9.8 2.8,-2.5 2,-6.8 4.399,-9.6 4.601,-6 6.8,-13.4 10,-20.2 2.601,-0.2 5.3,-0.3 7.8,1 2.7,1.3 6.301,0.9 8.5,3.2 -0.199,3.7 1,7.2 2.2,10.6 -8.5,19.4 -17.1,38.9 -25.399,58.5 -2.601,5.7 -2.801,12.2 -3.2,18.4 2.8,0.4 5.7,0.3 8.399,1.3 1.9,-4 4.2,-7.699 5.801,-11.699 1.199,-3.2 1.3,-6.801 3.3,-9.601 6.3,-7.6 9.2,-17.2 12.6,-26.3 1.601,-5 6,-8.3 8.5,-12.7 2.8,-5.1 5.7,-10.2 9.101,-14.9 2.899,-3.6 6.199,-6.7 9.399,-10 -0.2,-2.3 -0.6,-4.6 -0.7,-6.9 1,-1.7 2.7,-2.9 4.101,-4.2 1.5,2 3.5,3.7 6,4.4 3.1,1.5 8,-1.5 9.7,2.4 1.399,4.4 -1,8.9 -0.601,13.4 -1.6,14.1 1.9,27.9 1.7,42 -0.2,8.2 0.9,16.4 1.7,24.6 1.6,-4 3.5,-7.899 6.399,-11.1 2.5,-8.3 0.9,-17 2.4,-25.4 0.3,-3.7 1.3,-7.2 1.7,-10.9 -1.3,-4.8 -2,-10 -0.2,-14.7 1.7,-5.2 2.9,-10.5 4,-15.8 2.5,-0.6 5.1,-1 7.7,-1.2 0.5,-1.7 1,-3.4 1.6,-5.1 4,0.3 8.3,0.9 11.9,2.9 0.6,1 1.1,2.1 1.6,3.1 1.2,-0.2 2.4,-0.4 3.7,-0.6 2.1,4.1 1.4,8.7 1.3,13.1 -1.5,2.1 -3.1,4.1 -3.5,6.7 -1,5.5 -3.399,10.5 -5.7,15.5 -2.6,5.2 -1.699,11.2 -2.199,16.8 -3.301,9.3 -8.301,17.9 -12,27.1 -2.301,6.8 -4.2,13.7 -6.5,20.5 -2.5,6.5 -8.2,11.1 -11,17.4 -1.601,-3.5 -3.5,-6.801 -6.4,-9.301 2.4,-5 -1.2,-9.699 -3.5,-14 -0.6,-3.399 -1.3,-6.8 -2.2,-10.199 -1.1,-0.4 -2.2,-0.7 -3.3,-1 -0.8,-4.5 -1.9,-8.9 -2.7,-13.4 -0.1,-1.8 -2.399,-2.4 -2.5,-4.2 -0.899,-6.5 0.5,-13.2 -1,-19.7 -1.399,-6.3 -2.3,-12.8 -4.2,-19 -2.6,5.7 -3.6,12.1 -7,17.5 -4.899,8.3 -9.6,16.9 -15.199,24.7 -3.5,11.8 -8.2,23.2 -12.601,34.601 -1,3 -3.5,5.1 -5,7.8 -3.7,5.399 -4.2,12.6 -9.2,17.1 -3.5,-0.2 -5.199,3.4 -8.6,3.3 -0.6,1.2 -1.1,2.4 -1.7,3.601 -2.3,0.6 -4.5,-0.3 -5.9,-2.3 -1.2,-2.801 0.5,-5.601 1.7,-8.101 3.3,-5.8 4.1,-12.6 6.4,-18.7 2.1,-2.1 4.1,-4.199 5.6,-6.8 -2.1,-0.5 -4,-1.3 -6,-2 -3.3,1.9 -6.3,4.5 -10.1,5.2 -2.6,-0.8 -5.4,-1.8 -7,-4.1 -3.5,-7.101 -1,-15.101 -2.1,-22.601 -3,4.4 -5.2,9.7 -9.7,12.9 -2.8,2.2 -5.5,4.7 -8.6,6.5 -4.4,1.3 -9,1.5 -13.4,1.2 -3.2,-1.801 -5.3,-5 -7.1,-8 0.2,-8.101 -1.2,-16.4 1.6,-24.2 2.6,-8.7 5.2,-17.5 7.9,-26.2 1.4,-4.8 5.4,-8.2 7.4,-12.7 0.6,-2.3 -0.4,-4.9 0.8,-7.1 2.4,-5.4 5.1,-10.6 8.2,-15.7 1.5,-2 0.5,-4.9 2.1,-6.9 1.999,-2.9 3.799,-6.1 6.499,-8.4 z"
     id="path24"
     style="display:inline;fill:#ffffff;stroke:none;stroke-width:0;stroke-miterlimit:10;stroke-dasharray:none" /><path
     id="path48"
     style="display:inline;fill:#ffffff;stroke:none;stroke-width:0;stroke-miterlimit:10;stroke-dasharray:none"
     d="m 296.41406,230.98633 c -1.00371,0.0473 -2.01367,0.21367 -3.01367,0.51367 -6.8,1.7 -11.50039,8.6 -11.40039,15.5 -0.2,8.5 7.2,16.7 16,16 9.4,-0.6 16,-10.90178 13.5,-19.80078 -1.3125,-7 -8.05996,-12.54375 -15.08594,-12.21289 z M 298.80078,238 c 1.7,5.6 3.19844,11.3 4.89844,17 h -3.39844 c -0.4,-1.1 -0.80078,-2.20078 -1.30078,-3.30078 h -4.69922 c -0.4,1.1 -0.80078,2.20139 -1.30078,3.40039 -0.8,-0.1 -2.50039,-0.10156 -3.40039,-0.10156 1.6,-5.699 3.20078,-11.29844 4.80078,-16.89844 1.4,-0.1 2.90039,-0.0996 4.40039,-0.0996 z M 296.5,241.40039 c -0.6,2.5 -1.19922,5.00039 -1.69922,7.40039 1.3,-0.1 2.49883,-0.20078 3.79883,-0.30078 -0.7,-2.3 -1.29961,-4.79961 -2.09961,-7.09961 z" /><path
     id="path44"
     style="display:inline;fill:#ffffff;stroke:none;stroke-width:0;stroke-miterlimit:10;stroke-dasharray:none"
     d="m 244.41406,230.98633 c -1.00371,0.0473 -2.01367,0.21367 -3.01367,0.51367 -6.8,1.7 -11.50039,8.6 -11.40039,15.5 -0.2,8.5 7.2,16.7 16,16 9.4,-0.6 16,-10.90178 13.5,-19.80078 -1.3125,-7 -8.05996,-12.54375 -15.08594,-12.21289 z m 0.14063,6.76953 c 2.36838,-0.0457 4.75781,1.03711 5.44531,3.44336 0.8,3.2 0.60078,6.50117 0.30078,9.70117 -0.4,4.699 -7.1,6.09944 -10,2.89844 -1.6,-1.899 -1.40156,-4.50078 -1.60156,-6.80078 0.1,-2.899 -0.19922,-6.79805 2.80078,-8.49805 0.90625,-0.46875 1.97815,-0.72339 3.05469,-0.74414 z m 1.64453,3.14453 c -0.8,0.099 -2.49883,0.30039 -3.29883,0.40039 -0.2,3.6 -0.2,7.19883 0,10.79883 0.8,0.1 2.39922,0.10117 3.19922,0.20117 0.8,-3.799 0.89961,-7.70139 0.0996,-11.40039 z" /><path
     fill="none"
     stroke="#ffffff"
     stroke-width="0.0938"
     stroke-miterlimit="10"
     d="m 221.6,61.7 c 2.5,-1.4 4.8,-3.1 7.3,-4.4 2.8,2.3 3.3,5.9 2.8,9.3 -4.6,7.9 -10.5,14.9 -15.9,22.1 -2.2,3.5 -3.5,7.4 -4.9,11.3 -1.2,2.8 -0.5,6.1 -1.8,9 -1.3,3 -3,5.9 -4.4,8.9 8.4,-2.3 16.7,-6.1 23,-12.2 4.8,-4.8 7.7,-11.1 11,-17 1.3,-2.3 3.8,-3.5 5.2,-5.7 2.6,-3.9 5.2,-7.8 7.9,-11.5 1.8,0.6 3.5,1.1 5.3,1.6 1.9,4.6 3.3,9.5 3.5,14.5 -2,4.1 -3.9,8.5 -7.4,11.6 -3.7,3.6 -7.3,7.4 -11.1,11 -4.4,3.6 -9.3,6.6 -13.8,10.2 -4.3,2.2 -9,3.8 -13.7,4.8 5.5,6 12.3,12.2 13.2,20.8 2.2,11.9 3.9,24 5.5,36 0.5,2.6 -0.1,5.1 -0.8,7.6 -0.9,-2.399 -1.3,-5 -2.4,-7.399 -2,4.2 -2.7,8.899 -2.1,13.5 -0.7,0.7 -1.9,2 -2.5,2.6 -1.4,-3.899 -0.3,-8.1 -0.4,-12.1 -0.8,-3 -1.7,-6 -2.2,-9 0,-1.601 -1.4,-2.5 -2.8,-2.7 0,2.3 0.7,4.8 -0.8,6.8 -2.8,-3.7 -3.4,-8.2 -4.9,-12.399 0.5,-6.2 3.2,-12.4 1,-18.5 -0.6,-2.7 -3.3,-4.1 -4.3,-6.6 -1.4,-2.6 -1.7,-6.2 -4.3,-7.8 -3.7,-0.7 -7.6,-0.4 -11.2,-1.8 -2,3.4 -3.4,7.1 -4.6,10.9 -2.6,7.4 -5,14.9 -7.5,22.3 -2.2,7.1 -7.1,13.1 -8.5,20.5 -1.3,0.3 -1.4,-1.601 -1.5,-2.5 0.2,-1.7 -0.8,-3.2 -1.8,-4.601 -2.6,4.4 -4.1,9.2 -6.2,13.8 0,-2.399 0.8,-5 -0.9,-7 -1.4,3.801 -1.5,8.5 -5.4,10.9 -1.2,-6.6 2,-12.9 3,-19.4 5.1,-9.5 9.1,-19.5 13.6,-29.3 1.5,-3.7 3.6,-7.4 4.3,-11.5 -2.2,-0.8 -4.8,-1.3 -6,-3.6 -2.2,0.1 -4.3,0 -6.4,-0.1 5.1,-5.7 11.8,-10 18.9,-12.8 4.2,-4.5 4.3,-11.1 6.9,-16.4 2.8,-7.8 6.9,-15.2 8.5,-23.4 1.3,-5.7 3.3,-11.1 5.4,-16.6 0.9,-0.4 1.8,-0.8 2.7,-1.2 1,1.1 2,2 3,2.9 0.7,-1.5 1.2,-3.1 1.8,-4.7 2.2,-0.201 4.5,-0.101 6.7,-0.701 z"
     id="path16"
     style="display:inline;fill:#ffffff;stroke:none;stroke-width:0;stroke-miterlimit:10;stroke-dasharray:none" /><path
     fill="none"
     stroke="#ffffff"
     stroke-width="0.0938"
     stroke-miterlimit="10"
     d="m 173.3,189.2 c 1.3,0.1 1.6,0.7 0.6,2.1 -1.3,-0.1 -1.6,-0.8 -0.6,-2.1 z"
     id="path36"
     style="display:inline;fill:#ffffff;stroke:none;stroke-width:0;stroke-miterlimit:10;stroke-dasharray:none" /><path
     id="path40"
     style="display:inline;fill:#ffffff;stroke:none;stroke-width:0;stroke-miterlimit:10;stroke-dasharray:none"
     d="m 193.41406,230.98633 c -1.00371,0.0473 -2.01367,0.21367 -3.01367,0.51367 -6.8,1.7 -11.50039,8.6 -11.40039,15.5 -0.2,8.5 7.2,16.7 16,16 9.4,-0.6 16,-10.90178 13.5,-19.80078 -1.3125,-7 -8.05996,-12.54375 -15.08594,-12.21289 z m -2.89258,6.99414 c 2.31563,-0.0187 4.6043,0.0191 6.7793,0.61914 2.8,1.5 2.29883,5.2 0.79883,7.5 1.7,2.101 2.5,5.2 0.5,7.5 -2.9,2.4 -6.90039,1.10139 -10.40039,1.40039 0.1,-5.7 0,-11.4 0,-17 0.775,0 1.55039,-0.0133 2.32226,-0.0195 z m 1.2793,2.61914 v 4.59961 c 1.2,-0.2 2.49883,-0.49922 3.79883,-0.69922 0,-1.099 0.0996,-2.19922 0.0996,-3.19922 -1.3,-0.3 -2.59844,-0.50117 -3.89844,-0.70117 z m 0,6.70117 v 5.09961 c 1.3,-0.201 2.7,-0.39961 4,-0.59961 0.1,-1.2 0.0996,-2.50117 0.0996,-3.70117 -1.4,-0.3 -2.69961,-0.49883 -4.09961,-0.79883 z" /><path
     fill="none"
     stroke="#ffffff"
     stroke-width="0.0938"
     stroke-miterlimit="10"
     d="m 129.4,55.5 c 8.5,-2.7 17.8,-6.8 26.6,-3.1 5,-0.4 9.9,-1.7 15,-1.4 3.5,0.2 7,0.3 10.5,0.6 1.1,1.3 2,2.6 3.2,3.8 3.9,1.4 8.4,2.2 11.1,5.7 -1.9,2.7 -3,6 -5.1,8.6 -2.6,1.4 -4.7,3.5 -5.5,6.4 -2.4,0.8 -4.7,1.8 -7.2,2.2 -2.4,-0.3 -4.5,-2 -6.9,-2.1 -6,-0.5 -11.9,-1.2 -17.9,-0.9 -5.7,0.8 -11.4,1.9 -16.8,4.1 -2.5,1.1 -5.4,1 -8,1.8 -3.1,2.4 -5.1,5.8 -7.6,8.7 -1.3,1.3 -2,4.1 -0.2,5.3 3.5,2.6 7.1,5 10.5,7.6 3.4,3.1 8.9,1.6 12.1,4.9 4,3.9 7,8.6 9.5,13.6 1.6,2.9 1.3,6.3 1.8,9.5 0.3,4 2.1,8 1.3,12.2 -0.9,6.5 -2.1,13.2 -4.1,19.5 -2.7,4.3 -5.9,8.2 -8.8,12.4 -4.6,5.6 -10.9,9.3 -16.9,13.1 -8.5,4.8 -17.2,9.6 -26.7,12.2 -14.7,3.6 -30,1.1 -44.5,-2 -6.6,-1.3 -13.6,-2.7 -18.7,-7.3 -4.4,-4.7 -10.4,-7.5 -14.8,-12.2 -1.4,-1.4 -0.8,-3.3 -0.5,-5 0.6,-2.4 -1,-4.601 -1.9,-6.601 1.6,-2.699 3.5,-5.399 3.8,-8.6 0.9,-2.4 -1.1,-4.5 -1.7,-6.6 1.7,-0.4 3.4,-0.101 5.1,0.5 1.3,-2.101 3.7,-4.601 6.4,-3.4 2.1,5 5.2,9.7 10.1,12.5 9.3,5.6 18.5,12.1 29.4,14.5 9.1,2.1 18.7,2.2 28,1.2 9,-1.2 18.3,-3.7 25,-10.101 7.1,-7.3 10.6,-17.399 11.8,-27.3 1.5,-6.5 -1.8,-12.7 -3.9,-18.8 -5.2,-0.8 -10.2,-2.2 -15.5,-2.4 -1.5,-0.8 -2.6,-2 -4,-2.9 -7.2,-1 -13.4,-5.7 -17.8,-11.3 -2.2,-4.3 -4,-8.9 -5.7,-13.5 0.4,-2.5 1,-5 0.7,-7.6 0.9,-3.6 4.2,-5.8 5.4,-9.3 1.3,-3.4 3.3,-6.6 6.4,-8.5 6.6,-4.3 13.4,-8.2 20.5,-11.5 2,1.002 4.2,2.802 6.5,1.502 z"
     id="path12"
     style="display:inline;fill:#ffffff;stroke:none;stroke-width:0;stroke-miterlimit:10;stroke-dasharray:none" /><path
     sodipodi:type="inkscape:offset"
     inkscape:radius="0.26166907"
     inkscape:original="M 75.085938 8.6679688 C 74.939464 8.6593487 74.799851 8.6955412 74.65625 8.7070312 C 74.403512 8.6007642 74.134747 8.719335 73.890625 8.796875 C 73.824569 8.834215 73.762518 8.7826262 73.705078 8.7539062 C 73.501164 8.8486832 73.304788 8.9604874 73.115234 9.0839844 C 73.026205 9.1385524 72.968981 9.230475 72.931641 9.328125 C 72.897177 9.428645 72.803194 9.4923101 72.777344 9.5957031 C 72.785954 9.6703751 72.769302 9.7407 72.757812 9.8125 C 72.806637 9.944613 72.856732 10.077675 72.919922 10.201172 C 73.04629 10.362005 73.224855 10.496671 73.431641 10.525391 C 73.471851 10.551241 73.503795 10.586395 73.546875 10.609375 C 73.699092 10.615125 73.842841 10.654754 73.992188 10.677734 C 74.052497 10.852928 74.146596 11.032068 74.103516 11.21875 C 74.069052 11.503079 73.969539 11.792295 73.765625 12.001953 C 73.5732 12.185762 73.305357 12.256546 73.046875 12.291016 C 72.779777 12.319736 72.503541 12.318122 72.242188 12.257812 C 71.929138 12.188884 71.665536 12.002631 71.398438 11.841797 C 71.257708 11.761381 71.169685 11.626023 71.109375 11.482422 C 71.03183 11.447959 70.961168 11.519768 70.923828 11.580078 C 70.875005 11.562818 70.826164 11.552963 70.777344 11.564453 C 70.794574 11.624765 70.852022 11.684976 70.826172 11.753906 C 70.817556 11.845811 70.7647 11.924413 70.71875 12.001953 C 70.7446 12.059394 70.790667 12.122476 70.773438 12.191406 C 70.764817 12.240227 70.746899 12.295727 70.787109 12.335938 C 70.913478 12.470923 71.086522 12.550563 71.212891 12.685547 C 71.359364 12.817665 71.558493 12.857191 71.748047 12.894531 C 72.16449 12.983561 72.605157 13.056517 73.027344 12.953125 C 73.300187 12.878452 73.548848 12.73942 73.792969 12.601562 C 73.965291 12.492426 74.147184 12.387396 74.279297 12.226562 C 74.362586 12.105938 74.4537 11.992638 74.53125 11.869141 C 74.588693 11.688204 74.624541 11.497228 74.650391 11.310547 C 74.673361 11.189922 74.621881 11.073865 74.613281 10.958984 C 74.598911 10.86708 74.606497 10.768837 74.560547 10.685547 C 74.488746 10.541946 74.40199 10.406931 74.287109 10.294922 C 74.195205 10.200143 74.037103 10.243327 73.939453 10.154297 C 73.841803 10.079624 73.739193 10.01217 73.638672 9.9375 C 73.586932 9.903036 73.607191 9.8224963 73.644531 9.7851562 C 73.716332 9.7018672 73.774251 9.6040862 73.863281 9.5351562 C 73.937953 9.5121762 74.019997 9.5140119 74.091797 9.4824219 C 74.246886 9.4192389 74.410514 9.3882144 74.574219 9.3652344 C 74.746541 9.3566244 74.917523 9.376265 75.089844 9.390625 C 75.158773 9.393495 75.218179 9.4425719 75.287109 9.4511719 C 75.358909 9.4396819 75.425211 9.4116519 75.494141 9.3886719 C 75.517117 9.3053839 75.577674 9.2452881 75.652344 9.2050781 C 75.712658 9.1304051 75.744258 9.0345713 75.798828 8.9570312 C 75.721283 8.8565062 75.592477 8.8331788 75.480469 8.7929688 C 75.446009 8.7585018 75.420262 8.7228869 75.388672 8.6855469 C 75.288151 8.6769169 75.186458 8.6736687 75.085938 8.6679688 z "
     style="display:inline;opacity:1;fill:#ffffff;fill-opacity:1;fill-rule:nonzero;stroke:none;stroke-width:0;stroke-linecap:butt;stroke-linejoin:miter;stroke-miterlimit:10;stroke-dasharray:none;stroke-opacity:1"
     id="path4216-6"
     d="m 75.101562,8.40625 c -0.199089,-0.011717 -0.353302,0.029981 -0.466796,0.039063 l 0.123046,0.019531 c -0.360229,-0.1514631 -0.684461,-0.00529 -0.908203,0.070312 -0.01139,-0.00614 -0.0062,-0.00506 -0.02734,-0.015625 a 0.26169524,0.26169524 0 0 0 -0.226563,-0.00195 c -0.214877,0.099872 -0.420677,0.2160501 -0.617187,0.34375 -5.15e-4,3.154e-4 5.13e-4,0.00164 0,0.00195 -0.157068,0.096892 -0.24155,0.2417318 -0.291016,0.3710938 a 0.26169524,0.26169524 0 0 0 -0.0039,0.00977 c 9.38e-4,-0.00274 -0.0078,0.016236 -0.04102,0.060547 -0.03321,0.044311 -0.09118,0.1166877 -0.11914,0.2285156 A 0.26169524,0.26169524 0 0 0 72.517578,9.625 c 0.0021,0.017962 -0.0041,0.062057 -0.01758,0.1464844 a 0.26169524,0.26169524 0 0 0 0.01172,0.1308594 c 0.04919,0.1331152 0.103418,0.2765442 0.175781,0.4179682 a 0.26169524,0.26169524 0 0 0 0.02734,0.04297 c 0.156513,0.1992 0.38479,0.380646 0.68164,0.421875 l -0.105468,-0.03906 c 0.0025,0.0016 0.03935,0.04389 0.132812,0.09375 a 0.26169524,0.26169524 0 0 0 0.113281,0.03125 c 0.06635,0.0025 0.160778,0.02141 0.244141,0.03711 0.03133,0.09471 0.07662,0.2077 0.06641,0.251953 a 0.26169524,0.26169524 0 0 0 -0.0039,0.02734 c -0.02951,0.243434 -0.116422,0.472999 -0.263672,0.626953 -0.129186,0.12151 -0.334595,0.185623 -0.568359,0.216797 -0.244331,0.02563 -0.49037,0.0216 -0.710938,-0.0293 a 0.26169524,0.26169524 0 0 0 -0.002,0 c -0.246501,-0.05428 -0.487225,-0.217126 -0.765625,-0.384765 a 0.26169524,0.26169524 0 0 0 -0.0059,-0.002 c -0.07172,-0.04098 -0.127937,-0.120455 -0.175782,-0.234375 a 0.26169524,0.26169524 0 0 0 -0.136718,-0.136718 c -0.127364,-0.0566 -0.27745,-0.01969 -0.357422,0.0332 -0.01999,0.01322 -0.02329,0.02726 -0.03906,0.04101 -0.03662,-0.001 -0.06053,-0.01747 -0.101562,-0.0078 a 0.26169524,0.26169524 0 0 0 -0.191406,0.326172 c 0.01781,0.06234 0.03185,0.07617 0.04102,0.0918 1.64e-4,2.78e-4 -1.57e-4,0.0017 0,0.002 -0.001,0.0075 -0.02155,0.05309 -0.07227,0.138672 a 0.26169524,0.26169524 0 0 0 -0.01367,0.240234 c 0.04417,0.09816 0.02058,0.09349 0.03906,0.01953 a 0.26169524,0.26169524 0 0 0 -0.0039,0.01758 c -0.0019,0.01056 -0.01419,0.04783 -0.01563,0.115235 -0.0014,0.06696 0.02629,0.181393 0.101562,0.257812 4.95e-4,5.02e-4 -4.98e-4,0.0015 0,0.002 0.17013,0.178674 0.341108,0.259563 0.419922,0.34375 a 0.26169524,0.26169524 0 0 0 0.01563,0.01367 c 0.213545,0.192617 0.466784,0.234271 0.65625,0.271485 0.424769,0.09081 0.905814,0.176804 1.396485,0.05664 a 0.26169524,0.26169524 0 0 0 0.0059,-0.002 c 0.313564,-0.08582 0.581395,-0.236772 0.826172,-0.375 a 0.26169524,0.26169524 0 0 0 0.01172,-0.0078 c 0.166115,-0.105206 0.377408,-0.221001 0.548828,-0.429688 a 0.26169524,0.26169524 0 0 0 0.01172,-0.01758 c 0.07612,-0.110243 0.169505,-0.22656 0.257812,-0.367188 a 0.26169524,0.26169524 0 0 0 0.0293,-0.05859 c 0.06258,-0.197124 0.100043,-0.398559 0.126953,-0.589844 v -0.0039 c 0.03972,-0.218105 -0.02946,-0.366038 -0.0332,-0.416016 a 0.26169524,0.26169524 0 0 0 -0.0039,-0.02148 c -0.0078,-0.04964 0.0102,-0.188461 -0.08203,-0.357422 -0.0785,-0.155575 -0.176726,-0.311483 -0.314453,-0.447266 -0.11198,-0.1154834 -0.245088,-0.1358258 -0.310547,-0.1484372 -0.06546,-0.012612 -0.06753,-0.020953 -0.04883,-0.00391 a 0.26169524,0.26169524 0 0 0 -0.01758,-0.013672 c -0.0546,-0.041752 -0.102653,-0.074949 -0.154297,-0.1113281 0.01676,-0.020891 0.04386,-0.051633 0.05664,-0.064453 0.03956,-0.00373 0.08722,-0.00262 0.191406,-0.046875 l 0.0059,-0.00195 c 0.118605,-0.047523 0.254192,-0.074447 0.402343,-0.095703 0.141127,-0.00587 0.29535,0.010941 0.46875,0.025391 a 0.26169524,0.26169524 0 0 0 0.0098,0 c -0.02435,-0.00101 -0.02124,-0.0046 0.0078,0.00781 0.02905,0.01241 0.08199,0.040054 0.167968,0.050781 a 0.26169524,0.26169524 0 0 0 0.07422,-0.00195 c 0.112548,-0.018011 0.191922,-0.053555 0.248047,-0.072266 a 0.26169524,0.26169524 0 0 0 0.169922,-0.1777344 c 2.12e-4,-7.71e-4 4.07e-4,-0.00683 0.03125,-0.023437 a 0.26169524,0.26169524 0 0 0 0.07813,-0.066406 C 75.956474,9.2440888 75.99014,9.1408587 76.013672,9.1074219 A 0.26169524,0.26169524 0 0 0 76.005859,8.796875 C 75.87995,8.6336535 75.731084,8.5957774 75.632812,8.5683594 75.619647,8.5524303 75.610476,8.5423209 75.587891,8.515625 A 0.26169524,0.26169524 0 0 0 75.410156,8.4257812 C 75.300225,8.4163434 75.197733,8.4117033 75.101562,8.40625 Z"
     transform="matrix(10.006878,0,0,10.006878,-176.19807,-3.599709)" /><path
     style="display:inline;opacity:1;fill:#ffffff;stroke:none;stroke-width:0;stroke-linecap:butt;stroke-linejoin:miter;stroke-miterlimit:10;stroke-dasharray:none;stroke-opacity:1"
     d="m 592.00615,81.883516 c 1.97199,-2.629336 34.39913,-6.418403 36.15201,-5.103735 1.7529,1.314665 -12.40179,3.800078 -2.76092,2.704522 4.82045,-0.547775 0.13238,1.340443 1.15948,1.313056 1.02708,-0.02742 4.05089,-0.421041 1.03809,0.784068 -5.71569,1.32568 -9.37986,2.207732 -6.31983,1.854657 5.0442,-0.582009 0.66884,1.580494 -1.72255,2.184661 -2.50684,0.633326 1.073,0.02515 -1.22768,0.02515 -2.30068,0 -2.62921,0.235747 -6.43854,0.34746 -1.53358,0.04493 -8.1356,1.394416 -8.68337,3.695086 -0.54778,2.30067 -3.67953,8.393623 -0.6119,8.064962 3.06751,-0.32862 14.87618,-2.281861 14.87618,-2.281861 0,0 3.94399,-0.766924 2.19114,0.985982 -1.7529,1.752879 -1.31468,2.191102 -0.65736,1.97199 -0.19142,1.148338 -2.26398,3.593946 -1.91239,3.898656 -2.08157,0.32862 -17.12693,0.90311 -17.45564,2.76546 -0.32863,1.86244 -0.92172,6.17726 -0.48351,7.60148 0.43818,1.42422 2.51977,2.08156 2.51977,2.08156 0,0 10.89785,-2.72471 14.62275,-3.27278 3.72488,-0.54778 11.5377,1.53834 8.68925,2.41475 -2.84845,0.8764 -6.10398,0.7325 -4.57018,1.17074 1.53378,0.43821 4.35107,0.69168 2.15995,1.23948 -2.1911,0.54779 -6.99275,0.50246 -6.44501,1.37885 0.54778,0.87649 5.83173,0.17359 3.64061,1.26928 -2.19111,1.09556 -30.28007,5.08495 -32.03295,3.77028 -2.08155,-0.10957 -1.85497,-0.72391 -3.06757,-2.62933 -0.82287,-1.29301 0.55037,-7.09655 1.70673,-9.92678 0.65527,-1.60384 -0.97196,1.28226 0.82747,-0.58109 0.31242,-0.32352 1.53684,-13.497207 2.41037,-14.085882 2.9846,-2.011286 2.05651,-13.577596 2.28617,-13.53167 z"
     id="path1551"
     inkscape:connector-curvature="0"
     sodipodi:nodetypes="ccsscsssssccccccccsccccccsssscc" /></g>

</svg>
