<?xml version="1.0" encoding="UTF-8" standalone="no"?>
<svg
   xmlns:dc="http://purl.org/dc/elements/1.1/"
   xmlns:cc="http://creativecommons.org/ns#"
   xmlns:rdf="http://www.w3.org/1999/02/22-rdf-syntax-ns#"
   xmlns:svg="http://www.w3.org/2000/svg"
   xmlns="http://www.w3.org/2000/svg"
   xmlns:sodipodi="http://sodipodi.sourceforge.net/DTD/sodipodi-0.dtd"
   xmlns:inkscape="http://www.inkscape.org/namespaces/inkscape"
   version="1.1"
   id="Layer_1"
   x="0px"
   y="0px"
   width="600px"
   height="300px"
   viewBox="0 0 600 300"
   enable-background="new 0 0 600 300"
   xml:space="preserve"
   sodipodi:docname="skunkboard_dfx_1.svg"
   inkscape:version="1.0.1 (1.0.1+r73)"><metadata
   id="metadata111"><rdf:RDF><cc:Work
       rdf:about=""><dc:format>image/svg+xml</dc:format><dc:type
         rdf:resource="http://purl.org/dc/dcmitype/StillImage" /></cc:Work></rdf:RDF></metadata><defs
   id="defs109">
	
	

		
		
		
		
		
		
		
		
		
		
		
		
		
		
		
		
		
		
		
		
		
		
		
		
		
		
		
		
		
		
		
		
		
		
		
		
		
		
		
		
		
		
		
		
		
		
		
		
		
		
	</defs><sodipodi:namedview
   pagecolor="#ffffff"
   bordercolor="#666666"
   borderopacity="1"
   objecttolerance="10"
   gridtolerance="10"
   guidetolerance="10"
   inkscape:pageopacity="0"
   inkscape:pageshadow="2"
   inkscape:window-width="1920"
   inkscape:window-height="1015"
   id="namedview107"
   showgrid="false"
   inkscape:zoom="1.3317178"
   inkscape:cx="245.19665"
   inkscape:cy="179.15201"
   inkscape:window-x="0"
   inkscape:window-y="0"
   inkscape:window-maximized="1"
   inkscape:current-layer="layer3" />
<g
   inkscape:groupmode="layer"
   id="layer1"
   inkscape:label="background"
   style="display:inline"><path
     id="rect2"
     d="M 0,0 H 600 V 300 H 0 Z"
     style="display:inline" /></g><g
   inkscape:groupmode="layer"
   id="layer3"
   inkscape:label="logo"
   style="display:inline"><path
     fill="none"
     stroke="#ffffff"
     stroke-width="0.0938"
     stroke-miterlimit="10"
     d="m 544.3,55.4 c 2.7,-2.7 4.8,-6.1 8.3,-7.9 0,3.5 -2.5,6 -4.6,8.5 -2.8,3.4 -6.2,6.4 -8.6,10.2 6.6,0 8.199,-8.1 14,-9.6 -1,2 -2.4,3.7 -3.4,5.7 -0.6,2 -0.5,4.2 -1.9,5.8 -1.899,3.2 -5.399,4.6 -7.699,7.3 -4.801,5.2 -9.101,10.9 -14,16.1 -2.4,2.7 -6.801,2.8 -8.601,6.2 -3.1,5.2 -8.1,9.1 -10.399,14.6 -1.601,4.2 -5.601,6.5 -8.5,9.6 -2.4,2.9 -5.801,4.6 -8.5,7.2 0.399,-2.5 0.899,-4.9 1.1,-7.3 -3,3 -4.8,7 -7.9,9.8 0.2,-2 0.7,-4 1.101,-6.1 -1.4,-0.4 -2.8,-0.9 -4.2,-1.5 0.4,-2 0.9,-4 1.5,-6 -0.9,0 -2.7,0 -3.6,0 1.899,-6.8 7.399,-11.7 11.3,-17.4 2,-2.6 3.2,-5.9 5.6,-8.3 5.7,-5.7 11.2,-11.7 18.2,-15.8 4.5,-4.5 8.2,-9.8 12.4,-14.6 2.5,-2.8 4.699,-6.3 8.399,-7.6 -1.399,4.6 -5,7.9 -7.3,11.9 1.8,-0.5 3.7,-0.7 5.2,-1.9 2.399,-2 3.7,-5.1 6.399,-6.7 1.7,-1.1 3.8,-1.4 5.7,-2.2 z"
     id="path8"
     style="display:inline;fill:#ffffff;stroke:none;stroke-width:0;stroke-miterlimit:10;stroke-dasharray:none" /><path
     fill="none"
     stroke="#ffffff"
     stroke-width="0.0938"
     stroke-miterlimit="10"
     d="m 462.2,67.4 c 1.7,-2.2 4.7,-3.3 7.399,-2.2 1.801,1.3 1,3.8 1,5.7 -1.5,11.2 -3.899,22.3 -6.5,33.2 -2.199,5.2 -6.899,9.1 -8.3,14.8 -2.399,7.4 -2.7,15.2 -5.3,22.5 -0.7,3.9 -0.7,8 -2.4,11.7 -2.5,5.801 -1.399,12.4 -4,18.101 -1.5,3.3 -2.199,6.8 -2.6,10.399 -1.6,2.801 -2.9,5.7 -3.5,8.9 -0.9,-0.1 -2.7,-0.3 -3.5,-0.3 0.5,-2.2 2.1,-3.8 3.7,-5.3 -0.101,-2.4 -0.601,-4.9 0.8,-6.9 1.4,-2.3 1,-5 0.9,-7.5 -1.4,1 -2.101,2.4 -2.5,4 -2.101,7 -4.9,13.8 -9.301,19.7 -1,-1.601 -2,-3.2 -3,-4.8 -1.3,4.199 -1.199,8.699 -3.6,12.5 -1.6,-0.801 -3.1,0.199 -4.4,1 -0.5,-1.601 -1.1,-3.2 -1.6,-4.9 0.7,-1.1 1.5,-2.2 2.2,-3.3 -0.7,-1.8 -1.9,-3.601 -1.4,-5.601 0.8,-6.199 4.7,-11.199 6.9,-16.8 1.2,-1.6 -0.101,-3.399 -0.3,-5 1.899,-2 2.699,-4.6 3,-7.3 0.199,-3.2 3.199,-5.1 5.399,-7.1 -0.1,-2.601 -0.8,-5.2 0,-7.7 2,-6.9 4.3,-13.7 6.7,-20.4 1,-2.1 0.1,-4.4 0.1,-6.7 1.101,-3.2 4,-5.5 5,-8.8 1.2,-4 3,-8 2.9,-12.2 0,-4 2.2,-8 1.2,-11.9 -3,-3.7 -2.5,-8.6 -3.3,-12.9 1.899,-0.3 4.3,-0.4 5,-2.5 0.899,-2.7 3.8,-3.2 6.199,-3.9 C 457.7,64.8 459.9,69.6 462.2,67.4 Z"
     id="path20"
     style="display:inline;fill:#ffffff;stroke:none;stroke-width:0;stroke-miterlimit:10;stroke-dasharray:none" /><path
     id="path28"
     style="display:inline;fill:#ffffff;stroke:none;stroke-width:0;stroke-miterlimit:10;stroke-dasharray:none"
     d="m 492.99609,141.97266 c -4.96604,0.0743 -9.91489,0.90859 -14.5957,2.52734 -4.5,1.7 -9.50017,4.5 -10.70117,9.5 0.2,5.2 6.899,6.9 7.5,12 0.5,7.4 -3.10178,14.2 -5.30078,21 -4.2,12.1 -9.70039,25.1 -5.90039,38 3.7,11.8 15.30117,18.59961 26.20117,22.59961 13.7,5.7 29.19883,5.40039 43.29883,1.90039 6.3,-1.5 12.5,-4.3 16.5,-9.5 3.701,-5 7.50156,-10.90178 7.10156,-17.30078 -1.8,0.899 -3.50022,2.10017 -5.19922,3.20117 -6.7,4.5 -15,6.29961 -23,6.09961 -4.2,0 -8.9,-2.20078 -10.5,-6.30078 C 516.50039,220.89922 517.3,215.3 520,211 c 6.4,-11.1 13.00039,-22.9 13.40039,-36 0.1,-13.2 -9.60117,-25.09961 -21.70117,-29.59961 -5.90625,-2.3625 -12.31821,-3.52331 -18.70313,-3.42773 z m -9.71093,5.0039 C 483.51172,146.95645 483.75,146.9625 484,147 c 9.5,0.4 19.70039,0.59961 27.90039,6.09961 6.399,3.801 9.79961,11.60139 9.09961,18.90039 -0.9,9.8 -4.00039,19.5 -8.90039,28 -2.399,4.7 -5.49883,9.09922 -6.79883,14.19922 -0.8,5.399 -0.80139,11.90039 3.59961,15.90039 4.199,3.7 9.69922,5.69861 15.19922,6.59961 5.7,1 11.4,-0.39883 17,-1.29883 1.5,-0.5 2.69978,0.50022 3.80078,1.19922 -12.2,7.2 -28.19978,8.60078 -41.30078,2.80078 -5.3,-2.7 -11,-5.4 -15,-10 -4.5,-4.4 -7.1,-10.99978 -5.5,-17.30078 2.601,-9.899 5.301,-19.80139 10,-28.90039 3.301,-6.2 4.70056,-14.101 1.10156,-20.5 -3.001,-6.1 -9.80156,-8.69961 -14.60156,-13.09961 1.05,-1.05 2.09961,-2.48223 3.68555,-2.62305 z" /><path
     id="path56"
     style="display:inline;fill:#ffffff;stroke:none;stroke-width:0;stroke-miterlimit:10;stroke-dasharray:none"
     d="m 397.41406,230.98633 c -1.00371,0.0473 -2.01367,0.21367 -3.01367,0.51367 -6.8,1.7 -11.50039,8.6 -11.40039,15.5 -0.2,8.5 7.2,16.7 16,16 9.4,-0.6 16,-10.90178 13.5,-19.80078 -1.3125,-7 -8.05996,-12.54375 -15.08594,-12.21289 z m -5.61328,6.91406 c 3.601,0.6 9.19861,-0.90117 11.09961,3.29883 0.8,3.7 1.10078,7.80139 -0.19922,11.40039 -2.5,3.4 -7.30039,2.09944 -10.90039,2.39844 -10e-4,-5.699 -0.1,-11.39766 0,-17.09766 z m 4,3 c -0.1,3.8 -0.1,7.59883 0,11.29883 1.2,-0.2 2.4,-0.49883 3.5,-0.79883 0.5,-3.301 0.79861,-6.801 -0.40039,-10 -0.801,-0.101 -2.29961,-0.4 -3.09961,-0.5 z" /><path
     id="path52"
     style="display:inline;fill:#ffffff;stroke:none;stroke-width:0;stroke-miterlimit:10;stroke-dasharray:none"
     d="m 346.41406,230.98633 c -1.00371,0.0473 -2.01367,0.21367 -3.01367,0.51367 -6.8,1.7 -11.50039,8.6 -11.40039,15.5 -0.2,8.5 7.2,16.7 16,16 9.4,-0.6 16,-10.90178 13.5,-19.80078 -1.3125,-7 -8.05996,-12.54375 -15.08594,-12.21289 z M 341,238 c 3.3,0.2 6.90039,-0.50039 9.90039,1.09961 3.1,2.4 1.69922,7.10139 -1.30078,8.90039 1.2,2.3 2.301,4.6 3.5,7 h -4 c -1.199,-2.6 -2.30156,-5.39922 -4.10156,-7.69922 -0.3,2.601 -0.29883,5.10022 -0.29883,7.69922 h -3.70117 c 0.001,-5.7 0.002,-11.4 0.002,-17 z m 3.80078,2.5 v 5.19922 c 1.299,-0.299 2.59844,-0.59844 3.89844,-0.89844 v -3.5 c -1.299,-0.3 -2.59844,-0.50078 -3.89844,-0.80078 z" /><path
     fill="none"
     stroke="#ffffff"
     stroke-width="0.0938"
     stroke-miterlimit="10"
     d="m 282.6,68.7 c 3,-0.7 7.9,-2.5 9.6,1.1 1.2,1.9 1.7,4.2 2.6,6.3 1.1,1.5 3,2.1 4.5,3.1 -2.3,6.8 -7,12.4 -10.6,18.5 -1.5,2.4 -1.1,5.4 -1.7,8.1 -1.1,1.6 -2.6,3 -3.7,4.7 -0.9,2.6 -0.8,5.7 -2.9,7.9 -1.5,2.3 -4.6,3.9 -4.9,6.9 -0.5,4.6 -4.4,7.9 -5.9,12.1 0,6.2 -4.4,11.2 -6.4,16.8 -0.4,3.899 -2.3,7.8 -1,11.7 5.7,0.1 9.8,-4.601 14.5,-7.2 4.6,-2.4 5.7,-8.101 9.9,-11.1 2.9,-3.2 7.2,-5.3 8.5,-9.7 2.6,-6.9 5.8,-13.7 6.5,-21.2 0.7,-3.4 0.4,-7.4 3.301,-9.8 2.8,-2.5 2,-6.8 4.399,-9.6 4.601,-6 6.8,-13.4 10,-20.2 2.601,-0.2 5.3,-0.3 7.8,1 2.7,1.3 6.301,0.9 8.5,3.2 -0.199,3.7 1,7.2 2.2,10.6 -8.5,19.4 -17.1,38.9 -25.399,58.5 -2.601,5.7 -2.801,12.2 -3.2,18.4 2.8,0.4 5.7,0.3 8.399,1.3 1.9,-4 4.2,-7.699 5.801,-11.699 1.199,-3.2 1.3,-6.801 3.3,-9.601 6.3,-7.6 9.2,-17.2 12.6,-26.3 1.601,-5 6,-8.3 8.5,-12.7 2.8,-5.1 5.7,-10.2 9.101,-14.9 2.899,-3.6 6.199,-6.7 9.399,-10 -0.2,-2.3 -0.6,-4.6 -0.7,-6.9 1,-1.7 2.7,-2.9 4.101,-4.2 1.5,2 3.5,3.7 6,4.4 3.1,1.5 8,-1.5 9.7,2.4 1.399,4.4 -1,8.9 -0.601,13.4 -1.6,14.1 1.9,27.9 1.7,42 -0.2,8.2 0.9,16.4 1.7,24.6 1.6,-4 3.5,-7.899 6.399,-11.1 2.5,-8.3 0.9,-17 2.4,-25.4 0.3,-3.7 1.3,-7.2 1.7,-10.9 -1.3,-4.8 -2,-10 -0.2,-14.7 1.7,-5.2 2.9,-10.5 4,-15.8 2.5,-0.6 5.1,-1 7.7,-1.2 0.5,-1.7 1,-3.4 1.6,-5.1 4,0.3 8.3,0.9 11.9,2.9 0.6,1 1.1,2.1 1.6,3.1 1.2,-0.2 2.4,-0.4 3.7,-0.6 2.1,4.1 1.4,8.7 1.3,13.1 -1.5,2.1 -3.1,4.1 -3.5,6.7 -1,5.5 -3.399,10.5 -5.7,15.5 -2.6,5.2 -1.699,11.2 -2.199,16.8 -3.301,9.3 -8.301,17.9 -12,27.1 -2.301,6.8 -4.2,13.7 -6.5,20.5 -2.5,6.5 -8.2,11.1 -11,17.4 -1.601,-3.5 -3.5,-6.801 -6.4,-9.301 2.4,-5 -1.2,-9.699 -3.5,-14 -0.6,-3.399 -1.3,-6.8 -2.2,-10.199 -1.1,-0.4 -2.2,-0.7 -3.3,-1 -0.8,-4.5 -1.9,-8.9 -2.7,-13.4 -0.1,-1.8 -2.399,-2.4 -2.5,-4.2 -0.899,-6.5 0.5,-13.2 -1,-19.7 -1.399,-6.3 -2.3,-12.8 -4.2,-19 -2.6,5.7 -3.6,12.1 -7,17.5 -4.899,8.3 -9.6,16.9 -15.199,24.7 -3.5,11.8 -8.2,23.2 -12.601,34.601 -1,3 -3.5,5.1 -5,7.8 -3.7,5.399 -4.2,12.6 -9.2,17.1 -3.5,-0.2 -5.199,3.4 -8.6,3.3 -0.6,1.2 -1.1,2.4 -1.7,3.601 -2.3,0.6 -4.5,-0.3 -5.9,-2.3 -1.2,-2.801 0.5,-5.601 1.7,-8.101 3.3,-5.8 4.1,-12.6 6.4,-18.7 2.1,-2.1 4.1,-4.199 5.6,-6.8 -2.1,-0.5 -4,-1.3 -6,-2 -3.3,1.9 -6.3,4.5 -10.1,5.2 -2.6,-0.8 -5.4,-1.8 -7,-4.1 -3.5,-7.101 -1,-15.101 -2.1,-22.601 -3,4.4 -5.2,9.7 -9.7,12.9 -2.8,2.2 -5.5,4.7 -8.6,6.5 -4.4,1.3 -9,1.5 -13.4,1.2 -3.2,-1.801 -5.3,-5 -7.1,-8 0.2,-8.101 -1.2,-16.4 1.6,-24.2 2.6,-8.7 5.2,-17.5 7.9,-26.2 1.4,-4.8 5.4,-8.2 7.4,-12.7 0.6,-2.3 -0.4,-4.9 0.8,-7.1 2.4,-5.4 5.1,-10.6 8.2,-15.7 1.5,-2 0.5,-4.9 2.1,-6.9 1.999,-2.9 3.799,-6.1 6.499,-8.4 z"
     id="path24"
     style="display:inline;fill:#ffffff;stroke:none;stroke-width:0;stroke-miterlimit:10;stroke-dasharray:none" /><path
     id="path48"
     style="display:inline;fill:#ffffff;stroke:none;stroke-width:0;stroke-miterlimit:10;stroke-dasharray:none"
     d="m 296.41406,230.98633 c -1.00371,0.0473 -2.01367,0.21367 -3.01367,0.51367 -6.8,1.7 -11.50039,8.6 -11.40039,15.5 -0.2,8.5 7.2,16.7 16,16 9.4,-0.6 16,-10.90178 13.5,-19.80078 -1.3125,-7 -8.05996,-12.54375 -15.08594,-12.21289 z M 298.80078,238 c 1.7,5.6 3.19844,11.3 4.89844,17 h -3.39844 c -0.4,-1.1 -0.80078,-2.20078 -1.30078,-3.30078 h -4.69922 c -0.4,1.1 -0.80078,2.20139 -1.30078,3.40039 -0.8,-0.1 -2.50039,-0.10156 -3.40039,-0.10156 1.6,-5.699 3.20078,-11.29844 4.80078,-16.89844 1.4,-0.1 2.90039,-0.0996 4.40039,-0.0996 z M 296.5,241.40039 c -0.6,2.5 -1.19922,5.00039 -1.69922,7.40039 1.3,-0.1 2.49883,-0.20078 3.79883,-0.30078 -0.7,-2.3 -1.29961,-4.79961 -2.09961,-7.09961 z" /><path
     id="path44"
     style="display:inline;fill:#ffffff;stroke:none;stroke-width:0;stroke-miterlimit:10;stroke-dasharray:none"
     d="m 244.41406,230.98633 c -1.00371,0.0473 -2.01367,0.21367 -3.01367,0.51367 -6.8,1.7 -11.50039,8.6 -11.40039,15.5 -0.2,8.5 7.2,16.7 16,16 9.4,-0.6 16,-10.90178 13.5,-19.80078 -1.3125,-7 -8.05996,-12.54375 -15.08594,-12.21289 z m 0.14063,6.76953 c 2.36838,-0.0457 4.75781,1.03711 5.44531,3.44336 0.8,3.2 0.60078,6.50117 0.30078,9.70117 -0.4,4.699 -7.1,6.09944 -10,2.89844 -1.6,-1.899 -1.40156,-4.50078 -1.60156,-6.80078 0.1,-2.899 -0.19922,-6.79805 2.80078,-8.49805 0.90625,-0.46875 1.97815,-0.72339 3.05469,-0.74414 z m 1.64453,3.14453 c -0.8,0.099 -2.49883,0.30039 -3.29883,0.40039 -0.2,3.6 -0.2,7.19883 0,10.79883 0.8,0.1 2.39922,0.10117 3.19922,0.20117 0.8,-3.799 0.89961,-7.70139 0.0996,-11.40039 z" /><path
     fill="none"
     stroke="#ffffff"
     stroke-width="0.0938"
     stroke-miterlimit="10"
     d="m 221.6,61.7 c 2.5,-1.4 4.8,-3.1 7.3,-4.4 2.8,2.3 3.3,5.9 2.8,9.3 -4.6,7.9 -10.5,14.9 -15.9,22.1 -2.2,3.5 -3.5,7.4 -4.9,11.3 -1.2,2.8 -0.5,6.1 -1.8,9 -1.3,3 -3,5.9 -4.4,8.9 8.4,-2.3 16.7,-6.1 23,-12.2 4.8,-4.8 7.7,-11.1 11,-17 1.3,-2.3 3.8,-3.5 5.2,-5.7 2.6,-3.9 5.2,-7.8 7.9,-11.5 1.8,0.6 3.5,1.1 5.3,1.6 1.9,4.6 3.3,9.5 3.5,14.5 -2,4.1 -3.9,8.5 -7.4,11.6 -3.7,3.6 -7.3,7.4 -11.1,11 -4.4,3.6 -9.3,6.6 -13.8,10.2 -4.3,2.2 -9,3.8 -13.7,4.8 5.5,6 12.3,12.2 13.2,20.8 2.2,11.9 3.9,24 5.5,36 0.5,2.6 -0.1,5.1 -0.8,7.6 -0.9,-2.399 -1.3,-5 -2.4,-7.399 -2,4.2 -2.7,8.899 -2.1,13.5 -0.7,0.7 -1.9,2 -2.5,2.6 -1.4,-3.899 -0.3,-8.1 -0.4,-12.1 -0.8,-3 -1.7,-6 -2.2,-9 0,-1.601 -1.4,-2.5 -2.8,-2.7 0,2.3 0.7,4.8 -0.8,6.8 -2.8,-3.7 -3.4,-8.2 -4.9,-12.399 0.5,-6.2 3.2,-12.4 1,-18.5 -0.6,-2.7 -3.3,-4.1 -4.3,-6.6 -1.4,-2.6 -1.7,-6.2 -4.3,-7.8 -3.7,-0.7 -7.6,-0.4 -11.2,-1.8 -2,3.4 -3.4,7.1 -4.6,10.9 -2.6,7.4 -5,14.9 -7.5,22.3 -2.2,7.1 -7.1,13.1 -8.5,20.5 -1.3,0.3 -1.4,-1.601 -1.5,-2.5 0.2,-1.7 -0.8,-3.2 -1.8,-4.601 -2.6,4.4 -4.1,9.2 -6.2,13.8 0,-2.399 0.8,-5 -0.9,-7 -1.4,3.801 -1.5,8.5 -5.4,10.9 -1.2,-6.6 2,-12.9 3,-19.4 5.1,-9.5 9.1,-19.5 13.6,-29.3 1.5,-3.7 3.6,-7.4 4.3,-11.5 -2.2,-0.8 -4.8,-1.3 -6,-3.6 -2.2,0.1 -4.3,0 -6.4,-0.1 5.1,-5.7 11.8,-10 18.9,-12.8 4.2,-4.5 4.3,-11.1 6.9,-16.4 2.8,-7.8 6.9,-15.2 8.5,-23.4 1.3,-5.7 3.3,-11.1 5.4,-16.6 0.9,-0.4 1.8,-0.8 2.7,-1.2 1,1.1 2,2 3,2.9 0.7,-1.5 1.2,-3.1 1.8,-4.7 2.2,-0.201 4.5,-0.101 6.7,-0.701 z"
     id="path16"
     style="display:inline;fill:#ffffff;stroke:none;stroke-width:0;stroke-miterlimit:10;stroke-dasharray:none" /><path
     fill="none"
     stroke="#ffffff"
     stroke-width="0.0938"
     stroke-miterlimit="10"
     d="m 173.3,189.2 c 1.3,0.1 1.6,0.7 0.6,2.1 -1.3,-0.1 -1.6,-0.8 -0.6,-2.1 z"
     id="path36"
     style="display:inline;fill:#ffffff;stroke:none;stroke-width:0;stroke-miterlimit:10;stroke-dasharray:none" /><path
     id="path40"
     style="display:inline;fill:#ffffff;stroke:none;stroke-width:0;stroke-miterlimit:10;stroke-dasharray:none"
     d="m 193.41406,230.98633 c -1.00371,0.0473 -2.01367,0.21367 -3.01367,0.51367 -6.8,1.7 -11.50039,8.6 -11.40039,15.5 -0.2,8.5 7.2,16.7 16,16 9.4,-0.6 16,-10.90178 13.5,-19.80078 -1.3125,-7 -8.05996,-12.54375 -15.08594,-12.21289 z m -2.89258,6.99414 c 2.31563,-0.0187 4.6043,0.0191 6.7793,0.61914 2.8,1.5 2.29883,5.2 0.79883,7.5 1.7,2.101 2.5,5.2 0.5,7.5 -2.9,2.4 -6.90039,1.10139 -10.40039,1.40039 0.1,-5.7 0,-11.4 0,-17 0.775,0 1.55039,-0.0133 2.32226,-0.0195 z m 1.2793,2.61914 v 4.59961 c 1.2,-0.2 2.49883,-0.49922 3.79883,-0.69922 0,-1.099 0.0996,-2.19922 0.0996,-3.19922 -1.3,-0.3 -2.59844,-0.50117 -3.89844,-0.70117 z m 0,6.70117 v 5.09961 c 1.3,-0.201 2.7,-0.39961 4,-0.59961 0.1,-1.2 0.0996,-2.50117 0.0996,-3.70117 -1.4,-0.3 -2.69961,-0.49883 -4.09961,-0.79883 z" /><path
     fill="none"
     stroke="#ffffff"
     stroke-width="0.0938"
     stroke-miterlimit="10"
     d="m 129.4,55.5 c 8.5,-2.7 17.8,-6.8 26.6,-3.1 5,-0.4 9.9,-1.7 15,-1.4 3.5,0.2 7,0.3 10.5,0.6 1.1,1.3 2,2.6 3.2,3.8 3.9,1.4 8.4,2.2 11.1,5.7 -1.9,2.7 -3,6 -5.1,8.6 -2.6,1.4 -4.7,3.5 -5.5,6.4 -2.4,0.8 -4.7,1.8 -7.2,2.2 -2.4,-0.3 -4.5,-2 -6.9,-2.1 -6,-0.5 -11.9,-1.2 -17.9,-0.9 -5.7,0.8 -11.4,1.9 -16.8,4.1 -2.5,1.1 -5.4,1 -8,1.8 -3.1,2.4 -5.1,5.8 -7.6,8.7 -1.3,1.3 -2,4.1 -0.2,5.3 3.5,2.6 7.1,5 10.5,7.6 3.4,3.1 8.9,1.6 12.1,4.9 4,3.9 7,8.6 9.5,13.6 1.6,2.9 1.3,6.3 1.8,9.5 0.3,4 2.1,8 1.3,12.2 -0.9,6.5 -2.1,13.2 -4.1,19.5 -2.7,4.3 -5.9,8.2 -8.8,12.4 -4.6,5.6 -10.9,9.3 -16.9,13.1 -8.5,4.8 -17.2,9.6 -26.7,12.2 -14.7,3.6 -30,1.1 -44.5,-2 -6.6,-1.3 -13.6,-2.7 -18.7,-7.3 -4.4,-4.7 -10.4,-7.5 -14.8,-12.2 -1.4,-1.4 -0.8,-3.3 -0.5,-5 0.6,-2.4 -1,-4.601 -1.9,-6.601 1.6,-2.699 3.5,-5.399 3.8,-8.6 0.9,-2.4 -1.1,-4.5 -1.7,-6.6 1.7,-0.4 3.4,-0.101 5.1,0.5 1.3,-2.101 3.7,-4.601 6.4,-3.4 2.1,5 5.2,9.7 10.1,12.5 9.3,5.6 18.5,12.1 29.4,14.5 9.1,2.1 18.7,2.2 28,1.2 9,-1.2 18.3,-3.7 25,-10.101 7.1,-7.3 10.6,-17.399 11.8,-27.3 1.5,-6.5 -1.8,-12.7 -3.9,-18.8 -5.2,-0.8 -10.2,-2.2 -15.5,-2.4 -1.5,-0.8 -2.6,-2 -4,-2.9 -7.2,-1 -13.4,-5.7 -17.8,-11.3 -2.2,-4.3 -4,-8.9 -5.7,-13.5 0.4,-2.5 1,-5 0.7,-7.6 0.9,-3.6 4.2,-5.8 5.4,-9.3 1.3,-3.4 3.3,-6.6 6.4,-8.5 6.6,-4.3 13.4,-8.2 20.5,-11.5 2,1.002 4.2,2.802 6.5,1.502 z"
     id="path12"
     style="display:inline;fill:#ffffff;stroke:none;stroke-width:0;stroke-miterlimit:10;stroke-dasharray:none" /></g>

</svg>
