G04 FreePCB version 1.355*
G04 Z:\home\jjones\skunkboard\pcb\CAM\top_paste_mask.grb*
G04 top paste mask layer *
G04 Scale: 100 percent, Rotated: No, Reflected: No *
%FSLAX24Y24*%
%MOIN*%
%LN top paste mask *%
G04 Rounded Rectangle Macro, params: W/2, H/2, R *
%AMRNDREC*
21,1,$1+$1,$2+$2-$3-$3,0,0,0*
21,1,$1+$1-$3-$3,$2+$2,0,0,0*
1,1,$3+$3,$1-$3,$2-$3*
1,1,$3+$3,$3-$1,$2-$3*
1,1,$3+$3,$1-$3,$3-$2*
1,1,$3+$3,$3-$1,$3-$2*%
G04 Rectangular Thermal Macro, params: W/2, H/2, T/2 *
%AMRECTHERM*
$4=$3/2*
21,1,$1-$3,$2-$3,0-$1/2-$4,0-$2/2-$4,0*
21,1,$1-$3,$2-$3,0-$1/2-$4,$2/2+$4,0*
21,1,$1-$3,$2-$3,$1/2+$4,0-$2/2-$4,0*
21,1,$1-$3,$2-$3,$1/2+$4,$2/2+$4,0*%
%ADD10R,0.029800X0.239800*%
%ADD11R,0.029800X0.301800*%
%ADD12R,0.043107X0.047044*%
%ADD13R,0.058855X0.011611*%
%ADD14R,0.011611X0.058855*%
%ADD15R,0.078540X0.216335*%
%ADD16R,0.056887X0.011611*%
%ADD17R,0.054918X0.017517*%
%ADD18R,0.072635X0.072635*%
%ADD19R,0.062792X0.050981*%
%ADD20R,0.019485X0.088383*%
%ADD21R,0.080509X0.267517*%
%ADD22R,0.123816X0.062792*%
%ADD23R,0.070666X0.049013*%
%ADD24R,0.047044X0.043107*%
%ADD25C,0.047044*%
%ADD26R,0.031296X0.094288*%
%ADD27R,0.011611X0.037202*%
%ADD28R,0.011611X0.039170*%
G90*
G70D02*

G04 Step and Repeat for panelization *

G04 -------------- Draw Parts, Pads, Traces, Vias and Text (positive)*
%LPD*%
G04 Draw part C1*
G54D12*
G01X24803Y12007D03*
G01X25472Y12007D03*
G04 Draw part C2*
G01X28503Y9645D03*
G01X29173Y9645D03*
G04 Draw part C3*
G01X28503Y8582D03*
G01X29173Y8582D03*
G04 Draw part C4*
G01X24960Y4173D03*
G01X25629Y4173D03*
G04 Draw part C5*
G01X20000Y7952D03*
G01X20669Y7952D03*
G04 Draw part C6*
G01X15905Y10708D03*
G01X16574Y10708D03*
G04 Draw part C7*
G01X19212Y6299D03*
G01X19881Y6299D03*
G04 Draw part C8*
G01X15039Y4330D03*
G01X15708Y4330D03*
G04 Draw part C9*
G01X12283Y8425D03*
G01X12952Y8425D03*
G04 Draw part C10*
G01X10787Y8661D03*
G01X11456Y8661D03*
G04 Draw part C11*
G01X10787Y6929D03*
G01X11456Y6929D03*
G04 Draw part U1*
G54D13*
G01X27598Y5708D03*
G01X27598Y5905D03*
G01X27598Y6102D03*
G01X27598Y6299D03*
G01X27598Y6496D03*
G01X27598Y6692D03*
G01X27598Y6889D03*
G01X27598Y7086D03*
G01X27598Y7283D03*
G01X27598Y7480D03*
G01X27598Y7677D03*
G01X27598Y7874D03*
G01X27598Y8070D03*
G01X27598Y8267D03*
G01X27598Y8464D03*
G01X27598Y8661D03*
G01X27598Y8858D03*
G01X27598Y9055D03*
G01X27598Y9251D03*
G01X27598Y9448D03*
G01X27598Y9645D03*
G01X27598Y9842D03*
G01X27598Y10039D03*
G01X27598Y10236D03*
G01X27598Y10433D03*
G54D14*
G01X26929Y11102D03*
G01X26732Y11102D03*
G01X26535Y11102D03*
G01X26338Y11102D03*
G01X26141Y11102D03*
G01X25944Y11102D03*
G01X25748Y11102D03*
G01X25551Y11102D03*
G01X25354Y11102D03*
G01X25157Y11102D03*
G01X24960Y11102D03*
G01X24763Y11102D03*
G01X24566Y11102D03*
G01X24370Y11102D03*
G01X24173Y11102D03*
G01X23976Y11102D03*
G01X23779Y11102D03*
G01X23582Y11102D03*
G01X23385Y11102D03*
G01X23188Y11102D03*
G01X22992Y11102D03*
G01X22795Y11102D03*
G01X22598Y11102D03*
G01X22401Y11102D03*
G01X22204Y11102D03*
G54D13*
G01X21535Y10433D03*
G01X21535Y10236D03*
G01X21535Y10039D03*
G01X21535Y9842D03*
G01X21535Y9645D03*
G01X21535Y9448D03*
G01X21535Y9251D03*
G01X21535Y9055D03*
G01X21535Y8858D03*
G01X21535Y8661D03*
G01X21535Y8464D03*
G01X21535Y8267D03*
G01X21535Y8070D03*
G01X21535Y7874D03*
G01X21535Y7677D03*
G01X21535Y7480D03*
G01X21535Y7283D03*
G01X21535Y7086D03*
G01X21535Y6889D03*
G01X21535Y6692D03*
G01X21535Y6496D03*
G01X21535Y6299D03*
G01X21535Y6102D03*
G01X21535Y5905D03*
G01X21535Y5708D03*
G54D14*
G01X22204Y5039D03*
G01X22401Y5039D03*
G01X22598Y5039D03*
G01X22795Y5039D03*
G01X22992Y5039D03*
G01X23188Y5039D03*
G01X23385Y5039D03*
G01X23582Y5039D03*
G01X23779Y5039D03*
G01X23976Y5039D03*
G01X24173Y5039D03*
G01X24370Y5039D03*
G01X24566Y5039D03*
G01X24763Y5039D03*
G01X24960Y5039D03*
G01X25157Y5039D03*
G01X25354Y5039D03*
G01X25551Y5039D03*
G01X25748Y5039D03*
G01X25944Y5039D03*
G01X26141Y5039D03*
G01X26338Y5039D03*
G01X26535Y5039D03*
G01X26732Y5039D03*
G01X26929Y5039D03*
G04 Draw part X1*
G54D15*
G01X30708Y8818D03*
G01X30708Y5472D03*
G04 Draw part C18*
G54D12*
G01X28503Y7322D03*
G01X29173Y7322D03*
G04 Draw part C19*
G01X28503Y6062D03*
G01X29173Y6062D03*
G04 Draw part R1*
G01X28503Y10787D03*
G01X29173Y10787D03*
G04 Draw part C12*
G01X3858Y10354D03*
G01X4527Y10354D03*
G04 Draw part C13*
G01X3858Y11417D03*
G01X4527Y11417D03*
G04 Draw part U2*
G54D13*
G01X18366Y6102D03*
G01X18366Y6299D03*
G01X18366Y6496D03*
G01X18366Y6692D03*
G01X18366Y6889D03*
G01X18366Y7086D03*
G01X18366Y7283D03*
G01X18366Y7480D03*
G01X18366Y7677D03*
G01X18366Y7874D03*
G01X18366Y8070D03*
G01X18366Y8267D03*
G01X18366Y8464D03*
G01X18366Y8661D03*
G01X18366Y8858D03*
G01X18366Y9055D03*
G54D14*
G01X17598Y9822D03*
G01X17401Y9822D03*
G01X17204Y9822D03*
G01X17007Y9822D03*
G01X16811Y9822D03*
G01X16614Y9822D03*
G01X16417Y9822D03*
G01X16220Y9822D03*
G01X16023Y9822D03*
G01X15826Y9822D03*
G01X15629Y9822D03*
G01X15433Y9822D03*
G01X15236Y9822D03*
G01X15039Y9822D03*
G01X14842Y9822D03*
G01X14645Y9822D03*
G54D13*
G01X13877Y9055D03*
G01X13877Y8858D03*
G01X13877Y8661D03*
G01X13877Y8464D03*
G01X13877Y8267D03*
G01X13877Y8070D03*
G01X13877Y7874D03*
G01X13877Y7677D03*
G01X13877Y7480D03*
G01X13877Y7283D03*
G01X13877Y7086D03*
G01X13877Y6889D03*
G01X13877Y6692D03*
G01X13877Y6496D03*
G01X13877Y6299D03*
G01X13877Y6102D03*
G54D14*
G01X14645Y5334D03*
G01X14842Y5334D03*
G01X15039Y5334D03*
G01X15236Y5334D03*
G01X15433Y5334D03*
G01X15629Y5334D03*
G01X15826Y5334D03*
G01X16023Y5334D03*
G01X16220Y5334D03*
G01X16417Y5334D03*
G01X16614Y5334D03*
G01X16811Y5334D03*
G01X17007Y5334D03*
G01X17204Y5334D03*
G01X17401Y5334D03*
G01X17598Y5334D03*
G04 Draw part U3*
G54D16*
G01X2047Y9055D03*
G01X2047Y8858D03*
G01X2047Y8661D03*
G01X2047Y8464D03*
G01X2047Y8267D03*
G01X2047Y8070D03*
G01X2047Y7874D03*
G01X2047Y7677D03*
G01X2047Y7480D03*
G01X2047Y7283D03*
G01X2047Y7086D03*
G01X2047Y6889D03*
G01X2047Y6692D03*
G01X2047Y6496D03*
G01X2047Y6299D03*
G01X2047Y6102D03*
G01X2047Y5905D03*
G01X2047Y5708D03*
G01X2047Y5511D03*
G01X2047Y5314D03*
G01X2047Y5118D03*
G01X2047Y4921D03*
G01X2047Y4724D03*
G01X2047Y4527D03*
G01X9881Y4527D03*
G01X9881Y4724D03*
G01X9881Y4921D03*
G01X9881Y5118D03*
G01X9881Y5314D03*
G01X9881Y5511D03*
G01X9881Y5708D03*
G01X9881Y5905D03*
G01X9881Y6102D03*
G01X9881Y6299D03*
G01X9881Y6496D03*
G01X9881Y6692D03*
G01X9881Y6889D03*
G01X9881Y7086D03*
G01X9881Y7283D03*
G01X9881Y7480D03*
G01X9881Y7677D03*
G01X9881Y7874D03*
G01X9881Y8070D03*
G01X9881Y8267D03*
G01X9881Y8464D03*
G01X9881Y8661D03*
G01X9881Y8858D03*
G01X9881Y9055D03*
G04 Draw part U4*
G54D17*
G01X5354Y11496D03*
G01X5354Y11240D03*
G01X5354Y10984D03*
G01X5354Y10728D03*
G01X7086Y10728D03*
G01X7086Y10984D03*
G01X7086Y11240D03*
G01X7086Y11496D03*
G54D18*
G01X6220Y11112D03*
G04 Draw part L1*
G54D19*
G01X8031Y12913D03*
G01X8031Y12165D03*
G04 Draw part J1*
G04 Draw part J2*
G04 Draw part J3*
G54D20*
G01X16771Y12303D03*
G01X16456Y12303D03*
G01X16141Y12303D03*
G01X15826Y12303D03*
G01X15511Y12303D03*
G54D21*
G01X18080Y13090D03*
G01X14202Y13090D03*
G04 Draw part J4*
G04 Draw part C17*
G54D22*
G01X9507Y12125D03*
G01X11437Y12125D03*
G04 Draw part M1*
G04 Draw part M2*
G04 Draw part C16*
G54D23*
G01X22480Y4094D03*
G01X23503Y4094D03*
G04 Draw part C15*
G01X5787Y9842D03*
G01X6811Y9842D03*
G04 Draw part C20*
G54D19*
G01X12755Y13464D03*
G01X12755Y12716D03*
G04 Draw part R2*
G54D24*
G01X2362Y10708D03*
G01X2362Y11377D03*
G04 Draw part C14*
G54D19*
G01X1023Y5984D03*
G01X1023Y6732D03*
G04 Draw part TP1*
G54D25*
G01X2913Y10000D03*
G04 Draw part U5*
G54D26*
G01X32637Y4291D03*
G01X33137Y4291D03*
G01X33637Y4291D03*
G01X34137Y4291D03*
G01X34137Y6259D03*
G01X33637Y6259D03*
G01X33137Y6259D03*
G01X32637Y6259D03*
G04 Draw part U6*
G01X32204Y7755D03*
G01X32704Y7755D03*
G01X33204Y7755D03*
G01X33704Y7755D03*
G01X33704Y9724D03*
G01X33204Y9724D03*
G01X32704Y9724D03*
G01X32204Y9724D03*
G04 Draw part U7*
G54D27*
G01X33484Y11171D03*
G01X33287Y11171D03*
G01X33090Y11171D03*
G01X32893Y11171D03*
G54D28*
G01X33484Y11653D03*
G54D27*
G01X33287Y11663D03*
G01X33090Y11663D03*
G01X32893Y11663D03*

G04 Draw traces*

G04 Draw Text*
M00*
M02*
