G04 FreePCB version 1.355*
G04 Z:\home\jjones\skunkboard\pcb\CAM\top_copper.grb*
G04 top copper layer *
G04 Scale: 100 percent, Rotated: No, Reflected: No *
%FSLAX24Y24*%
%MOIN*%
%LN top copper *%
G04 Rounded Rectangle Macro, params: W/2, H/2, R *
%AMRNDREC*
21,1,$1+$1,$2+$2-$3-$3,0,0,0*
21,1,$1+$1-$3-$3,$2+$2,0,0,0*
1,1,$3+$3,$1-$3,$2-$3*
1,1,$3+$3,$3-$1,$2-$3*
1,1,$3+$3,$1-$3,$3-$2*
1,1,$3+$3,$3-$1,$3-$2*%
G04 Rectangular Thermal Macro, params: W/2, H/2, T/2 *
%AMRECTHERM*
$4=$3/2*
21,1,$1-$3,$2-$3,0-$1/2-$4,0-$2/2-$4,0*
21,1,$1-$3,$2-$3,0-$1/2-$4,$2/2+$4,0*
21,1,$1-$3,$2-$3,$1/2+$4,0-$2/2-$4,0*
21,1,$1-$3,$2-$3,$1/2+$4,$2/2+$4,0*%
%ADD10R,0.050000X0.260000*%
%ADD11R,0.050000X0.322000*%
%ADD12R,0.063307X0.067244*%
%ADD13R,0.079055X0.035000*%
%ADD14R,0.035000X0.079055*%
%ADD15R,0.098740X0.236535*%
%ADD16R,0.077087X0.035000*%
%ADD17R,0.075118X0.037717*%
%ADD18R,0.092835X0.092835*%
%ADD19R,0.082992X0.071181*%
%ADD20R,0.079055X0.079055*%
%ADD21C,0.079055*%
%AMTHERM22*7,0,0,0.149921,0.129921,0.012000,0.0*%
%ADD22THERM22*%
%ADD23C,0.001000*%
%ADD24R,0.039685X0.108583*%
%ADD25R,0.100709X0.287717*%
%ADD26C,0.080000*%
%ADD27R,0.144016X0.082992*%
%AMTHERM28*7,0,0,0.149000,0.129000,0.012000,0.0*%
%ADD28THERM28*%
%ADD29R,0.090866X0.069213*%
%ADD30R,0.067244X0.063307*%
%ADD31C,0.067244*%
%ADD32R,0.051496X0.114488*%
%ADD33R,0.035000X0.057402*%
%ADD34R,0.035000X0.059370*%
%ADD35C,0.027874*%
%ADD36C,0.058000*%
%ADD37C,0.035000*%
%ADD38C,0.031000*%
%ADD39C,0.050000*%
%ADD40C,0.037000*%
%ADD41C,0.027875*%
%ADD42C,0.045000*%
%ADD43C,0.052000*%
%ADD44C,0.039000*%
%ADD45C,0.040000*%
%ADD46R,0.030000X0.240000*%
%ADD47R,0.030000X0.302000*%
%ADD48R,0.043307X0.047244*%
%ADD49R,0.059055X0.011811*%
%ADD50R,0.011811X0.059055*%
%ADD51R,0.078740X0.216535*%
%ADD52R,0.057087X0.011811*%
%ADD53R,0.055118X0.017717*%
%ADD54R,0.072835X0.072835*%
%ADD55R,0.062992X0.051181*%
%ADD56R,0.059055X0.059055*%
%ADD57C,0.059055*%
%ADD58C,0.129921*%
%ADD59R,0.019685X0.088583*%
%ADD60R,0.080709X0.267717*%
%ADD61C,0.060000*%
%ADD62R,0.124016X0.062992*%
%ADD63C,0.129000*%
%ADD64R,0.070866X0.049213*%
%ADD65R,0.047244X0.043307*%
%ADD66C,0.047244*%
%ADD67R,0.031496X0.094488*%
%ADD68R,0.011811X0.037402*%
%ADD69R,0.011811X0.039370*%
%ADD70C,0.007874*%
%ADD71C,0.038000*%
%ADD72C,0.015000*%
%ADD73C,0.011000*%
%ADD74C,0.030000*%
%ADD75C,0.017000*%
%ADD76C,0.007875*%
%ADD77C,0.024000*%
%ADD78C,0.032000*%
%ADD79C,0.019000*%
%ADD80C,0.020000*%
G90*
G70D02*

G04 Step and Repeat for panelization *

G04 ----------------------- Draw copper area (positive)*
G36*
G01X32007Y11417D02*
G01X31692Y11102D01*
G01X30787Y11102D01*
G01X30787Y12598D01*
G01X30236Y13188D01*
G01X26889Y13188D01*
G01X26299Y12598D01*
G01X25511Y12598D01*
G01X24960Y13149D01*
G01X24960Y13937D01*
G01X24724Y14173D01*
G01X19055Y14173D01*
G01X18818Y13937D01*
G01X18818Y13149D01*
G01X18661Y12992D01*
G01X17244Y12992D01*
G01X17086Y13149D01*
G01X17086Y13307D01*
G01X16929Y13464D01*
G01X15196Y13464D01*
G01X15118Y13385D01*
G01X15118Y13149D01*
G01X14960Y12992D01*
G01X13622Y12992D01*
G01X13464Y13149D01*
G01X13464Y13464D01*
G01X13307Y13622D01*
G01X7637Y13622D01*
G01X6692Y12677D01*
G01X5984Y12677D01*
G01X5433Y13188D01*
G01X2086Y13188D01*
G01X1496Y12598D01*
G01X1496Y10905D01*
G01X2165Y10905D01*
G01X2165Y10472D01*
G01X275Y10472D01*
G01X275Y14527D01*
G01X13503Y14527D01*
G01X13818Y14173D01*
G01X18425Y14173D01*
G01X18779Y14527D01*
G01X32007Y14527D01*
G01X32007Y11417D01*
G37*

G04 -------------------- Draw copper area clearances (negative)*
%LPC*%

G04 Draw clearances for pads*
G54D10*
G01X501Y2283D03*
G01X1091Y2283D03*
G01X1681Y2283D03*
G01X2271Y2283D03*
G01X2861Y2283D03*
G01X3451Y2283D03*
G01X4041Y2283D03*
G01X4631Y2283D03*
G01X5221Y2283D03*
G01X5811Y2283D03*
G01X6401Y2283D03*
G01X6991Y2283D03*
G01X8761Y2283D03*
G01X9351Y2283D03*
G01X9941Y2283D03*
G01X10531Y2283D03*
G01X11121Y2283D03*
G01X11711Y2283D03*
G54D11*
G01X12301Y1973D03*
G54D10*
G01X12891Y2283D03*
G01X13481Y2283D03*
G01X14071Y2283D03*
G01X14661Y2283D03*
G01X15251Y2283D03*
G01X15841Y2283D03*
G01X16431Y2283D03*
G01X17021Y2283D03*
G01X17611Y2283D03*
G01X18201Y2283D03*
G01X18791Y2283D03*
G01X19381Y2283D03*
G01X19971Y2283D03*
G01X20561Y2283D03*
G01X21151Y2283D03*
G01X21741Y2283D03*
G54D11*
G01X22331Y1973D03*
G54D10*
G01X22921Y2283D03*
G01X23511Y2283D03*
G01X24101Y2283D03*
G01X24691Y2283D03*
G01X25281Y2283D03*
G01X25871Y2283D03*
G01X26461Y2283D03*
G01X27051Y2283D03*
G01X27641Y2283D03*
G01X28231Y2283D03*
G01X28821Y2283D03*
G01X29411Y2283D03*
G01X30001Y2283D03*
G01X30591Y2283D03*
G01X31181Y2283D03*
G01X31771Y2283D03*
G54D12*
G01X24803Y12007D03*
G01X25472Y12007D03*
G01X28503Y9645D03*
G01X29173Y9645D03*
G01X28503Y8582D03*
G01X29173Y8582D03*
G01X24960Y4173D03*
G01X25629Y4173D03*
G01X20000Y7952D03*
G01X20669Y7952D03*
G01X15905Y10708D03*
G01X16574Y10708D03*
G01X19212Y6299D03*
G01X19881Y6299D03*
G01X15039Y4330D03*
G01X15708Y4330D03*
G01X12283Y8425D03*
G01X12952Y8425D03*
G01X10787Y8661D03*
G01X11456Y8661D03*
G01X10787Y6929D03*
G01X11456Y6929D03*
G54D13*
G01X27598Y5708D03*
G01X27598Y5905D03*
G01X27598Y6102D03*
G01X27598Y6299D03*
G01X27598Y6496D03*
G01X27598Y6692D03*
G01X27598Y6889D03*
G01X27598Y7086D03*
G01X27598Y7283D03*
G01X27598Y7480D03*
G01X27598Y7677D03*
G01X27598Y7874D03*
G01X27598Y8070D03*
G01X27598Y8267D03*
G01X27598Y8464D03*
G01X27598Y8661D03*
G01X27598Y8858D03*
G01X27598Y9055D03*
G01X27598Y9251D03*
G01X27598Y9448D03*
G01X27598Y9645D03*
G01X27598Y9842D03*
G01X27598Y10039D03*
G01X27598Y10236D03*
G01X27598Y10433D03*
G54D14*
G01X26929Y11102D03*
G01X26732Y11102D03*
G01X26535Y11102D03*
G01X26338Y11102D03*
G01X26141Y11102D03*
G01X25944Y11102D03*
G01X25748Y11102D03*
G01X25551Y11102D03*
G01X25354Y11102D03*
G01X25157Y11102D03*
G01X24960Y11102D03*
G01X24763Y11102D03*
G01X24566Y11102D03*
G01X24370Y11102D03*
G01X24173Y11102D03*
G01X23976Y11102D03*
G01X23779Y11102D03*
G01X23582Y11102D03*
G01X23385Y11102D03*
G01X23188Y11102D03*
G01X22992Y11102D03*
G01X22795Y11102D03*
G01X22598Y11102D03*
G01X22401Y11102D03*
G01X22204Y11102D03*
G54D13*
G01X21535Y10433D03*
G01X21535Y10236D03*
G01X21535Y10039D03*
G01X21535Y9842D03*
G01X21535Y9645D03*
G01X21535Y9448D03*
G01X21535Y9251D03*
G01X21535Y9055D03*
G01X21535Y8858D03*
G01X21535Y8661D03*
G01X21535Y8464D03*
G01X21535Y8267D03*
G01X21535Y8070D03*
G01X21535Y7874D03*
G01X21535Y7677D03*
G01X21535Y7480D03*
G01X21535Y7283D03*
G01X21535Y7086D03*
G01X21535Y6889D03*
G01X21535Y6692D03*
G01X21535Y6496D03*
G01X21535Y6299D03*
G01X21535Y6102D03*
G01X21535Y5905D03*
G01X21535Y5708D03*
G54D14*
G01X22204Y5039D03*
G01X22401Y5039D03*
G01X22598Y5039D03*
G01X22795Y5039D03*
G01X22992Y5039D03*
G01X23188Y5039D03*
G01X23385Y5039D03*
G01X23582Y5039D03*
G01X23779Y5039D03*
G01X23976Y5039D03*
G01X24173Y5039D03*
G01X24370Y5039D03*
G01X24566Y5039D03*
G01X24763Y5039D03*
G01X24960Y5039D03*
G01X25157Y5039D03*
G01X25354Y5039D03*
G01X25551Y5039D03*
G01X25748Y5039D03*
G01X25944Y5039D03*
G01X26141Y5039D03*
G01X26338Y5039D03*
G01X26535Y5039D03*
G01X26732Y5039D03*
G01X26929Y5039D03*
G54D15*
G01X30708Y8818D03*
G01X30708Y5472D03*
G54D12*
G01X28503Y7322D03*
G01X29173Y7322D03*
G01X28503Y6062D03*
G01X29173Y6062D03*
G01X28503Y10787D03*
G01X29173Y10787D03*
G01X3858Y10354D03*
G01X4527Y10354D03*
G01X3858Y11417D03*
G01X4527Y11417D03*
G54D13*
G01X18366Y6102D03*
G01X18366Y6299D03*
G01X18366Y6496D03*
G01X18366Y6692D03*
G01X18366Y6889D03*
G01X18366Y7086D03*
G01X18366Y7283D03*
G01X18366Y7480D03*
G01X18366Y7677D03*
G01X18366Y7874D03*
G01X18366Y8070D03*
G01X18366Y8267D03*
G01X18366Y8464D03*
G01X18366Y8661D03*
G01X18366Y8858D03*
G01X18366Y9055D03*
G54D14*
G01X17598Y9822D03*
G01X17401Y9822D03*
G01X17204Y9822D03*
G01X17007Y9822D03*
G01X16811Y9822D03*
G01X16614Y9822D03*
G01X16417Y9822D03*
G01X16220Y9822D03*
G01X16023Y9822D03*
G01X15826Y9822D03*
G01X15629Y9822D03*
G01X15433Y9822D03*
G01X15236Y9822D03*
G01X15039Y9822D03*
G01X14842Y9822D03*
G01X14645Y9822D03*
G54D13*
G01X13877Y9055D03*
G01X13877Y8858D03*
G01X13877Y8661D03*
G01X13877Y8464D03*
G01X13877Y8267D03*
G01X13877Y8070D03*
G01X13877Y7874D03*
G01X13877Y7677D03*
G01X13877Y7480D03*
G01X13877Y7283D03*
G01X13877Y7086D03*
G01X13877Y6889D03*
G01X13877Y6692D03*
G01X13877Y6496D03*
G01X13877Y6299D03*
G01X13877Y6102D03*
G54D14*
G01X14645Y5334D03*
G01X14842Y5334D03*
G01X15039Y5334D03*
G01X15236Y5334D03*
G01X15433Y5334D03*
G01X15629Y5334D03*
G01X15826Y5334D03*
G01X16023Y5334D03*
G01X16220Y5334D03*
G01X16417Y5334D03*
G01X16614Y5334D03*
G01X16811Y5334D03*
G01X17007Y5334D03*
G01X17204Y5334D03*
G01X17401Y5334D03*
G01X17598Y5334D03*
G54D16*
G01X2047Y9055D03*
G01X2047Y8858D03*
G01X2047Y8661D03*
G01X2047Y8464D03*
G01X2047Y8267D03*
G01X2047Y8070D03*
G01X2047Y7874D03*
G01X2047Y7677D03*
G01X2047Y7480D03*
G01X2047Y7283D03*
G01X2047Y7086D03*
G01X2047Y6889D03*
G01X2047Y6692D03*
G01X2047Y6496D03*
G01X2047Y6299D03*
G01X2047Y6102D03*
G01X2047Y5905D03*
G01X2047Y5708D03*
G01X2047Y5511D03*
G01X2047Y5314D03*
G01X2047Y5118D03*
G01X2047Y4921D03*
G01X2047Y4724D03*
G01X2047Y4527D03*
G01X9881Y4527D03*
G01X9881Y4724D03*
G01X9881Y4921D03*
G01X9881Y5118D03*
G01X9881Y5314D03*
G01X9881Y5511D03*
G01X9881Y5708D03*
G01X9881Y5905D03*
G01X9881Y6102D03*
G01X9881Y6299D03*
G01X9881Y6496D03*
G01X9881Y6692D03*
G01X9881Y6889D03*
G01X9881Y7086D03*
G01X9881Y7283D03*
G01X9881Y7480D03*
G01X9881Y7677D03*
G01X9881Y7874D03*
G01X9881Y8070D03*
G01X9881Y8267D03*
G01X9881Y8464D03*
G01X9881Y8661D03*
G01X9881Y8858D03*
G01X9881Y9055D03*
G54D17*
G01X5354Y11496D03*
G01X5354Y11240D03*
G01X5354Y10984D03*
G01X5354Y10728D03*
G01X7086Y10728D03*
G01X7086Y10984D03*
G01X7086Y11240D03*
G01X7086Y11496D03*
G54D18*
G01X6220Y11112D03*
G54D19*
G01X8031Y12913D03*
G01X8031Y12165D03*
G54D20*
G01X5118Y12598D03*
G54D21*
G01X4133Y12598D03*
G01X3346Y12598D03*
G01X2362Y12598D03*
G54D22*
G01X6326Y13665D03*
G54D23*
G54D22*
G01X1153Y13665D03*
G54D23*
G54D20*
G01X29921Y12598D03*
G54D21*
G01X28937Y12598D03*
G01X28149Y12598D03*
G01X27165Y12598D03*
G54D22*
G01X31129Y13665D03*
G54D23*
G54D22*
G01X25956Y13665D03*
G54D23*
G54D24*
G01X16771Y12303D03*
G01X16456Y12303D03*
G01X16141Y12303D03*
G01X15826Y12303D03*
G01X15511Y12303D03*
G54D25*
G01X18080Y13090D03*
G01X14202Y13090D03*
G54D26*
G01X24330Y13385D03*
G01X23330Y13385D03*
G01X22330Y13385D03*
G01X21330Y13385D03*
G01X20330Y13385D03*
G01X19330Y13385D03*
G54D27*
G01X9507Y12125D03*
G01X11437Y12125D03*
G54D28*
G01X1181Y11338D03*
G54D23*
G54D28*
G01X31102Y11338D03*
G54D23*
G54D29*
G01X22480Y4094D03*
G01X23503Y4094D03*
G01X5787Y9842D03*
G01X6811Y9842D03*
G54D19*
G01X12755Y13464D03*
G01X12755Y12716D03*
G54D30*
G01X2362Y10708D03*
G01X2362Y11377D03*
G54D19*
G01X1023Y5984D03*
G01X1023Y6732D03*
G54D31*
G01X2913Y10000D03*
G54D32*
G01X32637Y4291D03*
G01X33137Y4291D03*
G01X33637Y4291D03*
G01X34137Y4291D03*
G01X34137Y6259D03*
G01X33637Y6259D03*
G01X33137Y6259D03*
G01X32637Y6259D03*
G01X32637Y7755D03*
G01X33137Y7755D03*
G01X33637Y7755D03*
G01X34137Y7755D03*
G01X34137Y9724D03*
G01X33637Y9724D03*
G01X33137Y9724D03*
G01X32637Y9724D03*
G54D33*
G01X33484Y11171D03*
G01X33287Y11171D03*
G01X33090Y11171D03*
G01X32893Y11171D03*
G54D34*
G01X33484Y11653D03*
G54D33*
G01X33287Y11663D03*
G01X33090Y11663D03*
G01X32893Y11663D03*

G04 Draw clearances for traces*
G54D35*
G01X2047Y6299D02*
G01X1968Y6299D01*
G01X1968Y6299D02*
G01X2440Y6299D01*
G01X2440Y6299D02*
G01X4330Y4409D01*
G01X4330Y4409D02*
G01X6141Y4409D01*
G01X6141Y4409D02*
G01X6456Y4094D01*
G01X6456Y4094D02*
G01X6456Y2834D01*
G01X6456Y2834D02*
G01X6401Y2283D01*
G01X17007Y5334D02*
G01X17007Y4960D01*
G01X17007Y4960D02*
G01X17007Y5039D01*
G01X17007Y5039D02*
G01X17007Y4881D01*
G01X17007Y4881D02*
G01X17716Y4173D01*
G01X17716Y4173D02*
G01X19055Y4173D01*
G01X19055Y4173D02*
G01X19921Y3307D01*
G01X19921Y3307D02*
G01X19971Y2283D01*
G01X16417Y5334D02*
G01X16417Y4763D01*
G01X16417Y4763D02*
G01X17480Y3700D01*
G01X17480Y3700D02*
G01X18110Y3700D01*
G01X18110Y3700D02*
G01X18201Y3609D01*
G01X18201Y3609D02*
G01X18201Y2283D01*
G01X18366Y7677D02*
G01X18858Y7677D01*
G01X18858Y7677D02*
G01X19842Y8661D01*
G01X19842Y8661D02*
G01X21574Y8661D01*
G01X21574Y8661D02*
G01X21535Y8661D01*
G01X21535Y8661D02*
G01X21496Y8661D01*
G01X21496Y8661D02*
G01X21968Y8661D01*
G01X21968Y8661D02*
G01X22362Y8267D01*
G01X22362Y8267D02*
G01X22440Y8267D01*
G01X22440Y8267D02*
G01X22362Y8267D01*
G54D36*
G01X22440Y8267D03*
G54D35*
G01X22362Y8267D02*
G01X22440Y8267D01*
G54D36*
G01X7165Y8346D03*
G54D35*
G01X7165Y8346D02*
G01X7165Y7244D01*
G01X7165Y7244D02*
G01X7716Y6692D01*
G01X7716Y6692D02*
G01X9921Y6692D01*
G01X9921Y6692D02*
G01X9881Y6692D01*
G01X9881Y8267D02*
G01X8740Y8267D01*
G01X8740Y8267D02*
G01X8582Y8425D01*
G01X8582Y8425D02*
G01X8582Y9212D01*
G01X8582Y9212D02*
G01X8818Y9448D01*
G01X8818Y9448D02*
G01X13385Y9448D01*
G01X13385Y9448D02*
G01X13464Y9370D01*
G01X13464Y9370D02*
G01X13464Y8897D01*
G01X13464Y8897D02*
G01X13503Y8858D01*
G01X13503Y8858D02*
G01X13877Y8858D01*
G01X25157Y5039D02*
G01X25157Y5551D01*
G01X25157Y5551D02*
G01X24960Y5748D01*
G54D36*
G01X24960Y6929D03*
G54D35*
G01X24960Y5748D02*
G01X24960Y6929D01*
G54D36*
G01X8582Y8976D03*
G54D35*
G01X8582Y8976D02*
G01X8582Y8425D01*
G01X8582Y8425D02*
G01X8740Y8267D01*
G01X8740Y8267D02*
G01X9881Y8267D01*
G01X9881Y5708D02*
G01X12007Y5708D01*
G01X12007Y5708D02*
G01X12125Y5826D01*
G01X12125Y5826D02*
G01X12125Y7874D01*
G01X12125Y7874D02*
G01X12283Y8031D01*
G01X12283Y8031D02*
G01X13307Y8031D01*
G01X13307Y8031D02*
G01X13346Y8070D01*
G01X13346Y8070D02*
G01X13877Y8070D01*
G01X24960Y5039D02*
G01X24960Y5433D01*
G01X24960Y5433D02*
G01X24645Y5748D01*
G54D36*
G01X24645Y5984D03*
G54D35*
G01X24645Y5748D02*
G01X24645Y5984D01*
G54D36*
G01X12204Y7322D03*
G54D35*
G01X12204Y7322D02*
G01X12125Y7322D01*
G01X12125Y7322D02*
G01X12125Y7874D01*
G01X12125Y7874D02*
G01X12283Y8031D01*
G01X12283Y8031D02*
G01X13307Y8031D01*
G01X13307Y8031D02*
G01X13346Y8070D01*
G01X13346Y8070D02*
G01X13877Y8070D01*
G01X9881Y9055D02*
G01X11811Y9055D01*
G01X11811Y9055D02*
G01X11889Y8976D01*
G01X11889Y8976D02*
G01X11889Y6141D01*
G01X11889Y6141D02*
G01X11811Y6062D01*
G54D36*
G01X10787Y6062D03*
G54D35*
G01X11811Y6062D02*
G01X10787Y6062D01*
G54D36*
G01X7795Y4409D03*
G54D35*
G01X7795Y4409D02*
G01X8031Y4409D01*
G01X8031Y4409D02*
G01X8761Y3679D01*
G01X8761Y3679D02*
G01X8761Y2283D01*
G01X17204Y5334D02*
G01X17204Y4921D01*
G01X17204Y4921D02*
G01X17795Y4330D01*
G01X17795Y4330D02*
G01X19133Y4330D01*
G01X19133Y4330D02*
G01X19842Y3622D01*
G01X19842Y3622D02*
G01X20472Y3622D01*
G01X20472Y3622D02*
G01X20561Y3532D01*
G01X20561Y3532D02*
G01X20561Y2283D01*
G01X16220Y5334D02*
G01X16220Y4724D01*
G01X16220Y4724D02*
G01X17637Y3307D01*
G01X17637Y3307D02*
G01X17611Y2283D01*
G54D37*
G01X1023Y6732D02*
G01X1023Y6771D01*
G01X1023Y6771D02*
G01X944Y6850D01*
G54D36*
G01X944Y7322D03*
G54D37*
G01X944Y6850D02*
G01X944Y7322D01*
G54D38*
G01X1023Y6732D02*
G01X1023Y6692D01*
G01X1023Y6692D02*
G01X2047Y6692D01*
G54D35*
G01X22480Y4094D02*
G01X22283Y4015D01*
G54D39*
G01X22283Y4015D02*
G01X22331Y3967D01*
G01X22331Y3967D02*
G01X22331Y1973D01*
G54D35*
G01X22480Y4094D02*
G01X22598Y4094D01*
G54D36*
G01X22598Y4094D02*
G01X22125Y4094D01*
G01X21811Y3779D03*
G01X22125Y4094D02*
G01X21811Y3779D01*
G01X4527Y10905D03*
G01X4527Y10905D02*
G01X4527Y11377D01*
G54D35*
G01X4527Y11377D02*
G01X4527Y11417D01*
G54D40*
G01X5354Y11240D02*
G01X4468Y11240D01*
G54D35*
G01X4468Y11240D02*
G01X4448Y11259D01*
G01X4448Y11259D02*
G01X4527Y11417D01*
G01X18366Y7874D02*
G01X18818Y7874D01*
G01X18818Y7874D02*
G01X19803Y8858D01*
G01X19803Y8858D02*
G01X21535Y8858D01*
G01X21535Y8858D02*
G01X22007Y8858D01*
G01X22007Y8858D02*
G01X22283Y8582D01*
G01X22283Y8582D02*
G01X22519Y8582D01*
G01X22519Y8582D02*
G01X22440Y8582D01*
G54D36*
G01X23149Y8582D03*
G54D35*
G01X22440Y8582D02*
G01X23149Y8582D01*
G54D36*
G01X6850Y7559D03*
G54D35*
G01X6850Y7559D02*
G01X6850Y7244D01*
G01X6850Y7244D02*
G01X7598Y6496D01*
G01X7598Y6496D02*
G01X9881Y6496D01*
G54D41*
G01X33484Y11653D02*
G01X33503Y11692D01*
G01X33503Y11692D02*
G01X33484Y11712D01*
G01X33484Y11712D02*
G01X33582Y11850D01*
G01X33582Y11850D02*
G01X33582Y12401D01*
G01X33582Y12401D02*
G01X33228Y12755D01*
G01X33228Y12755D02*
G01X32519Y12755D01*
G01X32519Y12755D02*
G01X32165Y12401D01*
G01X32165Y12401D02*
G01X32165Y11259D01*
G01X32165Y11259D02*
G01X31417Y10511D01*
G01X31417Y10511D02*
G01X30748Y10511D01*
G01X30748Y10511D02*
G01X30354Y10905D01*
G01X30354Y10905D02*
G01X30354Y11141D01*
G01X30354Y11141D02*
G01X30275Y11220D01*
G01X30275Y11220D02*
G01X30275Y11692D01*
G01X30275Y11692D02*
G01X30118Y11850D01*
G01X30118Y11850D02*
G01X27834Y11850D01*
G54D36*
G01X27716Y11968D03*
G54D41*
G01X27834Y11850D02*
G01X27716Y11968D01*
G54D36*
G01X23503Y12834D03*
G54D41*
G01X23503Y12834D02*
G01X23188Y12519D01*
G01X23188Y12519D02*
G01X23188Y11062D01*
G01X23188Y11062D02*
G01X23188Y11102D01*
G54D35*
G01X18366Y9055D02*
G01X18425Y9055D01*
G01X18425Y9055D02*
G01X19015Y9645D01*
G01X19015Y9645D02*
G01X21535Y9645D01*
G01X2047Y9055D02*
G01X3070Y9055D01*
G01X3070Y9055D02*
G01X3937Y8188D01*
G01X3937Y8188D02*
G01X3937Y6692D01*
G01X3937Y6692D02*
G01X5748Y4881D01*
G01X5748Y4881D02*
G01X8031Y4881D01*
G01X8031Y4881D02*
G01X9291Y3622D01*
G01X9291Y3622D02*
G01X9842Y3622D01*
G01X9842Y3622D02*
G01X9941Y3522D01*
G01X9941Y3522D02*
G01X9941Y2283D01*
G01X17401Y5334D02*
G01X17401Y4960D01*
G01X17401Y4960D02*
G01X17874Y4488D01*
G01X17874Y4488D02*
G01X19212Y4488D01*
G01X19212Y4488D02*
G01X19921Y3779D01*
G01X19921Y3779D02*
G01X20944Y3779D01*
G01X20944Y3779D02*
G01X21151Y3572D01*
G01X21151Y3572D02*
G01X21151Y2283D01*
G01X15039Y5334D02*
G01X15039Y5748D01*
G01X15039Y5748D02*
G01X14960Y5826D01*
G01X14960Y5826D02*
G01X14488Y5826D01*
G01X14488Y5826D02*
G01X13937Y5275D01*
G01X13937Y5275D02*
G01X13937Y4173D01*
G01X13937Y4173D02*
G01X14488Y3622D01*
G01X14488Y3622D02*
G01X15196Y3622D01*
G01X15196Y3622D02*
G01X15251Y3567D01*
G01X15251Y3567D02*
G01X15251Y2283D01*
G01X18366Y8070D02*
G01X18779Y8070D01*
G01X18779Y8070D02*
G01X19763Y9055D01*
G01X19763Y9055D02*
G01X21535Y9055D01*
G01X21535Y9055D02*
G01X22125Y9055D01*
G01X22125Y9055D02*
G01X22283Y8897D01*
G54D36*
G01X22440Y8897D03*
G54D35*
G01X22283Y8897D02*
G01X22440Y8897D01*
G54D36*
G01X6535Y8346D03*
G54D35*
G01X6535Y8346D02*
G01X6535Y7244D01*
G01X6535Y7244D02*
G01X7480Y6299D01*
G01X7480Y6299D02*
G01X9921Y6299D01*
G01X9921Y6299D02*
G01X9881Y6299D01*
G01X9881Y4527D02*
G01X10354Y4527D01*
G54D36*
G01X10472Y4566D03*
G54D35*
G01X10354Y4527D02*
G01X10472Y4566D01*
G01X9881Y8464D02*
G01X9015Y8464D01*
G01X9015Y8464D02*
G01X8897Y8582D01*
G01X8897Y8582D02*
G01X8897Y9212D01*
G01X8897Y9212D02*
G01X8976Y9291D01*
G01X8976Y9291D02*
G01X13228Y9291D01*
G01X13228Y9291D02*
G01X13307Y9212D01*
G01X13307Y9212D02*
G01X13307Y8818D01*
G01X13307Y8818D02*
G01X13464Y8661D01*
G01X13464Y8661D02*
G01X13877Y8661D01*
G01X24763Y5039D02*
G01X24763Y5393D01*
G01X24763Y5393D02*
G01X24330Y5826D01*
G54D36*
G01X24330Y6929D03*
G54D35*
G01X24330Y5826D02*
G01X24330Y6929D01*
G54D36*
G01X8897Y8582D03*
G54D35*
G01X8897Y8582D02*
G01X9015Y8464D01*
G01X9015Y8464D02*
G01X9881Y8464D01*
G01X2047Y7283D02*
G01X1692Y7283D01*
G01X1692Y7283D02*
G01X1614Y7362D01*
G01X1614Y7362D02*
G01X1614Y8110D01*
G01X1614Y8110D02*
G01X1456Y8267D01*
G01X1456Y8267D02*
G01X1456Y9251D01*
G01X1456Y9251D02*
G01X1653Y9448D01*
G01X1653Y9448D02*
G01X3149Y9448D01*
G01X3149Y9448D02*
G01X4251Y8346D01*
G01X4251Y8346D02*
G01X4251Y6850D01*
G01X4251Y6850D02*
G01X5905Y5196D01*
G01X5905Y5196D02*
G01X8188Y5196D01*
G01X8188Y5196D02*
G01X9448Y3937D01*
G01X9448Y3937D02*
G01X10787Y3937D01*
G01X10787Y3937D02*
G01X11121Y3602D01*
G01X11121Y3602D02*
G01X11121Y2283D01*
G01X2047Y8267D02*
G01X2086Y8267D01*
G01X2086Y8267D02*
G01X1692Y8267D01*
G01X1692Y8267D02*
G01X1614Y8346D01*
G01X1614Y8346D02*
G01X1614Y9173D01*
G01X1614Y9173D02*
G01X1732Y9291D01*
G01X1732Y9291D02*
G01X3070Y9291D01*
G01X3070Y9291D02*
G01X4094Y8267D01*
G01X4094Y8267D02*
G01X4094Y6771D01*
G01X4094Y6771D02*
G01X5826Y5039D01*
G01X5826Y5039D02*
G01X8110Y5039D01*
G01X8110Y5039D02*
G01X9370Y3779D01*
G01X9370Y3779D02*
G01X10314Y3779D01*
G01X10314Y3779D02*
G01X10531Y3562D01*
G01X10531Y3562D02*
G01X10531Y2283D01*
G01X16614Y5334D02*
G01X16614Y4803D01*
G01X16614Y4803D02*
G01X17559Y3858D01*
G01X17559Y3858D02*
G01X18503Y3858D01*
G01X18503Y3858D02*
G01X18791Y3570D01*
G01X18791Y3570D02*
G01X18791Y2283D01*
G01X13877Y6496D02*
G01X13425Y6496D01*
G01X13425Y6496D02*
G01X13228Y6299D01*
G01X13228Y6299D02*
G01X13228Y4409D01*
G01X13228Y4409D02*
G01X12891Y4033D01*
G01X12891Y4033D02*
G01X12891Y2283D01*
G01X13877Y6692D02*
G01X13385Y6692D01*
G01X13385Y6692D02*
G01X13070Y6377D01*
G01X13070Y6377D02*
G01X13070Y5314D01*
G01X13070Y5314D02*
G01X12401Y4645D01*
G01X12401Y4645D02*
G01X11850Y4645D01*
G01X11850Y4645D02*
G01X11711Y4506D01*
G01X11711Y4506D02*
G01X11711Y2283D01*
G01X27598Y7677D02*
G01X27204Y7677D01*
G54D36*
G01X26929Y7952D03*
G54D35*
G01X27204Y7677D02*
G01X26929Y7952D01*
G54D36*
G01X17244Y12362D03*
G54D35*
G01X17244Y12362D02*
G01X17086Y12362D01*
G01X17086Y12362D02*
G01X16771Y12677D01*
G01X16771Y12677D02*
G01X16771Y12303D01*
G54D36*
G01X7401Y12913D03*
G01X8031Y12913D02*
G01X7401Y12913D01*
G54D35*
G01X9881Y7283D02*
G01X8307Y7283D01*
G01X8307Y7283D02*
G01X7480Y8110D01*
G01X7480Y8110D02*
G01X7480Y9291D01*
G01X7480Y9291D02*
G01X8425Y10236D01*
G01X8425Y10236D02*
G01X14803Y10236D01*
G01X14803Y10236D02*
G01X14842Y10196D01*
G01X14842Y10196D02*
G01X14842Y9822D01*
G01X24370Y5039D02*
G01X24370Y5551D01*
G01X24370Y5551D02*
G01X24015Y5905D01*
G01X24015Y5905D02*
G01X24015Y9527D01*
G01X24015Y9527D02*
G01X23385Y10157D01*
G01X23385Y10157D02*
G01X22598Y10157D01*
G01X22598Y10157D02*
G01X21496Y11259D01*
G01X21496Y11259D02*
G01X20866Y11259D01*
G01X20866Y11259D02*
G01X19960Y10354D01*
G01X19960Y10354D02*
G01X18661Y10354D01*
G01X18661Y10354D02*
G01X17165Y8858D01*
G01X17165Y8858D02*
G01X17165Y6929D01*
G01X17165Y6929D02*
G01X17007Y6771D01*
G01X17007Y6771D02*
G01X15984Y6771D01*
G01X15984Y6771D02*
G01X15433Y7322D01*
G01X15433Y7322D02*
G01X15433Y8818D01*
G01X15433Y8818D02*
G01X14842Y9409D01*
G01X14842Y9409D02*
G01X14842Y9822D01*
G01X18366Y8267D02*
G01X18740Y8267D01*
G01X18740Y8267D02*
G01X19724Y9251D01*
G01X19724Y9251D02*
G01X21535Y9251D01*
G01X21535Y9251D02*
G01X22165Y9251D01*
G01X22165Y9251D02*
G01X22204Y9212D01*
G54D36*
G01X23149Y9212D03*
G54D35*
G01X22204Y9212D02*
G01X23149Y9212D01*
G54D36*
G01X6220Y7559D03*
G54D35*
G01X6220Y7559D02*
G01X6220Y7244D01*
G01X6220Y7244D02*
G01X7362Y6102D01*
G01X7362Y6102D02*
G01X9881Y6102D01*
G01X2047Y8070D02*
G01X3110Y8070D01*
G01X3110Y8070D02*
G01X3307Y7874D01*
G01X3307Y7874D02*
G01X3307Y5905D01*
G01X3307Y5905D02*
G01X4488Y4724D01*
G01X4488Y4724D02*
G01X7952Y4724D01*
G01X7952Y4724D02*
G01X9351Y3325D01*
G01X9351Y3325D02*
G01X9351Y2283D01*
G01X14842Y5334D02*
G01X14842Y4921D01*
G01X14842Y4921D02*
G01X14803Y4881D01*
G01X14803Y4881D02*
G01X14488Y4881D01*
G01X14488Y4881D02*
G01X14251Y4645D01*
G01X14251Y4645D02*
G01X14251Y4330D01*
G01X14251Y4330D02*
G01X14645Y3937D01*
G01X14645Y3937D02*
G01X15511Y3937D01*
G01X15511Y3937D02*
G01X15748Y3700D01*
G01X15748Y3700D02*
G01X16299Y3700D01*
G01X16299Y3700D02*
G01X16431Y3568D01*
G01X16431Y3568D02*
G01X16431Y2283D01*
G01X21535Y6102D02*
G01X20826Y6102D01*
G01X20826Y6102D02*
G01X20629Y5905D01*
G01X20629Y5905D02*
G01X20629Y5433D01*
G01X20629Y5433D02*
G01X21181Y4881D01*
G01X21181Y4881D02*
G01X21181Y4566D01*
G01X21181Y4566D02*
G01X21023Y4409D01*
G01X21023Y4409D02*
G01X20236Y4409D01*
G01X20236Y4409D02*
G01X19527Y5118D01*
G01X19527Y5118D02*
G01X18818Y5118D01*
G01X18818Y5118D02*
G01X17795Y6141D01*
G01X17795Y6141D02*
G01X15433Y6141D01*
G54D36*
G01X15118Y6456D03*
G54D35*
G01X15433Y6141D02*
G01X15118Y6456D01*
G01X21535Y9842D02*
G01X23228Y9842D01*
G01X23228Y9842D02*
G01X23700Y9370D01*
G01X23700Y9370D02*
G01X23700Y7322D01*
G01X23700Y7322D02*
G01X21496Y5118D01*
G54D36*
G01X21496Y4724D03*
G54D35*
G01X21496Y5118D02*
G01X21496Y4724D01*
G01X9881Y7480D02*
G01X9921Y7480D01*
G01X9921Y7480D02*
G01X8346Y7480D01*
G01X8346Y7480D02*
G01X7637Y8188D01*
G01X7637Y8188D02*
G01X7637Y9212D01*
G01X7637Y9212D02*
G01X8503Y10078D01*
G01X8503Y10078D02*
G01X14488Y10078D01*
G01X14488Y10078D02*
G01X14645Y9921D01*
G01X14645Y9921D02*
G01X14645Y9822D01*
G01X24173Y5039D02*
G01X24173Y5511D01*
G01X24173Y5511D02*
G01X23858Y5826D01*
G01X23858Y5826D02*
G01X23858Y9448D01*
G01X23858Y9448D02*
G01X23307Y10000D01*
G01X23307Y10000D02*
G01X22519Y10000D01*
G01X22519Y10000D02*
G01X21417Y11102D01*
G01X21417Y11102D02*
G01X20944Y11102D01*
G01X20944Y11102D02*
G01X20039Y10196D01*
G01X20039Y10196D02*
G01X18740Y10196D01*
G01X18740Y10196D02*
G01X17322Y8779D01*
G01X17322Y8779D02*
G01X17322Y6850D01*
G01X17322Y6850D02*
G01X17086Y6614D01*
G01X17086Y6614D02*
G01X15905Y6614D01*
G01X15905Y6614D02*
G01X15275Y7244D01*
G01X15275Y7244D02*
G01X15275Y8740D01*
G01X15275Y8740D02*
G01X14645Y9370D01*
G01X14645Y9370D02*
G01X14645Y9822D01*
G01X18366Y8858D02*
G01X17992Y8858D01*
G01X17992Y8858D02*
G01X17952Y8897D01*
G01X17952Y8897D02*
G01X17952Y9173D01*
G01X17952Y9173D02*
G01X18818Y10039D01*
G01X18818Y10039D02*
G01X21535Y10039D01*
G01X21535Y10039D02*
G01X20669Y10039D01*
G01X20669Y10039D02*
G01X20629Y10078D01*
G01X20629Y10078D02*
G01X20629Y10157D01*
G01X20629Y10157D02*
G01X20708Y10236D01*
G01X20708Y10236D02*
G01X21535Y10236D01*
G01X18366Y8464D02*
G01X18700Y8464D01*
G01X18700Y8464D02*
G01X19685Y9448D01*
G01X19685Y9448D02*
G01X21535Y9448D01*
G01X9881Y5905D02*
G01X7244Y5905D01*
G01X7244Y5905D02*
G01X5905Y7244D01*
G54D36*
G01X5905Y8346D03*
G54D35*
G01X5905Y7244D02*
G01X5905Y8346D01*
G54D36*
G01X22440Y9527D03*
G54D35*
G01X22440Y9527D02*
G01X22440Y9448D01*
G01X22440Y9448D02*
G01X21496Y9448D01*
G01X21496Y9448D02*
G01X21535Y9448D01*
G01X2047Y8858D02*
G01X3031Y8858D01*
G01X3031Y8858D02*
G01X3779Y8110D01*
G01X3779Y8110D02*
G01X3779Y6614D01*
G01X3779Y6614D02*
G01X4566Y5826D01*
G54D36*
G01X4566Y5118D03*
G54D35*
G01X4566Y5826D02*
G01X4566Y5118D01*
G01X23385Y11102D02*
G01X23385Y11023D01*
G01X23385Y11023D02*
G01X23385Y12244D01*
G01X23385Y12244D02*
G01X23897Y12755D01*
G01X23897Y12755D02*
G01X23897Y13188D01*
G01X23897Y13188D02*
G01X23543Y13543D01*
G01X23543Y13543D02*
G01X23307Y13149D01*
G01X23307Y13149D02*
G01X23330Y13173D01*
G01X23330Y13173D02*
G01X23330Y13385D01*
G01X23330Y13385D02*
G01X21850Y11889D01*
G01X21850Y11889D02*
G01X19370Y11889D01*
G01X19370Y11889D02*
G01X18740Y11259D01*
G01X18740Y11259D02*
G01X15433Y11259D01*
G01X15433Y11259D02*
G01X15118Y10944D01*
G01X15118Y10944D02*
G01X15118Y10629D01*
G01X15118Y10629D02*
G01X15433Y10314D01*
G01X15433Y10314D02*
G01X15433Y9822D01*
G01X17007Y9822D02*
G01X17007Y10236D01*
G01X17007Y10236D02*
G01X17874Y11102D01*
G01X17874Y11102D02*
G01X18818Y11102D01*
G01X18818Y11102D02*
G01X19448Y11732D01*
G01X19448Y11732D02*
G01X22598Y11732D01*
G01X22598Y11732D02*
G01X22795Y11535D01*
G01X22795Y11535D02*
G01X22795Y11102D01*
G01X24173Y11102D02*
G01X24173Y11181D01*
G01X24173Y11181D02*
G01X24173Y10708D01*
G01X24173Y10708D02*
G01X24094Y10629D01*
G01X24094Y10629D02*
G01X22913Y10629D01*
G01X22913Y10629D02*
G01X22795Y10748D01*
G01X22795Y10748D02*
G01X22795Y11102D01*
G54D41*
G01X32893Y11171D02*
G01X32874Y11062D01*
G01X32874Y11062D02*
G01X32874Y10984D01*
G54D36*
G01X32559Y10629D03*
G54D41*
G01X32874Y10984D02*
G01X32559Y10629D01*
G54D36*
G01X31644Y10126D03*
G54D41*
G01X31644Y10126D02*
G01X31417Y10354D01*
G01X31417Y10354D02*
G01X30669Y10354D01*
G01X30669Y10354D02*
G01X30196Y10826D01*
G01X30196Y10826D02*
G01X30196Y11062D01*
G01X30196Y11062D02*
G01X30078Y11181D01*
G01X30078Y11181D02*
G01X30078Y11574D01*
G01X30078Y11574D02*
G01X30000Y11653D01*
G01X30000Y11653D02*
G01X27559Y11653D01*
G01X27559Y11653D02*
G01X27401Y11811D01*
G01X27401Y11811D02*
G01X26889Y11811D01*
G01X26889Y11811D02*
G01X26811Y11889D01*
G54D36*
G01X26535Y11889D03*
G54D41*
G01X26811Y11889D02*
G01X26535Y11889D01*
G54D36*
G01X24094Y12244D03*
G54D41*
G01X24094Y12244D02*
G01X23779Y11929D01*
G01X23779Y11929D02*
G01X23779Y11102D01*
G54D42*
G01X25551Y3661D03*
G54D36*
G01X31653Y4370D03*
G01X33070Y10669D03*
G54D41*
G01X33070Y10669D02*
G01X33090Y10688D01*
G01X33090Y10688D02*
G01X33090Y11171D01*
G01X33287Y11663D02*
G01X33287Y11870D01*
G01X33287Y11870D02*
G01X33425Y12078D01*
G01X33425Y12078D02*
G01X33425Y12322D01*
G01X33425Y12322D02*
G01X33149Y12598D01*
G01X33149Y12598D02*
G01X32598Y12598D01*
G01X32598Y12598D02*
G01X32322Y12322D01*
G01X32322Y12322D02*
G01X32322Y11141D01*
G01X32322Y11141D02*
G01X32007Y10826D01*
G01X32007Y10826D02*
G01X32007Y8110D01*
G01X32007Y8110D02*
G01X31889Y7992D01*
G01X31889Y7992D02*
G01X31889Y5629D01*
G01X31889Y5629D02*
G01X31653Y5393D01*
G01X31653Y5393D02*
G01X31653Y4370D01*
G54D35*
G01X2047Y7874D02*
G01X3070Y7874D01*
G01X3070Y7874D02*
G01X3149Y7795D01*
G01X3149Y7795D02*
G01X3149Y5826D01*
G01X3149Y5826D02*
G01X4409Y4566D01*
G01X4409Y4566D02*
G01X6377Y4566D01*
G01X6377Y4566D02*
G01X6991Y3953D01*
G01X6991Y3953D02*
G01X6991Y2283D01*
G01X13877Y6889D02*
G01X13346Y6889D01*
G01X13346Y6889D02*
G01X12913Y6456D01*
G01X12913Y6456D02*
G01X12913Y5393D01*
G01X12913Y5393D02*
G01X12322Y4803D01*
G01X12322Y4803D02*
G01X11417Y4803D01*
G01X11417Y4803D02*
G01X10708Y4094D01*
G01X10708Y4094D02*
G01X9527Y4094D01*
G01X9527Y4094D02*
G01X8267Y5354D01*
G01X8267Y5354D02*
G01X5984Y5354D01*
G01X5984Y5354D02*
G01X4409Y6929D01*
G01X4409Y6929D02*
G01X4409Y8425D01*
G01X4409Y8425D02*
G01X3228Y9606D01*
G01X3228Y9606D02*
G01X1574Y9606D01*
G01X1574Y9606D02*
G01X1299Y9330D01*
G01X1299Y9330D02*
G01X1299Y8188D01*
G01X1299Y8188D02*
G01X1456Y8031D01*
G01X1456Y8031D02*
G01X1456Y7283D01*
G01X1456Y7283D02*
G01X1653Y7086D01*
G01X1653Y7086D02*
G01X2244Y7086D01*
G01X2244Y7086D02*
G01X2047Y7086D01*
G01X13877Y6102D02*
G01X13661Y6102D01*
G01X13661Y6102D02*
G01X13543Y5984D01*
G01X13543Y5984D02*
G01X13543Y4094D01*
G01X13543Y4094D02*
G01X14071Y3566D01*
G01X14071Y3566D02*
G01X14071Y2283D01*
G01X2047Y7480D02*
G01X2362Y7480D01*
G01X2362Y7480D02*
G01X2519Y7322D01*
G01X2519Y7322D02*
G01X2519Y7086D01*
G54D36*
G01X2834Y6771D03*
G54D35*
G01X2519Y7086D02*
G01X2834Y6771D01*
G54D36*
G01X16850Y9212D03*
G54D35*
G01X16850Y9212D02*
G01X17244Y9212D01*
G01X17244Y9212D02*
G01X17401Y9370D01*
G01X17401Y9370D02*
G01X17401Y9822D01*
G01X17401Y9822D02*
G01X17401Y10157D01*
G01X17401Y10157D02*
G01X18031Y10787D01*
G01X18031Y10787D02*
G01X18976Y10787D01*
G01X18976Y10787D02*
G01X19606Y11417D01*
G01X19606Y11417D02*
G01X22047Y11417D01*
G01X22047Y11417D02*
G01X22204Y11259D01*
G01X22204Y11259D02*
G01X22204Y11102D01*
G01X21535Y5905D02*
G01X21496Y5905D01*
G01X21496Y5905D02*
G01X21889Y5905D01*
G01X21889Y5905D02*
G01X22047Y6062D01*
G01X22047Y6062D02*
G01X22047Y7322D01*
G01X22047Y7322D02*
G01X21889Y7480D01*
G01X21889Y7480D02*
G01X21535Y7480D01*
G01X9881Y7874D02*
G01X8425Y7874D01*
G01X8425Y7874D02*
G01X7952Y8346D01*
G01X7952Y8346D02*
G01X7952Y9055D01*
G01X7952Y9055D02*
G01X8661Y9763D01*
G01X8661Y9763D02*
G01X13779Y9763D01*
G01X13779Y9763D02*
G01X14960Y8582D01*
G01X14960Y8582D02*
G01X14960Y7086D01*
G01X14960Y7086D02*
G01X15748Y6299D01*
G01X15748Y6299D02*
G01X17244Y6299D01*
G01X17244Y6299D02*
G01X17637Y6692D01*
G01X17637Y6692D02*
G01X18366Y6692D01*
G01X18366Y6692D02*
G01X20787Y6692D01*
G01X20787Y6692D02*
G01X21102Y7007D01*
G01X21102Y7007D02*
G01X21102Y7401D01*
G01X21102Y7401D02*
G01X21181Y7480D01*
G01X21181Y7480D02*
G01X21535Y7480D01*
G01X23582Y11102D02*
G01X23582Y12204D01*
G01X23582Y12204D02*
G01X24055Y12677D01*
G01X24055Y12677D02*
G01X24055Y12874D01*
G01X24055Y12874D02*
G01X24330Y13149D01*
G01X24330Y13149D02*
G01X24094Y13385D01*
G01X24094Y13385D02*
G01X24330Y13385D01*
G01X24330Y13385D02*
G01X23858Y13858D01*
G01X23858Y13858D02*
G01X23070Y13858D01*
G01X23070Y13858D02*
G01X22834Y13622D01*
G01X22834Y13622D02*
G01X22834Y13149D01*
G01X22834Y13149D02*
G01X21732Y12047D01*
G01X21732Y12047D02*
G01X19291Y12047D01*
G01X19291Y12047D02*
G01X18661Y11417D01*
G01X18661Y11417D02*
G01X15354Y11417D01*
G01X15354Y11417D02*
G01X14960Y11023D01*
G01X14960Y11023D02*
G01X14960Y10551D01*
G01X14960Y10551D02*
G01X15236Y10275D01*
G01X15236Y10275D02*
G01X15236Y9822D01*
G01X2047Y7677D02*
G01X2480Y7677D01*
G54D36*
G01X2834Y7322D03*
G54D35*
G01X2480Y7677D02*
G01X2834Y7322D01*
G54D36*
G01X5433Y4015D03*
G54D35*
G01X5433Y4015D02*
G01X5811Y3637D01*
G01X5811Y3637D02*
G01X5811Y2283D01*
G01X15236Y5334D02*
G01X15236Y5787D01*
G01X15236Y5787D02*
G01X15039Y5984D01*
G01X15039Y5984D02*
G01X14409Y5984D01*
G01X14409Y5984D02*
G01X13779Y5354D01*
G01X13779Y5354D02*
G01X13779Y4094D01*
G01X13779Y4094D02*
G01X14661Y3212D01*
G01X14661Y3212D02*
G01X14661Y2283D01*
G01X13877Y8464D02*
G01X14291Y8464D01*
G01X14291Y8464D02*
G01X14803Y7952D01*
G01X14803Y7952D02*
G01X14803Y6614D01*
G54D36*
G01X14645Y6456D03*
G54D35*
G01X14803Y6614D02*
G01X14645Y6456D01*
G01X18366Y6102D02*
G01X18543Y6102D01*
G01X18543Y6102D02*
G01X18661Y5984D01*
G01X18661Y5984D02*
G01X18661Y5511D01*
G01X18661Y5511D02*
G01X18897Y5275D01*
G01X18897Y5275D02*
G01X19763Y5275D01*
G01X19763Y5275D02*
G01X20314Y4724D01*
G54D36*
G01X20393Y4724D03*
G54D35*
G01X20314Y4724D02*
G01X20393Y4724D01*
G01X18366Y6889D02*
G01X20748Y6889D01*
G01X20748Y6889D02*
G01X20944Y7086D01*
G01X20944Y7086D02*
G01X20944Y7480D01*
G01X20944Y7480D02*
G01X21141Y7677D01*
G01X21141Y7677D02*
G01X21535Y7677D01*
G01X9881Y7677D02*
G01X8385Y7677D01*
G01X8385Y7677D02*
G01X7795Y8267D01*
G01X7795Y8267D02*
G01X7795Y9133D01*
G01X7795Y9133D02*
G01X8582Y9921D01*
G01X8582Y9921D02*
G01X13858Y9921D01*
G01X13858Y9921D02*
G01X15118Y8661D01*
G01X15118Y8661D02*
G01X15118Y7165D01*
G01X15118Y7165D02*
G01X15826Y6456D01*
G01X15826Y6456D02*
G01X17165Y6456D01*
G01X17165Y6456D02*
G01X17598Y6889D01*
G01X17598Y6889D02*
G01X18366Y6889D01*
G01X16614Y9822D02*
G01X16614Y9448D01*
G01X16614Y9448D02*
G01X16535Y9370D01*
G01X16535Y9370D02*
G01X16535Y7874D01*
G54D36*
G01X16850Y7559D03*
G54D35*
G01X16535Y7874D02*
G01X16850Y7559D01*
G01X2047Y4724D02*
G01X2440Y4724D01*
G01X2440Y4724D02*
G01X2598Y4566D01*
G01X2598Y4566D02*
G01X3700Y4566D01*
G01X3700Y4566D02*
G01X4631Y3636D01*
G01X4631Y3636D02*
G01X4631Y2283D01*
G01X16023Y5334D02*
G01X16023Y4685D01*
G01X16023Y4685D02*
G01X17021Y3687D01*
G01X17021Y3687D02*
G01X17021Y2283D01*
G01X24566Y11102D02*
G01X24566Y10708D01*
G01X24566Y10708D02*
G01X24606Y10669D01*
G01X24606Y10669D02*
G01X26299Y10669D01*
G01X26299Y10669D02*
G01X26456Y10511D01*
G01X26456Y10511D02*
G01X27125Y10511D01*
G01X27125Y10511D02*
G01X27559Y10944D01*
G01X27559Y10944D02*
G01X28346Y10944D01*
G01X28346Y10944D02*
G01X28503Y10787D01*
G01X16456Y12303D02*
G01X16456Y13070D01*
G54D36*
G01X16535Y13070D03*
G54D35*
G01X16456Y13070D02*
G01X16535Y13070D01*
G54D36*
G01X25590Y8818D03*
G54D35*
G01X25590Y8818D02*
G01X25590Y8346D01*
G01X25590Y8346D02*
G01X26614Y7322D01*
G01X26614Y7322D02*
G01X27165Y7322D01*
G01X27165Y7322D02*
G01X27204Y7283D01*
G01X27204Y7283D02*
G01X27598Y7283D01*
G01X21330Y13385D02*
G01X20157Y12204D01*
G01X20157Y12204D02*
G01X19212Y12204D01*
G01X19212Y12204D02*
G01X18582Y11574D01*
G01X18582Y11574D02*
G01X15275Y11574D01*
G01X15275Y11574D02*
G01X14803Y11102D01*
G01X14803Y11102D02*
G01X14803Y10472D01*
G01X14803Y10472D02*
G01X15039Y10236D01*
G01X15039Y10236D02*
G01X15039Y9822D01*
G01X21330Y13385D02*
G01X21968Y14015D01*
G01X21968Y14015D02*
G01X24566Y14015D01*
G01X24566Y14015D02*
G01X24803Y13779D01*
G01X24803Y13779D02*
G01X24803Y13228D01*
G01X24803Y13228D02*
G01X24448Y12874D01*
G01X24448Y12874D02*
G01X24448Y12086D01*
G01X24448Y12086D02*
G01X23976Y11614D01*
G01X23976Y11614D02*
G01X23976Y11102D01*
G01X2047Y4527D02*
G01X2401Y4527D01*
G01X2401Y4527D02*
G01X3451Y3477D01*
G01X3451Y3477D02*
G01X3451Y2283D01*
G54D36*
G01X27007Y9685D03*
G54D35*
G01X27007Y9685D02*
G01X27165Y9842D01*
G01X27165Y9842D02*
G01X27598Y9842D01*
G01X2047Y5118D02*
G01X1653Y5118D01*
G01X1653Y5118D02*
G01X1417Y4881D01*
G01X1417Y4881D02*
G01X1417Y4409D01*
G01X1417Y4409D02*
G01X2271Y3555D01*
G01X2271Y3555D02*
G01X2271Y2283D01*
G01X13877Y7086D02*
G01X13307Y7086D01*
G01X13307Y7086D02*
G01X12755Y6535D01*
G01X12755Y6535D02*
G01X12755Y5472D01*
G01X12755Y5472D02*
G01X12244Y4960D01*
G01X12244Y4960D02*
G01X11338Y4960D01*
G01X11338Y4960D02*
G01X10629Y4251D01*
G01X10629Y4251D02*
G01X9606Y4251D01*
G01X9606Y4251D02*
G01X8346Y5511D01*
G01X8346Y5511D02*
G01X6062Y5511D01*
G01X6062Y5511D02*
G01X4566Y7007D01*
G01X4566Y7007D02*
G01X4566Y8503D01*
G01X4566Y8503D02*
G01X3070Y10000D01*
G01X3070Y10000D02*
G01X2755Y10000D01*
G01X2755Y10000D02*
G01X2519Y9763D01*
G01X2519Y9763D02*
G01X1496Y9763D01*
G01X1496Y9763D02*
G01X1141Y9409D01*
G01X1141Y9409D02*
G01X1141Y8110D01*
G01X1141Y8110D02*
G01X1299Y7952D01*
G01X1299Y7952D02*
G01X1299Y7204D01*
G01X1299Y7204D02*
G01X1614Y6889D01*
G01X1614Y6889D02*
G01X2047Y6889D01*
G01X23976Y5039D02*
G01X23976Y5472D01*
G01X23976Y5472D02*
G01X23700Y5748D01*
G01X23700Y5748D02*
G01X23700Y5826D01*
G01X23700Y5826D02*
G01X23543Y5984D01*
G01X23543Y5984D02*
G01X22598Y5984D01*
G01X22598Y5984D02*
G01X21811Y5196D01*
G01X21811Y5196D02*
G01X21811Y4566D01*
G01X21811Y4566D02*
G01X21496Y4251D01*
G01X21496Y4251D02*
G01X20157Y4251D01*
G01X20157Y4251D02*
G01X19448Y4960D01*
G01X19448Y4960D02*
G01X18740Y4960D01*
G01X18740Y4960D02*
G01X17716Y5984D01*
G01X17716Y5984D02*
G01X15275Y5984D01*
G01X15275Y5984D02*
G01X15118Y6141D01*
G01X15118Y6141D02*
G01X14409Y6141D01*
G01X14409Y6141D02*
G01X14330Y6220D01*
G01X14330Y6220D02*
G01X14330Y7007D01*
G01X14330Y7007D02*
G01X14251Y7086D01*
G01X14251Y7086D02*
G01X13877Y7086D01*
G01X2913Y10000D02*
G01X2755Y10000D01*
G01X2755Y10000D02*
G01X2519Y9763D01*
G01X2519Y9763D02*
G01X1496Y9763D01*
G01X1496Y9763D02*
G01X1141Y9409D01*
G01X1141Y9409D02*
G01X1141Y8110D01*
G01X1141Y8110D02*
G01X1299Y7952D01*
G01X1299Y7952D02*
G01X1299Y7204D01*
G01X1299Y7204D02*
G01X1614Y6889D01*
G01X1614Y6889D02*
G01X2047Y6889D01*
G54D36*
G01X25590Y10314D03*
G54D35*
G01X25590Y10314D02*
G01X25590Y9842D01*
G01X25590Y9842D02*
G01X26377Y9055D01*
G01X26377Y9055D02*
G01X27598Y9055D01*
G01X17598Y9822D02*
G01X17637Y9921D01*
G01X17637Y9921D02*
G01X18267Y10551D01*
G01X18267Y10551D02*
G01X19527Y10551D01*
G54D36*
G01X20078Y11102D03*
G54D35*
G01X19527Y10551D02*
G01X20078Y11102D01*
G01X2047Y5511D02*
G01X1574Y5511D01*
G01X1574Y5511D02*
G01X1102Y5039D01*
G01X1102Y5039D02*
G01X1102Y3385D01*
G01X1102Y3385D02*
G01X1091Y3375D01*
G01X1091Y3375D02*
G01X1091Y2283D01*
G54D43*
G01X16574Y10708D02*
G01X17047Y10708D01*
G54D36*
G01X17086Y10787D03*
G54D43*
G01X17047Y10708D02*
G01X17086Y10787D01*
G54D38*
G01X16574Y10708D02*
G01X16811Y10708D01*
G01X16811Y10708D02*
G01X16811Y9822D01*
G54D36*
G01X21259Y10708D03*
G54D38*
G01X21535Y10433D02*
G01X21259Y10708D01*
G01X27598Y6692D02*
G01X27244Y6692D01*
G54D36*
G01X27007Y6929D03*
G54D38*
G01X27244Y6692D02*
G01X27007Y6929D01*
G54D36*
G01X551Y5511D03*
G01X1023Y5984D02*
G01X551Y5511D01*
G54D38*
G01X9881Y8661D02*
G01X9527Y8661D01*
G01X9527Y8661D02*
G01X9291Y8897D01*
G54D36*
G01X9291Y8976D03*
G54D38*
G01X9291Y8897D02*
G01X9291Y8976D01*
G54D36*
G01X27007Y8464D03*
G54D38*
G01X27598Y8464D02*
G01X27007Y8464D01*
G54D36*
G01X29173Y8582D02*
G01X29173Y9645D01*
G01X11456Y8110D03*
G01X11456Y8661D02*
G01X11456Y8110D01*
G01X11456Y7440D03*
G01X11456Y6929D02*
G01X11456Y7440D01*
G54D38*
G01X21535Y5708D02*
G01X20984Y5708D01*
G54D36*
G01X20944Y5669D03*
G54D38*
G01X20984Y5708D02*
G01X20944Y5669D01*
G01X13877Y7480D02*
G01X14330Y7480D01*
G01X14330Y7480D02*
G01X14488Y7637D01*
G54D36*
G01X14488Y7716D03*
G54D38*
G01X14488Y7637D02*
G01X14488Y7716D01*
G54D36*
G01X20000Y7401D03*
G01X20000Y7952D02*
G01X20000Y7401D01*
G54D38*
G01X9881Y4724D02*
G01X9527Y4724D01*
G01X9527Y4724D02*
G01X9448Y4803D01*
G01X9448Y4803D02*
G01X9448Y4881D01*
G01X9448Y4881D02*
G01X9488Y4921D01*
G01X9488Y4921D02*
G01X9881Y4921D01*
G01X9881Y4921D02*
G01X9488Y4921D01*
G54D36*
G01X9291Y5118D03*
G54D38*
G01X9488Y4921D02*
G01X9291Y5118D01*
G01X15039Y4330D02*
G01X15629Y4921D01*
G01X15629Y4921D02*
G01X15629Y5334D01*
G54D36*
G01X15039Y4330D02*
G01X14724Y4330D01*
G01X14566Y4488D03*
G01X14724Y4330D02*
G01X14566Y4488D01*
G01X25629Y4173D02*
G01X25669Y4212D01*
G01X26062Y4212D03*
G01X25669Y4212D02*
G01X26062Y4212D01*
G01X23503Y4094D02*
G01X23937Y4094D01*
G01X24094Y3937D03*
G01X23937Y4094D02*
G01X24094Y3937D01*
G01X31181Y3937D03*
G01X6220Y11112D02*
G01X6181Y11456D01*
G01X6181Y11456D02*
G01X5944Y11692D01*
G01X5944Y11692D02*
G01X6496Y11692D01*
G01X6496Y11692D02*
G01X6496Y10551D01*
G01X6496Y10551D02*
G01X5944Y10551D01*
G01X5944Y10551D02*
G01X5944Y11692D01*
G01X6220Y11112D02*
G01X6181Y10767D01*
G01X6496Y10551D03*
G01X6181Y10767D02*
G01X6496Y10551D01*
G01X6220Y11112D02*
G01X6181Y11437D01*
G01X6496Y11692D03*
G01X6181Y11437D02*
G01X6496Y11692D01*
G54D38*
G01X26929Y11102D02*
G01X26929Y11062D01*
G54D36*
G01X27204Y11299D03*
G54D38*
G01X26929Y11062D02*
G01X27204Y11299D01*
G01X26929Y5039D02*
G01X26929Y5413D01*
G54D36*
G01X26633Y5708D03*
G54D38*
G01X26929Y5413D02*
G01X26633Y5708D01*
G54D36*
G01X29173Y9133D03*
G01X29173Y9645D02*
G01X29173Y9133D01*
G01X29724Y3937D03*
G01X6102Y3937D03*
G01X787Y3937D03*
G54D35*
G01X22401Y11102D02*
G01X22401Y10590D01*
G01X22401Y10590D02*
G01X22677Y10314D01*
G01X22677Y10314D02*
G01X23464Y10314D01*
G01X23464Y10314D02*
G01X24173Y9606D01*
G01X24173Y9606D02*
G01X24173Y9133D01*
G01X24173Y9133D02*
G01X26377Y6929D01*
G01X26377Y6929D02*
G01X27007Y6929D01*
G01X27007Y6929D02*
G01X27244Y6692D01*
G01X27244Y6692D02*
G01X27598Y6692D01*
G54D36*
G01X28503Y6771D03*
G01X28503Y7322D02*
G01X28503Y6771D01*
G01X28503Y5511D03*
G01X28503Y6062D02*
G01X28503Y5511D01*
G01X19881Y5748D03*
G01X19881Y6299D02*
G01X19881Y5748D01*
G01X17716Y8661D03*
G54D38*
G01X18366Y8661D02*
G01X17716Y8661D01*
G54D39*
G01X12301Y1973D02*
G01X12301Y4033D01*
G54D36*
G01X12820Y4527D03*
G54D39*
G01X12301Y4033D02*
G01X12820Y4527D01*
G54D36*
G01X12283Y8976D03*
G01X12283Y8425D02*
G01X12283Y8976D01*
G54D44*
G01X15511Y12303D02*
G01X15511Y12598D01*
G54D45*
G01X15511Y12598D02*
G01X15275Y12362D01*
G54D36*
G01X15039Y12362D03*
G54D45*
G01X15275Y12362D02*
G01X15039Y12362D01*
G54D36*
G01X6811Y9842D02*
G01X6771Y9842D01*
G01X6771Y9842D02*
G01X6850Y10000D01*
G01X6850Y10000D02*
G01X6456Y10393D01*
G01X6456Y10393D02*
G01X6456Y10708D01*
G01X6456Y10708D02*
G01X6476Y10728D01*
G01X6476Y10728D02*
G01X6476Y10846D01*
G01X6476Y10846D02*
G01X6220Y11102D01*
G01X6220Y11102D02*
G01X6220Y11112D01*
G54D35*
G01X23503Y4094D02*
G01X24094Y3937D01*
G01X24094Y3937D02*
G01X24094Y4330D01*
G01X24094Y4330D02*
G01X23779Y4645D01*
G01X23779Y4645D02*
G01X23779Y5039D01*
G01X7086Y10728D02*
G01X7086Y10629D01*
G54D39*
G01X7086Y10629D02*
G01X7086Y10393D01*
G01X7086Y10393D02*
G01X6614Y9921D01*
G01X6614Y9921D02*
G01X6811Y9842D01*
G54D36*
G01X5944Y11692D03*
G01X6220Y11112D02*
G01X5944Y11692D01*
G01X5944Y10551D03*
G01X6220Y11112D02*
G01X5944Y10551D01*
G01X3858Y10354D02*
G01X3858Y10393D01*
G01X3858Y9842D03*
G01X3858Y10393D02*
G01X3858Y9842D01*
G01X3385Y11417D03*
G01X3858Y11417D02*
G01X3385Y11417D01*
G01X12755Y12125D03*
G01X12755Y12716D02*
G01X12755Y12125D01*
G01X12755Y12716D02*
G01X12755Y12125D01*
G01X12755Y12125D02*
G01X11437Y12125D01*
G54D38*
G01X2362Y11377D02*
G01X2362Y12598D01*
G54D35*
G01X7086Y11240D02*
G01X7893Y11240D01*
G01X7893Y11240D02*
G01X8031Y11102D01*
G01X8031Y11102D02*
G01X8031Y10629D01*
G01X8031Y10629D02*
G01X7874Y10472D01*
G01X7874Y10472D02*
G01X7401Y10472D01*
G01X7401Y10472D02*
G01X7165Y10708D01*
G01X7165Y10708D02*
G01X7086Y10728D01*
G54D36*
G01X25905Y12007D03*
G01X25472Y12007D02*
G01X25905Y12007D01*
G54D38*
G01X34137Y9724D02*
G01X34133Y9606D01*
G01X34133Y9606D02*
G01X34133Y8897D01*
G54D36*
G01X33976Y8740D03*
G54D38*
G01X34133Y8897D02*
G01X33976Y8740D01*
G01X34137Y6259D02*
G01X34133Y6259D01*
G01X34133Y6259D02*
G01X34133Y5826D01*
G54D36*
G01X33779Y5472D03*
G54D38*
G01X34133Y5826D02*
G01X33779Y5472D01*
G01X32893Y11663D02*
G01X32834Y11732D01*
G54D36*
G01X32834Y12086D03*
G54D38*
G01X32834Y11732D02*
G01X32834Y12086D01*
G54D35*
G01X30708Y8818D02*
G01X30337Y9898D01*
G01X30337Y9898D02*
G01X29803Y10433D01*
G01X29803Y10433D02*
G01X29803Y10905D01*
G01X29803Y10905D02*
G01X29448Y11259D01*
G01X29448Y11259D02*
G01X27637Y11259D01*
G01X27637Y11259D02*
G01X27047Y10669D01*
G01X27047Y10669D02*
G01X26614Y10669D01*
G01X26614Y10669D02*
G01X26535Y10748D01*
G01X26535Y10748D02*
G01X26535Y11102D01*
G01X29173Y7322D02*
G01X29212Y7322D01*
G01X29212Y7322D02*
G01X30708Y8818D01*
G01X16141Y12303D02*
G01X16141Y13070D01*
G01X16141Y13070D02*
G01X16141Y12992D01*
G54D36*
G01X16062Y13070D03*
G54D35*
G01X16141Y12992D02*
G01X16062Y13070D01*
G54D36*
G01X25984Y8582D03*
G54D35*
G01X25984Y8582D02*
G01X25826Y8582D01*
G01X25826Y8582D02*
G01X25748Y8503D01*
G01X25748Y8503D02*
G01X25748Y8425D01*
G01X25748Y8425D02*
G01X26692Y7480D01*
G01X26692Y7480D02*
G01X27598Y7480D01*
G54D36*
G01X29133Y4960D03*
G54D35*
G01X29133Y4960D02*
G01X28661Y4488D01*
G54D36*
G01X28031Y4488D03*
G54D35*
G01X28661Y4488D02*
G01X28031Y4488D01*
G54D36*
G01X23385Y5669D03*
G54D35*
G01X23385Y5669D02*
G01X22598Y5669D01*
G01X22598Y5669D02*
G01X22401Y5472D01*
G01X22401Y5472D02*
G01X22401Y5039D01*
G01X22401Y5039D02*
G01X22401Y4685D01*
G01X22401Y4685D02*
G01X22283Y4566D01*
G01X22283Y4566D02*
G01X22047Y4566D01*
G01X22047Y4566D02*
G01X21574Y4094D01*
G01X21574Y4094D02*
G01X20078Y4094D01*
G01X20078Y4094D02*
G01X19370Y4803D01*
G01X19370Y4803D02*
G01X18661Y4803D01*
G01X18661Y4803D02*
G01X17637Y5826D01*
G01X17637Y5826D02*
G01X15511Y5826D01*
G01X15511Y5826D02*
G01X15433Y5748D01*
G01X15433Y5748D02*
G01X15433Y5334D01*
G54D41*
G01X16220Y9822D02*
G01X16220Y7480D01*
G54D36*
G01X16141Y7401D03*
G54D41*
G01X16220Y7480D02*
G01X16141Y7401D01*
G01X34137Y7755D02*
G01X34133Y7755D01*
G01X34133Y7755D02*
G01X34133Y7007D01*
G54D36*
G01X34137Y7003D03*
G54D41*
G01X34133Y7007D02*
G01X34137Y7003D01*
G54D36*
G01X34133Y5078D03*
G54D41*
G01X34133Y5078D02*
G01X34137Y4291D01*
G54D42*
G01X22992Y3700D03*
G54D36*
G01X32125Y3897D03*
G01X27007Y10157D03*
G54D35*
G01X27007Y10157D02*
G01X27125Y10039D01*
G01X27125Y10039D02*
G01X27598Y10039D01*
G01X2047Y8464D02*
G01X2952Y8464D01*
G01X2952Y8464D02*
G01X3464Y7952D01*
G01X3464Y7952D02*
G01X3464Y6220D01*
G54D36*
G01X3622Y6062D03*
G54D35*
G01X3464Y6220D02*
G01X3622Y6062D01*
G01X2047Y5708D02*
G01X1535Y5708D01*
G01X1535Y5708D02*
G01X472Y4645D01*
G01X472Y4645D02*
G01X472Y3464D01*
G01X472Y3464D02*
G01X501Y3435D01*
G01X501Y3435D02*
G01X501Y2283D01*
G01X18366Y6299D02*
G01X18346Y6299D01*
G01X18346Y6299D02*
G01X18740Y6299D01*
G01X18740Y6299D02*
G01X18818Y6220D01*
G01X18818Y6220D02*
G01X18818Y5590D01*
G01X18818Y5590D02*
G01X18976Y5433D01*
G01X18976Y5433D02*
G01X20157Y5433D01*
G54D36*
G01X20866Y4724D03*
G54D35*
G01X20157Y5433D02*
G01X20866Y4724D01*
G01X29173Y6062D02*
G01X30354Y6062D01*
G01X30354Y6062D02*
G01X30708Y5472D01*
G01X30708Y5472D02*
G01X30708Y6535D01*
G01X30708Y6535D02*
G01X31338Y7165D01*
G01X31338Y7165D02*
G01X31338Y9960D01*
G01X31338Y9960D02*
G01X31220Y10078D01*
G01X31220Y10078D02*
G01X30472Y10078D01*
G01X30472Y10078D02*
G01X30000Y10551D01*
G01X30000Y10551D02*
G01X30000Y11023D01*
G01X30000Y11023D02*
G01X29566Y11456D01*
G01X29566Y11456D02*
G01X27519Y11456D01*
G01X27519Y11456D02*
G01X27322Y11653D01*
G01X27322Y11653D02*
G01X26850Y11653D01*
G01X26850Y11653D02*
G01X26732Y11535D01*
G01X26732Y11535D02*
G01X26377Y11535D01*
G01X26377Y11535D02*
G01X26338Y11496D01*
G01X26338Y11496D02*
G01X26338Y11102D01*
G54D36*
G01X25984Y10078D03*
G54D35*
G01X25984Y10078D02*
G01X25826Y10078D01*
G01X25826Y10078D02*
G01X25748Y10000D01*
G01X25748Y10000D02*
G01X25748Y9921D01*
G01X25748Y9921D02*
G01X26456Y9212D01*
G01X26456Y9212D02*
G01X27165Y9212D01*
G01X27165Y9212D02*
G01X27204Y9251D01*
G01X27204Y9251D02*
G01X27598Y9251D01*
G01X9507Y12125D02*
G01X9527Y12125D01*
G01X9527Y12125D02*
G01X9488Y12165D01*
G54D36*
G01X9488Y12165D02*
G01X8031Y12165D01*
G54D40*
G01X5354Y11496D02*
G01X5354Y11791D01*
G01X5354Y11791D02*
G01X5669Y12125D01*
G01X5669Y12125D02*
G01X6771Y12125D01*
G54D35*
G01X6771Y12125D02*
G01X6811Y12165D01*
G54D39*
G01X6811Y12165D02*
G01X8031Y12165D01*
G54D35*
G01X27598Y6496D02*
G01X26574Y6496D01*
G01X26574Y6496D02*
G01X25590Y7480D01*
G01X25590Y7480D02*
G01X24724Y7480D01*
G54D36*
G01X24409Y7795D03*
G54D35*
G01X24724Y7480D02*
G01X24409Y7795D01*
G54D36*
G01X7716Y10866D03*
G54D35*
G01X7716Y10866D02*
G01X7598Y10984D01*
G01X7598Y10984D02*
G01X7086Y10984D01*
G01X2047Y6102D02*
G01X2401Y6102D01*
G01X2401Y6102D02*
G01X2834Y5669D01*
G54D36*
G01X2834Y5118D03*
G54D35*
G01X2834Y5669D02*
G01X2834Y5118D01*
G01X16023Y9822D02*
G01X16023Y7992D01*
G54D36*
G01X15748Y7716D03*
G54D35*
G01X16023Y7992D02*
G01X15748Y7716D01*
G54D41*
G01X33090Y11663D02*
G01X33110Y11692D01*
G01X33110Y11692D02*
G01X33110Y11889D01*
G01X33110Y11889D02*
G01X33228Y12086D01*
G01X33228Y12086D02*
G01X33228Y12284D01*
G01X33228Y12284D02*
G01X33086Y12421D01*
G01X33086Y12421D02*
G01X32657Y12421D01*
G01X32657Y12421D02*
G01X32480Y12244D01*
G01X32480Y12244D02*
G01X32480Y11023D01*
G01X32480Y11023D02*
G01X32165Y10708D01*
G01X32165Y10708D02*
G01X32165Y8070D01*
G01X32165Y8070D02*
G01X32322Y7913D01*
G01X32322Y7913D02*
G01X32322Y5157D01*
G01X32322Y5157D02*
G01X32401Y5078D01*
G01X32401Y5078D02*
G01X32401Y4645D01*
G01X32401Y4645D02*
G01X32637Y4409D01*
G01X32637Y4409D02*
G01X32637Y4291D01*
G54D35*
G01X2047Y5314D02*
G01X1614Y5314D01*
G01X1614Y5314D02*
G01X1259Y4960D01*
G01X1259Y4960D02*
G01X1259Y4330D01*
G01X1259Y4330D02*
G01X1681Y3908D01*
G01X1681Y3908D02*
G01X1681Y2283D01*
G01X13877Y7283D02*
G01X13267Y7283D01*
G01X13267Y7283D02*
G01X12598Y6614D01*
G01X12598Y6614D02*
G01X12598Y5590D01*
G01X12598Y5590D02*
G01X12125Y5118D01*
G01X12125Y5118D02*
G01X9881Y5118D01*
G54D36*
G01X15629Y9291D03*
G54D35*
G01X15629Y9822D02*
G01X15629Y9291D01*
G01X18366Y7283D02*
G01X17755Y7283D01*
G54D36*
G01X17716Y7244D03*
G54D35*
G01X17755Y7283D02*
G01X17716Y7244D01*
G54D41*
G01X33287Y11171D02*
G01X33267Y11141D01*
G01X33267Y11141D02*
G01X33267Y10984D01*
G01X33267Y10984D02*
G01X33385Y10826D01*
G01X33385Y10826D02*
G01X33385Y10472D01*
G01X33385Y10472D02*
G01X33267Y10314D01*
G01X33267Y10314D02*
G01X32401Y10314D01*
G01X32401Y10314D02*
G01X32322Y10236D01*
G01X32322Y10236D02*
G01X32322Y8779D01*
G01X32322Y8779D02*
G01X32637Y8464D01*
G01X32637Y8464D02*
G01X32637Y7755D01*
G54D35*
G01X9881Y5314D02*
G01X12086Y5314D01*
G01X12086Y5314D02*
G01X12440Y5669D01*
G01X12440Y5669D02*
G01X12440Y6692D01*
G01X12440Y6692D02*
G01X12834Y7086D01*
G01X12834Y7086D02*
G01X12834Y7322D01*
G01X12834Y7322D02*
G01X13188Y7677D01*
G01X13188Y7677D02*
G01X13877Y7677D01*
G01X25748Y5039D02*
G01X25748Y5433D01*
G01X25748Y5433D02*
G01X25905Y5590D01*
G01X25905Y5590D02*
G01X25905Y6062D01*
G54D36*
G01X25905Y5984D03*
G54D35*
G01X25905Y6062D02*
G01X25905Y5984D01*
G54D36*
G01X12834Y7322D03*
G54D35*
G01X12834Y7322D02*
G01X13188Y7677D01*
G01X13188Y7677D02*
G01X13877Y7677D01*
G01X2047Y4921D02*
G01X1692Y4921D01*
G01X1692Y4921D02*
G01X1574Y4803D01*
G01X1574Y4803D02*
G01X1574Y4488D01*
G01X1574Y4488D02*
G01X2440Y3622D01*
G01X2440Y3622D02*
G01X2755Y3622D01*
G01X2755Y3622D02*
G01X2861Y3516D01*
G01X2861Y3516D02*
G01X2861Y2283D01*
G01X18366Y7086D02*
G01X18346Y7086D01*
G01X18346Y7086D02*
G01X19055Y7086D01*
G54D36*
G01X19212Y7244D03*
G54D35*
G01X19055Y7086D02*
G01X19212Y7244D01*
G01X17204Y9822D02*
G01X17204Y10196D01*
G01X17204Y10196D02*
G01X17952Y10944D01*
G01X17952Y10944D02*
G01X18897Y10944D01*
G01X18897Y10944D02*
G01X19527Y11574D01*
G01X19527Y11574D02*
G01X22519Y11574D01*
G01X22519Y11574D02*
G01X22598Y11496D01*
G01X22598Y11496D02*
G01X22598Y11023D01*
G01X22598Y11023D02*
G01X22598Y11102D01*
G01X24370Y11102D02*
G01X24370Y10669D01*
G01X24370Y10669D02*
G01X24173Y10472D01*
G01X24173Y10472D02*
G01X22834Y10472D01*
G01X22834Y10472D02*
G01X22598Y10708D01*
G01X22598Y10708D02*
G01X22598Y11102D01*
G01X2047Y8661D02*
G01X2992Y8661D01*
G01X2992Y8661D02*
G01X3622Y8031D01*
G01X3622Y8031D02*
G01X3622Y6535D01*
G01X3622Y6535D02*
G01X4094Y6062D01*
G54D36*
G01X4094Y5590D03*
G54D35*
G01X4094Y6062D02*
G01X4094Y5590D01*
G54D36*
G01X3779Y3858D03*
G54D35*
G01X3779Y3858D02*
G01X4041Y3596D01*
G01X4041Y3596D02*
G01X4041Y2283D01*
G01X16811Y5334D02*
G01X16811Y4842D01*
G01X16811Y4842D02*
G01X17637Y4015D01*
G01X17637Y4015D02*
G01X18897Y4015D01*
G01X18897Y4015D02*
G01X19370Y3543D01*
G01X19370Y3543D02*
G01X19370Y2519D01*
G01X19370Y2519D02*
G01X19381Y2283D01*
G54D41*
G01X13877Y6299D02*
G01X13464Y6299D01*
G01X13464Y6299D02*
G01X13385Y6220D01*
G01X13385Y6220D02*
G01X13385Y4015D01*
G01X13385Y4015D02*
G01X13481Y3919D01*
G01X13481Y3919D02*
G01X13481Y2283D01*
G01X33637Y4291D02*
G01X33622Y4291D01*
G01X33622Y4291D02*
G01X33622Y4881D01*
G01X33622Y4881D02*
G01X33228Y5275D01*
G54D36*
G01X33228Y5511D03*
G54D41*
G01X33228Y5275D02*
G01X33228Y5511D01*
G54D36*
G01X33622Y7007D03*
G54D41*
G01X33622Y7007D02*
G01X33637Y7023D01*
G01X33637Y7023D02*
G01X33637Y7755D01*
G01X13481Y2283D02*
G01X13481Y3447D01*
G54D42*
G01X13188Y3740D03*
G54D41*
G01X13481Y3447D02*
G01X13188Y3740D01*
G54D36*
G01X32086Y4921D03*
G54D35*
G01X9881Y8070D02*
G01X8464Y8070D01*
G01X8464Y8070D02*
G01X8267Y8267D01*
G01X8267Y8267D02*
G01X8267Y9133D01*
G01X8267Y9133D02*
G01X8740Y9606D01*
G01X8740Y9606D02*
G01X13700Y9606D01*
G01X13700Y9606D02*
G01X13877Y9429D01*
G01X13877Y9429D02*
G01X13877Y9055D01*
G01X25551Y5039D02*
G01X25551Y5393D01*
G01X25551Y5393D02*
G01X25590Y5433D01*
G54D36*
G01X25590Y6929D03*
G54D35*
G01X25590Y5433D02*
G01X25590Y6929D01*
G54D36*
G01X8267Y8582D03*
G54D35*
G01X8267Y8582D02*
G01X8267Y8267D01*
G01X8267Y8267D02*
G01X8464Y8070D01*
G01X8464Y8070D02*
G01X9881Y8070D01*
G01X9881Y5511D02*
G01X12047Y5511D01*
G01X12047Y5511D02*
G01X12283Y5748D01*
G01X12283Y5748D02*
G01X12283Y6850D01*
G01X12283Y6850D02*
G01X12519Y7086D01*
G01X12519Y7086D02*
G01X12519Y7637D01*
G01X12519Y7637D02*
G01X12755Y7874D01*
G01X12755Y7874D02*
G01X13877Y7874D01*
G01X25354Y5039D02*
G01X25354Y5984D01*
G54D36*
G01X25275Y5984D03*
G54D35*
G01X25354Y5984D02*
G01X25275Y5984D01*
G54D36*
G01X12519Y7716D03*
G54D35*
G01X12519Y7716D02*
G01X12598Y7716D01*
G01X12598Y7716D02*
G01X12755Y7874D01*
G01X12755Y7874D02*
G01X13877Y7874D01*
G01X2047Y5905D02*
G01X2362Y5905D01*
G01X2362Y5905D02*
G01X2519Y5748D01*
G01X2519Y5748D02*
G01X2519Y4881D01*
G01X2519Y4881D02*
G01X2677Y4724D01*
G01X2677Y4724D02*
G01X3779Y4724D01*
G01X3779Y4724D02*
G01X5196Y3307D01*
G01X5196Y3307D02*
G01X5221Y2283D01*
G01X17598Y5334D02*
G01X17598Y5000D01*
G01X17598Y5000D02*
G01X17952Y4645D01*
G01X17952Y4645D02*
G01X19291Y4645D01*
G01X19291Y4645D02*
G01X20000Y3937D01*
G01X20000Y3937D02*
G01X21023Y3937D01*
G01X21023Y3937D02*
G01X21741Y3218D01*
G01X21741Y3218D02*
G01X21741Y2283D01*
G01X14645Y5334D02*
G01X14645Y5275D01*
G01X14645Y5275D02*
G01X14094Y4724D01*
G01X14094Y4724D02*
G01X14094Y4251D01*
G01X14094Y4251D02*
G01X14566Y3779D01*
G01X14566Y3779D02*
G01X15433Y3779D01*
G01X15433Y3779D02*
G01X15826Y3385D01*
G01X15826Y3385D02*
G01X15841Y2283D01*
G54D41*
G01X15905Y10708D02*
G01X15826Y10787D01*
G54D36*
G01X15433Y10787D03*
G54D41*
G01X15826Y10787D02*
G01X15433Y10787D01*
G01X15708Y4330D02*
G01X15905Y4330D01*
G54D36*
G01X16141Y4094D03*
G54D41*
G01X15905Y4330D02*
G01X16141Y4094D01*
G01X29173Y10787D02*
G01X29173Y10354D01*
G01X29173Y10354D02*
G01X29055Y10236D01*
G01X29055Y10236D02*
G01X28661Y10236D01*
G01X28661Y10236D02*
G01X28503Y10078D01*
G01X28503Y10078D02*
G01X28503Y9645D01*
G01X28503Y8582D02*
G01X28503Y9645D01*
G01X28503Y8582D02*
G01X28503Y8661D01*
G01X28503Y8661D02*
G01X27598Y8661D01*
G01X10787Y8661D02*
G01X10787Y8582D01*
G01X10787Y8582D02*
G01X10511Y8858D01*
G01X10511Y8858D02*
G01X9881Y8858D01*
G54D36*
G01X10787Y8110D03*
G54D41*
G01X10787Y8661D02*
G01X10787Y8110D01*
G54D36*
G01X10787Y7440D03*
G54D41*
G01X10787Y6929D02*
G01X10787Y7440D01*
G01X18366Y6496D02*
G01X18937Y6496D01*
G01X18937Y6496D02*
G01X19133Y6299D01*
G01X19133Y6299D02*
G01X19133Y6220D01*
G01X19133Y6220D02*
G01X19212Y6299D01*
G01X20669Y7952D02*
G01X20629Y7952D01*
G54D36*
G01X20629Y7401D03*
G54D41*
G01X20629Y7952D02*
G01X20629Y7401D01*
G01X24960Y4173D02*
G01X24881Y4173D01*
G01X24881Y4173D02*
G01X24881Y4330D01*
G01X24881Y4330D02*
G01X24566Y4645D01*
G01X24566Y4645D02*
G01X24566Y5039D01*
G54D36*
G01X19212Y5748D03*
G54D41*
G01X19212Y6299D02*
G01X19212Y5748D01*
G01X15708Y4330D02*
G01X15826Y4409D01*
G01X15826Y4409D02*
G01X15826Y5334D01*
G01X28503Y9645D02*
G01X27598Y9645D01*
G54D36*
G01X28503Y9153D03*
G54D41*
G01X28503Y9645D02*
G01X28503Y9153D01*
G01X12952Y8425D02*
G01X12874Y8267D01*
G01X12874Y8267D02*
G01X13877Y8267D01*
G01X15905Y10708D02*
G01X15826Y10629D01*
G01X15826Y10629D02*
G01X15826Y9822D01*
G01X24960Y4173D02*
G01X24881Y4173D01*
G01X24881Y4173D02*
G01X24842Y4212D01*
G54D36*
G01X24488Y4212D03*
G54D41*
G01X24842Y4212D02*
G01X24488Y4212D01*
G01X20669Y7952D02*
G01X20629Y8031D01*
G01X20629Y8031D02*
G01X20669Y8070D01*
G01X20669Y8070D02*
G01X21535Y8070D01*
G01X10787Y6929D02*
G01X10748Y6889D01*
G01X10748Y6889D02*
G01X9881Y6889D01*
G54D36*
G01X12952Y8976D03*
G54D41*
G01X12952Y8425D02*
G01X12952Y8976D01*
G01X5787Y9842D02*
G01X5748Y10000D01*
G01X4527Y10354D02*
G01X4566Y10314D01*
G01X4566Y10314D02*
G01X4881Y10629D01*
G01X4881Y10629D02*
G01X4881Y10866D01*
G01X4881Y10866D02*
G01X5000Y10984D01*
G01X5000Y10984D02*
G01X5354Y10984D01*
G01X5787Y9842D02*
G01X5354Y9842D01*
G01X5354Y9842D02*
G01X4842Y10354D01*
G01X4842Y10354D02*
G01X4527Y10354D01*
G01X5787Y9842D02*
G01X5590Y10000D01*
G01X5590Y10000D02*
G01X5196Y10000D01*
G54D36*
G01X5039Y10157D03*
G54D41*
G01X5196Y10000D02*
G01X5039Y10157D01*
G01X7086Y11496D02*
G01X7952Y11496D01*
G01X7952Y11496D02*
G01X8267Y11181D01*
G01X8267Y11181D02*
G01X8267Y10393D01*
G01X8267Y10393D02*
G01X7165Y9291D01*
G01X7165Y9291D02*
G01X6220Y9291D01*
G01X6220Y9291D02*
G01X5787Y9724D01*
G01X5787Y9724D02*
G01X5787Y9842D01*
G01X24803Y12007D02*
G01X24763Y11889D01*
G01X24763Y11889D02*
G01X24763Y11102D01*
G01X33137Y6259D02*
G01X32637Y6259D01*
G01X33637Y6259D02*
G01X33137Y6259D01*
G01X33637Y9724D02*
G01X33622Y9055D01*
G54D36*
G01X33307Y8740D03*
G54D41*
G01X33622Y9055D02*
G01X33307Y8740D01*
G54D36*
G01X32637Y7007D03*
G54D41*
G01X32637Y6259D02*
G01X32637Y7007D01*
G01X33137Y9724D02*
G01X33637Y9724D01*
G01X33137Y9724D02*
G01X32637Y9724D01*
G54D36*
G01X24803Y12480D03*
G54D41*
G01X24803Y12007D02*
G01X24803Y12480D01*
G01X33484Y11171D02*
G01X33503Y11141D01*
G01X33503Y11141D02*
G01X33582Y11062D01*
G01X33582Y11062D02*
G01X33582Y9881D01*
G01X33582Y9881D02*
G01X33637Y9724D01*
G54D35*
G01X18366Y7480D02*
G01X18897Y7480D01*
G01X18897Y7480D02*
G01X19881Y8464D01*
G01X19881Y8464D02*
G01X21535Y8464D01*
G01X21535Y8464D02*
G01X21929Y8464D01*
G01X21929Y8464D02*
G01X22047Y8346D01*
G01X22047Y8346D02*
G01X22047Y8110D01*
G01X22047Y8110D02*
G01X22204Y7952D01*
G54D36*
G01X23149Y7952D03*
G54D35*
G01X22204Y7952D02*
G01X23149Y7952D01*
G54D36*
G01X7480Y7559D03*
G54D35*
G01X7480Y7559D02*
G01X7480Y7244D01*
G01X7480Y7244D02*
G01X7637Y7086D01*
G01X7637Y7086D02*
G01X9921Y7086D01*
G01X9921Y7086D02*
G01X9881Y7086D01*
G54D41*
G01X16417Y9822D02*
G01X16417Y9488D01*
G01X16417Y9488D02*
G01X16377Y9448D01*
G01X16377Y9448D02*
G01X16377Y7716D01*
G01X16377Y7716D02*
G01X16496Y7598D01*
G01X16496Y7598D02*
G01X16496Y7440D01*
G54D36*
G01X16850Y7086D03*
G54D41*
G01X16496Y7440D02*
G01X16850Y7086D01*
G01X33137Y4291D02*
G01X33149Y4685D01*
G54D36*
G01X32716Y5118D03*
G54D41*
G01X33149Y4685D02*
G01X32716Y5118D01*
G54D36*
G01X33149Y7007D03*
G54D41*
G01X33149Y7007D02*
G01X33137Y7019D01*
G01X33137Y7019D02*
G01X33137Y7755D01*
G54D42*
G01X25000Y3661D03*

G04 Draw clearances for text*

G04 -------------- Draw Parts, Pads, Traces, Vias and Text (positive)*
%LPD*%
G04 Draw part J0*
G54D46*
G01X501Y2283D03*
G01X1091Y2283D03*
G01X1681Y2283D03*
G01X2271Y2283D03*
G01X2861Y2283D03*
G01X3451Y2283D03*
G01X4041Y2283D03*
G01X4631Y2283D03*
G01X5221Y2283D03*
G01X5811Y2283D03*
G01X6401Y2283D03*
G01X6991Y2283D03*
G01X8761Y2283D03*
G01X9351Y2283D03*
G01X9941Y2283D03*
G01X10531Y2283D03*
G01X11121Y2283D03*
G01X11711Y2283D03*
G54D47*
G01X12301Y1973D03*
G54D46*
G01X12891Y2283D03*
G01X13481Y2283D03*
G01X14071Y2283D03*
G01X14661Y2283D03*
G01X15251Y2283D03*
G01X15841Y2283D03*
G01X16431Y2283D03*
G01X17021Y2283D03*
G01X17611Y2283D03*
G01X18201Y2283D03*
G01X18791Y2283D03*
G01X19381Y2283D03*
G01X19971Y2283D03*
G01X20561Y2283D03*
G01X21151Y2283D03*
G01X21741Y2283D03*
G54D47*
G01X22331Y1973D03*
G54D46*
G01X22921Y2283D03*
G01X23511Y2283D03*
G01X24101Y2283D03*
G01X24691Y2283D03*
G01X25281Y2283D03*
G01X25871Y2283D03*
G01X26461Y2283D03*
G01X27051Y2283D03*
G01X27641Y2283D03*
G01X28231Y2283D03*
G01X28821Y2283D03*
G01X29411Y2283D03*
G01X30001Y2283D03*
G01X30591Y2283D03*
G01X31181Y2283D03*
G01X31771Y2283D03*
G04 Draw part C1*
G54D48*
G01X24803Y12007D03*
G01X25472Y12007D03*
G04 Draw part C2*
G01X28503Y9645D03*
G01X29173Y9645D03*
G04 Draw part C3*
G01X28503Y8582D03*
G01X29173Y8582D03*
G04 Draw part C4*
G01X24960Y4173D03*
G01X25629Y4173D03*
G04 Draw part C5*
G01X20000Y7952D03*
G01X20669Y7952D03*
G04 Draw part C6*
G01X15905Y10708D03*
G01X16574Y10708D03*
G04 Draw part C7*
G01X19212Y6299D03*
G01X19881Y6299D03*
G04 Draw part C8*
G01X15039Y4330D03*
G01X15708Y4330D03*
G04 Draw part C9*
G01X12283Y8425D03*
G01X12952Y8425D03*
G04 Draw part C10*
G01X10787Y8661D03*
G01X11456Y8661D03*
G04 Draw part C11*
G01X10787Y6929D03*
G01X11456Y6929D03*
G04 Draw part U1*
G54D49*
G01X27598Y5708D03*
G01X27598Y5905D03*
G01X27598Y6102D03*
G01X27598Y6299D03*
G01X27598Y6496D03*
G01X27598Y6692D03*
G01X27598Y6889D03*
G01X27598Y7086D03*
G01X27598Y7283D03*
G01X27598Y7480D03*
G01X27598Y7677D03*
G01X27598Y7874D03*
G01X27598Y8070D03*
G01X27598Y8267D03*
G01X27598Y8464D03*
G01X27598Y8661D03*
G01X27598Y8858D03*
G01X27598Y9055D03*
G01X27598Y9251D03*
G01X27598Y9448D03*
G01X27598Y9645D03*
G01X27598Y9842D03*
G01X27598Y10039D03*
G01X27598Y10236D03*
G01X27598Y10433D03*
G54D50*
G01X26929Y11102D03*
G01X26732Y11102D03*
G01X26535Y11102D03*
G01X26338Y11102D03*
G01X26141Y11102D03*
G01X25944Y11102D03*
G01X25748Y11102D03*
G01X25551Y11102D03*
G01X25354Y11102D03*
G01X25157Y11102D03*
G01X24960Y11102D03*
G01X24763Y11102D03*
G01X24566Y11102D03*
G01X24370Y11102D03*
G01X24173Y11102D03*
G01X23976Y11102D03*
G01X23779Y11102D03*
G01X23582Y11102D03*
G01X23385Y11102D03*
G01X23188Y11102D03*
G01X22992Y11102D03*
G01X22795Y11102D03*
G01X22598Y11102D03*
G01X22401Y11102D03*
G01X22204Y11102D03*
G54D49*
G01X21535Y10433D03*
G01X21535Y10236D03*
G01X21535Y10039D03*
G01X21535Y9842D03*
G01X21535Y9645D03*
G01X21535Y9448D03*
G01X21535Y9251D03*
G01X21535Y9055D03*
G01X21535Y8858D03*
G01X21535Y8661D03*
G01X21535Y8464D03*
G01X21535Y8267D03*
G01X21535Y8070D03*
G01X21535Y7874D03*
G01X21535Y7677D03*
G01X21535Y7480D03*
G01X21535Y7283D03*
G01X21535Y7086D03*
G01X21535Y6889D03*
G01X21535Y6692D03*
G01X21535Y6496D03*
G01X21535Y6299D03*
G01X21535Y6102D03*
G01X21535Y5905D03*
G01X21535Y5708D03*
G54D50*
G01X22204Y5039D03*
G01X22401Y5039D03*
G01X22598Y5039D03*
G01X22795Y5039D03*
G01X22992Y5039D03*
G01X23188Y5039D03*
G01X23385Y5039D03*
G01X23582Y5039D03*
G01X23779Y5039D03*
G01X23976Y5039D03*
G01X24173Y5039D03*
G01X24370Y5039D03*
G01X24566Y5039D03*
G01X24763Y5039D03*
G01X24960Y5039D03*
G01X25157Y5039D03*
G01X25354Y5039D03*
G01X25551Y5039D03*
G01X25748Y5039D03*
G01X25944Y5039D03*
G01X26141Y5039D03*
G01X26338Y5039D03*
G01X26535Y5039D03*
G01X26732Y5039D03*
G01X26929Y5039D03*
G04 Draw part X1*
G54D51*
G01X30708Y8818D03*
G01X30708Y5472D03*
G04 Draw part C18*
G54D48*
G01X28503Y7322D03*
G01X29173Y7322D03*
G04 Draw part C19*
G01X28503Y6062D03*
G01X29173Y6062D03*
G04 Draw part R1*
G01X28503Y10787D03*
G01X29173Y10787D03*
G04 Draw part C12*
G01X3858Y10354D03*
G01X4527Y10354D03*
G04 Draw part C13*
G01X3858Y11417D03*
G01X4527Y11417D03*
G04 Draw part U2*
G54D49*
G01X18366Y6102D03*
G01X18366Y6299D03*
G01X18366Y6496D03*
G01X18366Y6692D03*
G01X18366Y6889D03*
G01X18366Y7086D03*
G01X18366Y7283D03*
G01X18366Y7480D03*
G01X18366Y7677D03*
G01X18366Y7874D03*
G01X18366Y8070D03*
G01X18366Y8267D03*
G01X18366Y8464D03*
G01X18366Y8661D03*
G01X18366Y8858D03*
G01X18366Y9055D03*
G54D50*
G01X17598Y9822D03*
G01X17401Y9822D03*
G01X17204Y9822D03*
G01X17007Y9822D03*
G01X16811Y9822D03*
G01X16614Y9822D03*
G01X16417Y9822D03*
G01X16220Y9822D03*
G01X16023Y9822D03*
G01X15826Y9822D03*
G01X15629Y9822D03*
G01X15433Y9822D03*
G01X15236Y9822D03*
G01X15039Y9822D03*
G01X14842Y9822D03*
G01X14645Y9822D03*
G54D49*
G01X13877Y9055D03*
G01X13877Y8858D03*
G01X13877Y8661D03*
G01X13877Y8464D03*
G01X13877Y8267D03*
G01X13877Y8070D03*
G01X13877Y7874D03*
G01X13877Y7677D03*
G01X13877Y7480D03*
G01X13877Y7283D03*
G01X13877Y7086D03*
G01X13877Y6889D03*
G01X13877Y6692D03*
G01X13877Y6496D03*
G01X13877Y6299D03*
G01X13877Y6102D03*
G54D50*
G01X14645Y5334D03*
G01X14842Y5334D03*
G01X15039Y5334D03*
G01X15236Y5334D03*
G01X15433Y5334D03*
G01X15629Y5334D03*
G01X15826Y5334D03*
G01X16023Y5334D03*
G01X16220Y5334D03*
G01X16417Y5334D03*
G01X16614Y5334D03*
G01X16811Y5334D03*
G01X17007Y5334D03*
G01X17204Y5334D03*
G01X17401Y5334D03*
G01X17598Y5334D03*
G04 Draw part U3*
G54D52*
G01X2047Y9055D03*
G01X2047Y8858D03*
G01X2047Y8661D03*
G01X2047Y8464D03*
G01X2047Y8267D03*
G01X2047Y8070D03*
G01X2047Y7874D03*
G01X2047Y7677D03*
G01X2047Y7480D03*
G01X2047Y7283D03*
G01X2047Y7086D03*
G01X2047Y6889D03*
G01X2047Y6692D03*
G01X2047Y6496D03*
G01X2047Y6299D03*
G01X2047Y6102D03*
G01X2047Y5905D03*
G01X2047Y5708D03*
G01X2047Y5511D03*
G01X2047Y5314D03*
G01X2047Y5118D03*
G01X2047Y4921D03*
G01X2047Y4724D03*
G01X2047Y4527D03*
G01X9881Y4527D03*
G01X9881Y4724D03*
G01X9881Y4921D03*
G01X9881Y5118D03*
G01X9881Y5314D03*
G01X9881Y5511D03*
G01X9881Y5708D03*
G01X9881Y5905D03*
G01X9881Y6102D03*
G01X9881Y6299D03*
G01X9881Y6496D03*
G01X9881Y6692D03*
G01X9881Y6889D03*
G01X9881Y7086D03*
G01X9881Y7283D03*
G01X9881Y7480D03*
G01X9881Y7677D03*
G01X9881Y7874D03*
G01X9881Y8070D03*
G01X9881Y8267D03*
G01X9881Y8464D03*
G01X9881Y8661D03*
G01X9881Y8858D03*
G01X9881Y9055D03*
G04 Draw part U4*
G54D53*
G01X5354Y11496D03*
G01X5354Y11240D03*
G01X5354Y10984D03*
G01X5354Y10728D03*
G01X7086Y10728D03*
G01X7086Y10984D03*
G01X7086Y11240D03*
G01X7086Y11496D03*
G54D54*
G01X6220Y11112D03*
G04 Draw part L1*
G54D55*
G01X8031Y12913D03*
G01X8031Y12165D03*
G04 Draw part J1*
G54D56*
G01X5118Y12598D03*
G54D57*
G01X4133Y12598D03*
G01X3346Y12598D03*
G01X2362Y12598D03*
G54D58*
G01X6326Y13665D03*
G01X1153Y13665D03*
G04 Draw part J2*
G54D56*
G01X29921Y12598D03*
G54D57*
G01X28937Y12598D03*
G01X28149Y12598D03*
G01X27165Y12598D03*
G54D58*
G01X31129Y13665D03*
G01X25956Y13665D03*
G04 Draw part J3*
G54D59*
G01X16771Y12303D03*
G01X16456Y12303D03*
G01X16141Y12303D03*
G01X15826Y12303D03*
G01X15511Y12303D03*
G54D60*
G01X18080Y13090D03*
G01X14202Y13090D03*
G04 Draw part J4*
G54D61*
G01X24330Y13385D03*
G01X23330Y13385D03*
G01X22330Y13385D03*
G01X21330Y13385D03*
G01X20330Y13385D03*
G01X19330Y13385D03*
G04 Draw part C17*
G54D62*
G01X9507Y12125D03*
G01X11437Y12125D03*
G04 Draw part M1*
G54D63*
G01X1181Y11338D03*
G04 Draw part M2*
G01X31102Y11338D03*
G04 Draw part C16*
G54D64*
G01X22480Y4094D03*
G01X23503Y4094D03*
G04 Draw part C15*
G01X5787Y9842D03*
G01X6811Y9842D03*
G04 Draw part C20*
G54D55*
G01X12755Y13464D03*
G01X12755Y12716D03*
G04 Draw part R2*
G54D65*
G01X2362Y10708D03*
G01X2362Y11377D03*
G04 Draw part C14*
G54D55*
G01X1023Y5984D03*
G01X1023Y6732D03*
G04 Draw part TP1*
G54D66*
G01X2913Y10000D03*
G04 Draw part U5*
G54D67*
G01X32637Y4291D03*
G01X33137Y4291D03*
G01X33637Y4291D03*
G01X34137Y4291D03*
G01X34137Y6259D03*
G01X33637Y6259D03*
G01X33137Y6259D03*
G01X32637Y6259D03*
G04 Draw part U6*
G01X32637Y7755D03*
G01X33137Y7755D03*
G01X33637Y7755D03*
G01X34137Y7755D03*
G01X34137Y9724D03*
G01X33637Y9724D03*
G01X33137Y9724D03*
G01X32637Y9724D03*
G04 Draw part U7*
G54D68*
G01X33484Y11171D03*
G01X33287Y11171D03*
G01X33090Y11171D03*
G01X32893Y11171D03*
G54D69*
G01X33484Y11653D03*
G54D68*
G01X33287Y11663D03*
G01X33090Y11663D03*
G01X32893Y11663D03*

G04 Draw traces*
G54D70*
G01X2047Y6299D02*
G01X1968Y6299D01*
G01X1968Y6299D02*
G01X2440Y6299D01*
G01X2440Y6299D02*
G01X4330Y4409D01*
G01X4330Y4409D02*
G01X6141Y4409D01*
G01X6141Y4409D02*
G01X6456Y4094D01*
G01X6456Y4094D02*
G01X6456Y2834D01*
G01X6456Y2834D02*
G01X6401Y2283D01*
G01X17007Y5334D02*
G01X17007Y4960D01*
G01X17007Y4960D02*
G01X17007Y5039D01*
G01X17007Y5039D02*
G01X17007Y4881D01*
G01X17007Y4881D02*
G01X17716Y4173D01*
G01X17716Y4173D02*
G01X19055Y4173D01*
G01X19055Y4173D02*
G01X19921Y3307D01*
G01X19921Y3307D02*
G01X19971Y2283D01*
G01X16417Y5334D02*
G01X16417Y4763D01*
G01X16417Y4763D02*
G01X17480Y3700D01*
G01X17480Y3700D02*
G01X18110Y3700D01*
G01X18110Y3700D02*
G01X18201Y3609D01*
G01X18201Y3609D02*
G01X18201Y2283D01*
G01X18366Y7677D02*
G01X18858Y7677D01*
G01X18858Y7677D02*
G01X19842Y8661D01*
G01X19842Y8661D02*
G01X21574Y8661D01*
G01X21574Y8661D02*
G01X21535Y8661D01*
G01X21535Y8661D02*
G01X21496Y8661D01*
G01X21496Y8661D02*
G01X21968Y8661D01*
G01X21968Y8661D02*
G01X22362Y8267D01*
G01X22362Y8267D02*
G01X22440Y8267D01*
G01X22440Y8267D02*
G01X22362Y8267D01*
G01X22362Y8267D02*
G01X22440Y8267D01*
G54D71*
G01X22440Y8267D03*
G01X7165Y8346D03*
G54D70*
G01X7165Y8346D02*
G01X7165Y7244D01*
G01X7165Y7244D02*
G01X7716Y6692D01*
G01X7716Y6692D02*
G01X9921Y6692D01*
G01X9921Y6692D02*
G01X9881Y6692D01*
G01X9881Y8267D02*
G01X8740Y8267D01*
G01X8740Y8267D02*
G01X8582Y8425D01*
G01X8582Y8425D02*
G01X8582Y9212D01*
G01X8582Y9212D02*
G01X8818Y9448D01*
G01X8818Y9448D02*
G01X13385Y9448D01*
G01X13385Y9448D02*
G01X13464Y9370D01*
G01X13464Y9370D02*
G01X13464Y8897D01*
G01X13464Y8897D02*
G01X13503Y8858D01*
G01X13503Y8858D02*
G01X13877Y8858D01*
G01X25157Y5039D02*
G01X25157Y5551D01*
G01X25157Y5551D02*
G01X24960Y5748D01*
G01X24960Y5748D02*
G01X24960Y6929D01*
G54D71*
G01X24960Y6929D03*
G01X8582Y8976D03*
G54D70*
G01X8582Y8976D02*
G01X8582Y8425D01*
G01X8582Y8425D02*
G01X8740Y8267D01*
G01X8740Y8267D02*
G01X9881Y8267D01*
G01X9881Y5708D02*
G01X12007Y5708D01*
G01X12007Y5708D02*
G01X12125Y5826D01*
G01X12125Y5826D02*
G01X12125Y7874D01*
G01X12125Y7874D02*
G01X12283Y8031D01*
G01X12283Y8031D02*
G01X13307Y8031D01*
G01X13307Y8031D02*
G01X13346Y8070D01*
G01X13346Y8070D02*
G01X13877Y8070D01*
G01X24960Y5039D02*
G01X24960Y5433D01*
G01X24960Y5433D02*
G01X24645Y5748D01*
G01X24645Y5748D02*
G01X24645Y5984D01*
G54D71*
G01X24645Y5984D03*
G01X12204Y7322D03*
G54D70*
G01X12204Y7322D02*
G01X12125Y7322D01*
G01X12125Y7322D02*
G01X12125Y7874D01*
G01X12125Y7874D02*
G01X12283Y8031D01*
G01X12283Y8031D02*
G01X13307Y8031D01*
G01X13307Y8031D02*
G01X13346Y8070D01*
G01X13346Y8070D02*
G01X13877Y8070D01*
G01X9881Y9055D02*
G01X11811Y9055D01*
G01X11811Y9055D02*
G01X11889Y8976D01*
G01X11889Y8976D02*
G01X11889Y6141D01*
G01X11889Y6141D02*
G01X11811Y6062D01*
G01X11811Y6062D02*
G01X10787Y6062D01*
G54D71*
G01X10787Y6062D03*
G01X7795Y4409D03*
G54D70*
G01X7795Y4409D02*
G01X8031Y4409D01*
G01X8031Y4409D02*
G01X8761Y3679D01*
G01X8761Y3679D02*
G01X8761Y2283D01*
G01X17204Y5334D02*
G01X17204Y4921D01*
G01X17204Y4921D02*
G01X17795Y4330D01*
G01X17795Y4330D02*
G01X19133Y4330D01*
G01X19133Y4330D02*
G01X19842Y3622D01*
G01X19842Y3622D02*
G01X20472Y3622D01*
G01X20472Y3622D02*
G01X20561Y3532D01*
G01X20561Y3532D02*
G01X20561Y2283D01*
G01X16220Y5334D02*
G01X16220Y4724D01*
G01X16220Y4724D02*
G01X17637Y3307D01*
G01X17637Y3307D02*
G01X17611Y2283D01*
G54D72*
G01X1023Y6732D02*
G01X1023Y6771D01*
G01X1023Y6771D02*
G01X944Y6850D01*
G01X944Y6850D02*
G01X944Y7322D01*
G54D71*
G01X944Y7322D03*
G54D73*
G01X1023Y6732D02*
G01X1023Y6692D01*
G01X1023Y6692D02*
G01X2047Y6692D01*
G54D70*
G01X22480Y4094D02*
G01X22283Y4015D01*
G54D74*
G01X22283Y4015D02*
G01X22331Y3967D01*
G01X22331Y3967D02*
G01X22331Y1973D01*
G54D70*
G01X22480Y4094D02*
G01X22598Y4094D01*
G54D71*
G01X22598Y4094D02*
G01X22125Y4094D01*
G01X22125Y4094D02*
G01X21811Y3779D01*
G01X21811Y3779D03*
G01X4527Y10905D03*
G01X4527Y10905D02*
G01X4527Y11377D01*
G54D70*
G01X4527Y11377D02*
G01X4527Y11417D01*
G54D75*
G01X5354Y11240D02*
G01X4468Y11240D01*
G54D70*
G01X4468Y11240D02*
G01X4448Y11259D01*
G01X4448Y11259D02*
G01X4527Y11417D01*
G01X18366Y7874D02*
G01X18818Y7874D01*
G01X18818Y7874D02*
G01X19803Y8858D01*
G01X19803Y8858D02*
G01X21535Y8858D01*
G01X21535Y8858D02*
G01X22007Y8858D01*
G01X22007Y8858D02*
G01X22283Y8582D01*
G01X22283Y8582D02*
G01X22519Y8582D01*
G01X22519Y8582D02*
G01X22440Y8582D01*
G01X22440Y8582D02*
G01X23149Y8582D01*
G54D71*
G01X23149Y8582D03*
G01X6850Y7559D03*
G54D70*
G01X6850Y7559D02*
G01X6850Y7244D01*
G01X6850Y7244D02*
G01X7598Y6496D01*
G01X7598Y6496D02*
G01X9881Y6496D01*
G54D76*
G01X33484Y11653D02*
G01X33503Y11692D01*
G01X33503Y11692D02*
G01X33484Y11712D01*
G01X33484Y11712D02*
G01X33582Y11850D01*
G01X33582Y11850D02*
G01X33582Y12401D01*
G01X33582Y12401D02*
G01X33228Y12755D01*
G01X33228Y12755D02*
G01X32519Y12755D01*
G01X32519Y12755D02*
G01X32165Y12401D01*
G01X32165Y12401D02*
G01X32165Y11259D01*
G01X32165Y11259D02*
G01X31417Y10511D01*
G01X31417Y10511D02*
G01X30748Y10511D01*
G01X30748Y10511D02*
G01X30354Y10905D01*
G01X30354Y10905D02*
G01X30354Y11141D01*
G01X30354Y11141D02*
G01X30275Y11220D01*
G01X30275Y11220D02*
G01X30275Y11692D01*
G01X30275Y11692D02*
G01X30118Y11850D01*
G01X30118Y11850D02*
G01X27834Y11850D01*
G01X27834Y11850D02*
G01X27716Y11968D01*
G54D71*
G01X27716Y11968D03*
G01X23503Y12834D03*
G54D76*
G01X23503Y12834D02*
G01X23188Y12519D01*
G01X23188Y12519D02*
G01X23188Y11062D01*
G01X23188Y11062D02*
G01X23188Y11102D01*
G54D70*
G01X18366Y9055D02*
G01X18425Y9055D01*
G01X18425Y9055D02*
G01X19015Y9645D01*
G01X19015Y9645D02*
G01X21535Y9645D01*
G01X2047Y9055D02*
G01X3070Y9055D01*
G01X3070Y9055D02*
G01X3937Y8188D01*
G01X3937Y8188D02*
G01X3937Y6692D01*
G01X3937Y6692D02*
G01X5748Y4881D01*
G01X5748Y4881D02*
G01X8031Y4881D01*
G01X8031Y4881D02*
G01X9291Y3622D01*
G01X9291Y3622D02*
G01X9842Y3622D01*
G01X9842Y3622D02*
G01X9941Y3522D01*
G01X9941Y3522D02*
G01X9941Y2283D01*
G01X17401Y5334D02*
G01X17401Y4960D01*
G01X17401Y4960D02*
G01X17874Y4488D01*
G01X17874Y4488D02*
G01X19212Y4488D01*
G01X19212Y4488D02*
G01X19921Y3779D01*
G01X19921Y3779D02*
G01X20944Y3779D01*
G01X20944Y3779D02*
G01X21151Y3572D01*
G01X21151Y3572D02*
G01X21151Y2283D01*
G01X15039Y5334D02*
G01X15039Y5748D01*
G01X15039Y5748D02*
G01X14960Y5826D01*
G01X14960Y5826D02*
G01X14488Y5826D01*
G01X14488Y5826D02*
G01X13937Y5275D01*
G01X13937Y5275D02*
G01X13937Y4173D01*
G01X13937Y4173D02*
G01X14488Y3622D01*
G01X14488Y3622D02*
G01X15196Y3622D01*
G01X15196Y3622D02*
G01X15251Y3567D01*
G01X15251Y3567D02*
G01X15251Y2283D01*
G01X18366Y8070D02*
G01X18779Y8070D01*
G01X18779Y8070D02*
G01X19763Y9055D01*
G01X19763Y9055D02*
G01X21535Y9055D01*
G01X21535Y9055D02*
G01X22125Y9055D01*
G01X22125Y9055D02*
G01X22283Y8897D01*
G01X22283Y8897D02*
G01X22440Y8897D01*
G54D71*
G01X22440Y8897D03*
G01X6535Y8346D03*
G54D70*
G01X6535Y8346D02*
G01X6535Y7244D01*
G01X6535Y7244D02*
G01X7480Y6299D01*
G01X7480Y6299D02*
G01X9921Y6299D01*
G01X9921Y6299D02*
G01X9881Y6299D01*
G01X9881Y4527D02*
G01X10354Y4527D01*
G01X10354Y4527D02*
G01X10472Y4566D01*
G54D71*
G01X10472Y4566D03*
G54D70*
G01X9881Y8464D02*
G01X9015Y8464D01*
G01X9015Y8464D02*
G01X8897Y8582D01*
G01X8897Y8582D02*
G01X8897Y9212D01*
G01X8897Y9212D02*
G01X8976Y9291D01*
G01X8976Y9291D02*
G01X13228Y9291D01*
G01X13228Y9291D02*
G01X13307Y9212D01*
G01X13307Y9212D02*
G01X13307Y8818D01*
G01X13307Y8818D02*
G01X13464Y8661D01*
G01X13464Y8661D02*
G01X13877Y8661D01*
G01X24763Y5039D02*
G01X24763Y5393D01*
G01X24763Y5393D02*
G01X24330Y5826D01*
G01X24330Y5826D02*
G01X24330Y6929D01*
G54D71*
G01X24330Y6929D03*
G01X8897Y8582D03*
G54D70*
G01X8897Y8582D02*
G01X9015Y8464D01*
G01X9015Y8464D02*
G01X9881Y8464D01*
G01X2047Y7283D02*
G01X1692Y7283D01*
G01X1692Y7283D02*
G01X1614Y7362D01*
G01X1614Y7362D02*
G01X1614Y8110D01*
G01X1614Y8110D02*
G01X1456Y8267D01*
G01X1456Y8267D02*
G01X1456Y9251D01*
G01X1456Y9251D02*
G01X1653Y9448D01*
G01X1653Y9448D02*
G01X3149Y9448D01*
G01X3149Y9448D02*
G01X4251Y8346D01*
G01X4251Y8346D02*
G01X4251Y6850D01*
G01X4251Y6850D02*
G01X5905Y5196D01*
G01X5905Y5196D02*
G01X8188Y5196D01*
G01X8188Y5196D02*
G01X9448Y3937D01*
G01X9448Y3937D02*
G01X10787Y3937D01*
G01X10787Y3937D02*
G01X11121Y3602D01*
G01X11121Y3602D02*
G01X11121Y2283D01*
G01X2047Y8267D02*
G01X2086Y8267D01*
G01X2086Y8267D02*
G01X1692Y8267D01*
G01X1692Y8267D02*
G01X1614Y8346D01*
G01X1614Y8346D02*
G01X1614Y9173D01*
G01X1614Y9173D02*
G01X1732Y9291D01*
G01X1732Y9291D02*
G01X3070Y9291D01*
G01X3070Y9291D02*
G01X4094Y8267D01*
G01X4094Y8267D02*
G01X4094Y6771D01*
G01X4094Y6771D02*
G01X5826Y5039D01*
G01X5826Y5039D02*
G01X8110Y5039D01*
G01X8110Y5039D02*
G01X9370Y3779D01*
G01X9370Y3779D02*
G01X10314Y3779D01*
G01X10314Y3779D02*
G01X10531Y3562D01*
G01X10531Y3562D02*
G01X10531Y2283D01*
G01X16614Y5334D02*
G01X16614Y4803D01*
G01X16614Y4803D02*
G01X17559Y3858D01*
G01X17559Y3858D02*
G01X18503Y3858D01*
G01X18503Y3858D02*
G01X18791Y3570D01*
G01X18791Y3570D02*
G01X18791Y2283D01*
G01X13877Y6496D02*
G01X13425Y6496D01*
G01X13425Y6496D02*
G01X13228Y6299D01*
G01X13228Y6299D02*
G01X13228Y4409D01*
G01X13228Y4409D02*
G01X12891Y4033D01*
G01X12891Y4033D02*
G01X12891Y2283D01*
G01X13877Y6692D02*
G01X13385Y6692D01*
G01X13385Y6692D02*
G01X13070Y6377D01*
G01X13070Y6377D02*
G01X13070Y5314D01*
G01X13070Y5314D02*
G01X12401Y4645D01*
G01X12401Y4645D02*
G01X11850Y4645D01*
G01X11850Y4645D02*
G01X11711Y4506D01*
G01X11711Y4506D02*
G01X11711Y2283D01*
G01X27598Y7677D02*
G01X27204Y7677D01*
G01X27204Y7677D02*
G01X26929Y7952D01*
G54D71*
G01X26929Y7952D03*
G01X17244Y12362D03*
G54D70*
G01X17244Y12362D02*
G01X17086Y12362D01*
G01X17086Y12362D02*
G01X16771Y12677D01*
G01X16771Y12677D02*
G01X16771Y12303D01*
G54D71*
G01X8031Y12913D02*
G01X7401Y12913D01*
G01X7401Y12913D03*
G54D70*
G01X9881Y7283D02*
G01X8307Y7283D01*
G01X8307Y7283D02*
G01X7480Y8110D01*
G01X7480Y8110D02*
G01X7480Y9291D01*
G01X7480Y9291D02*
G01X8425Y10236D01*
G01X8425Y10236D02*
G01X14803Y10236D01*
G01X14803Y10236D02*
G01X14842Y10196D01*
G01X14842Y10196D02*
G01X14842Y9822D01*
G01X24370Y5039D02*
G01X24370Y5551D01*
G01X24370Y5551D02*
G01X24015Y5905D01*
G01X24015Y5905D02*
G01X24015Y9527D01*
G01X24015Y9527D02*
G01X23385Y10157D01*
G01X23385Y10157D02*
G01X22598Y10157D01*
G01X22598Y10157D02*
G01X21496Y11259D01*
G01X21496Y11259D02*
G01X20866Y11259D01*
G01X20866Y11259D02*
G01X19960Y10354D01*
G01X19960Y10354D02*
G01X18661Y10354D01*
G01X18661Y10354D02*
G01X17165Y8858D01*
G01X17165Y8858D02*
G01X17165Y6929D01*
G01X17165Y6929D02*
G01X17007Y6771D01*
G01X17007Y6771D02*
G01X15984Y6771D01*
G01X15984Y6771D02*
G01X15433Y7322D01*
G01X15433Y7322D02*
G01X15433Y8818D01*
G01X15433Y8818D02*
G01X14842Y9409D01*
G01X14842Y9409D02*
G01X14842Y9822D01*
G01X18366Y8267D02*
G01X18740Y8267D01*
G01X18740Y8267D02*
G01X19724Y9251D01*
G01X19724Y9251D02*
G01X21535Y9251D01*
G01X21535Y9251D02*
G01X22165Y9251D01*
G01X22165Y9251D02*
G01X22204Y9212D01*
G01X22204Y9212D02*
G01X23149Y9212D01*
G54D71*
G01X23149Y9212D03*
G01X6220Y7559D03*
G54D70*
G01X6220Y7559D02*
G01X6220Y7244D01*
G01X6220Y7244D02*
G01X7362Y6102D01*
G01X7362Y6102D02*
G01X9881Y6102D01*
G01X2047Y8070D02*
G01X3110Y8070D01*
G01X3110Y8070D02*
G01X3307Y7874D01*
G01X3307Y7874D02*
G01X3307Y5905D01*
G01X3307Y5905D02*
G01X4488Y4724D01*
G01X4488Y4724D02*
G01X7952Y4724D01*
G01X7952Y4724D02*
G01X9351Y3325D01*
G01X9351Y3325D02*
G01X9351Y2283D01*
G01X14842Y5334D02*
G01X14842Y4921D01*
G01X14842Y4921D02*
G01X14803Y4881D01*
G01X14803Y4881D02*
G01X14488Y4881D01*
G01X14488Y4881D02*
G01X14251Y4645D01*
G01X14251Y4645D02*
G01X14251Y4330D01*
G01X14251Y4330D02*
G01X14645Y3937D01*
G01X14645Y3937D02*
G01X15511Y3937D01*
G01X15511Y3937D02*
G01X15748Y3700D01*
G01X15748Y3700D02*
G01X16299Y3700D01*
G01X16299Y3700D02*
G01X16431Y3568D01*
G01X16431Y3568D02*
G01X16431Y2283D01*
G01X21535Y6102D02*
G01X20826Y6102D01*
G01X20826Y6102D02*
G01X20629Y5905D01*
G01X20629Y5905D02*
G01X20629Y5433D01*
G01X20629Y5433D02*
G01X21181Y4881D01*
G01X21181Y4881D02*
G01X21181Y4566D01*
G01X21181Y4566D02*
G01X21023Y4409D01*
G01X21023Y4409D02*
G01X20236Y4409D01*
G01X20236Y4409D02*
G01X19527Y5118D01*
G01X19527Y5118D02*
G01X18818Y5118D01*
G01X18818Y5118D02*
G01X17795Y6141D01*
G01X17795Y6141D02*
G01X15433Y6141D01*
G01X15433Y6141D02*
G01X15118Y6456D01*
G54D71*
G01X15118Y6456D03*
G54D70*
G01X21535Y9842D02*
G01X23228Y9842D01*
G01X23228Y9842D02*
G01X23700Y9370D01*
G01X23700Y9370D02*
G01X23700Y7322D01*
G01X23700Y7322D02*
G01X21496Y5118D01*
G01X21496Y5118D02*
G01X21496Y4724D01*
G54D71*
G01X21496Y4724D03*
G54D70*
G01X9881Y7480D02*
G01X9921Y7480D01*
G01X9921Y7480D02*
G01X8346Y7480D01*
G01X8346Y7480D02*
G01X7637Y8188D01*
G01X7637Y8188D02*
G01X7637Y9212D01*
G01X7637Y9212D02*
G01X8503Y10078D01*
G01X8503Y10078D02*
G01X14488Y10078D01*
G01X14488Y10078D02*
G01X14645Y9921D01*
G01X14645Y9921D02*
G01X14645Y9822D01*
G01X24173Y5039D02*
G01X24173Y5511D01*
G01X24173Y5511D02*
G01X23858Y5826D01*
G01X23858Y5826D02*
G01X23858Y9448D01*
G01X23858Y9448D02*
G01X23307Y10000D01*
G01X23307Y10000D02*
G01X22519Y10000D01*
G01X22519Y10000D02*
G01X21417Y11102D01*
G01X21417Y11102D02*
G01X20944Y11102D01*
G01X20944Y11102D02*
G01X20039Y10196D01*
G01X20039Y10196D02*
G01X18740Y10196D01*
G01X18740Y10196D02*
G01X17322Y8779D01*
G01X17322Y8779D02*
G01X17322Y6850D01*
G01X17322Y6850D02*
G01X17086Y6614D01*
G01X17086Y6614D02*
G01X15905Y6614D01*
G01X15905Y6614D02*
G01X15275Y7244D01*
G01X15275Y7244D02*
G01X15275Y8740D01*
G01X15275Y8740D02*
G01X14645Y9370D01*
G01X14645Y9370D02*
G01X14645Y9822D01*
G01X18366Y8858D02*
G01X17992Y8858D01*
G01X17992Y8858D02*
G01X17952Y8897D01*
G01X17952Y8897D02*
G01X17952Y9173D01*
G01X17952Y9173D02*
G01X18818Y10039D01*
G01X18818Y10039D02*
G01X21535Y10039D01*
G01X21535Y10039D02*
G01X20669Y10039D01*
G01X20669Y10039D02*
G01X20629Y10078D01*
G01X20629Y10078D02*
G01X20629Y10157D01*
G01X20629Y10157D02*
G01X20708Y10236D01*
G01X20708Y10236D02*
G01X21535Y10236D01*
G01X18366Y8464D02*
G01X18700Y8464D01*
G01X18700Y8464D02*
G01X19685Y9448D01*
G01X19685Y9448D02*
G01X21535Y9448D01*
G01X9881Y5905D02*
G01X7244Y5905D01*
G01X7244Y5905D02*
G01X5905Y7244D01*
G01X5905Y7244D02*
G01X5905Y8346D01*
G54D71*
G01X5905Y8346D03*
G01X22440Y9527D03*
G54D70*
G01X22440Y9527D02*
G01X22440Y9448D01*
G01X22440Y9448D02*
G01X21496Y9448D01*
G01X21496Y9448D02*
G01X21535Y9448D01*
G01X2047Y8858D02*
G01X3031Y8858D01*
G01X3031Y8858D02*
G01X3779Y8110D01*
G01X3779Y8110D02*
G01X3779Y6614D01*
G01X3779Y6614D02*
G01X4566Y5826D01*
G01X4566Y5826D02*
G01X4566Y5118D01*
G54D71*
G01X4566Y5118D03*
G54D70*
G01X23385Y11102D02*
G01X23385Y11023D01*
G01X23385Y11023D02*
G01X23385Y12244D01*
G01X23385Y12244D02*
G01X23897Y12755D01*
G01X23897Y12755D02*
G01X23897Y13188D01*
G01X23897Y13188D02*
G01X23543Y13543D01*
G01X23543Y13543D02*
G01X23307Y13149D01*
G01X23307Y13149D02*
G01X23330Y13173D01*
G01X23330Y13173D02*
G01X23330Y13385D01*
G01X23330Y13385D02*
G01X21850Y11889D01*
G01X21850Y11889D02*
G01X19370Y11889D01*
G01X19370Y11889D02*
G01X18740Y11259D01*
G01X18740Y11259D02*
G01X15433Y11259D01*
G01X15433Y11259D02*
G01X15118Y10944D01*
G01X15118Y10944D02*
G01X15118Y10629D01*
G01X15118Y10629D02*
G01X15433Y10314D01*
G01X15433Y10314D02*
G01X15433Y9822D01*
G01X17007Y9822D02*
G01X17007Y10236D01*
G01X17007Y10236D02*
G01X17874Y11102D01*
G01X17874Y11102D02*
G01X18818Y11102D01*
G01X18818Y11102D02*
G01X19448Y11732D01*
G01X19448Y11732D02*
G01X22598Y11732D01*
G01X22598Y11732D02*
G01X22795Y11535D01*
G01X22795Y11535D02*
G01X22795Y11102D01*
G01X24173Y11102D02*
G01X24173Y11181D01*
G01X24173Y11181D02*
G01X24173Y10708D01*
G01X24173Y10708D02*
G01X24094Y10629D01*
G01X24094Y10629D02*
G01X22913Y10629D01*
G01X22913Y10629D02*
G01X22795Y10748D01*
G01X22795Y10748D02*
G01X22795Y11102D01*
G54D76*
G01X32893Y11171D02*
G01X32874Y11062D01*
G01X32874Y11062D02*
G01X32874Y10984D01*
G01X32874Y10984D02*
G01X32559Y10629D01*
G54D71*
G01X32559Y10629D03*
G01X31644Y10126D03*
G54D76*
G01X31644Y10126D02*
G01X31417Y10354D01*
G01X31417Y10354D02*
G01X30669Y10354D01*
G01X30669Y10354D02*
G01X30196Y10826D01*
G01X30196Y10826D02*
G01X30196Y11062D01*
G01X30196Y11062D02*
G01X30078Y11181D01*
G01X30078Y11181D02*
G01X30078Y11574D01*
G01X30078Y11574D02*
G01X30000Y11653D01*
G01X30000Y11653D02*
G01X27559Y11653D01*
G01X27559Y11653D02*
G01X27401Y11811D01*
G01X27401Y11811D02*
G01X26889Y11811D01*
G01X26889Y11811D02*
G01X26811Y11889D01*
G01X26811Y11889D02*
G01X26535Y11889D01*
G54D71*
G01X26535Y11889D03*
G01X24094Y12244D03*
G54D76*
G01X24094Y12244D02*
G01X23779Y11929D01*
G01X23779Y11929D02*
G01X23779Y11102D01*
G54D77*
G01X25551Y3661D03*
G54D71*
G01X31653Y4370D03*
G01X33070Y10669D03*
G54D76*
G01X33070Y10669D02*
G01X33090Y10688D01*
G01X33090Y10688D02*
G01X33090Y11171D01*
G01X33287Y11663D02*
G01X33287Y11870D01*
G01X33287Y11870D02*
G01X33425Y12078D01*
G01X33425Y12078D02*
G01X33425Y12322D01*
G01X33425Y12322D02*
G01X33149Y12598D01*
G01X33149Y12598D02*
G01X32598Y12598D01*
G01X32598Y12598D02*
G01X32322Y12322D01*
G01X32322Y12322D02*
G01X32322Y11141D01*
G01X32322Y11141D02*
G01X32007Y10826D01*
G01X32007Y10826D02*
G01X32007Y8110D01*
G01X32007Y8110D02*
G01X31889Y7992D01*
G01X31889Y7992D02*
G01X31889Y5629D01*
G01X31889Y5629D02*
G01X31653Y5393D01*
G01X31653Y5393D02*
G01X31653Y4370D01*
G54D70*
G01X2047Y7874D02*
G01X3070Y7874D01*
G01X3070Y7874D02*
G01X3149Y7795D01*
G01X3149Y7795D02*
G01X3149Y5826D01*
G01X3149Y5826D02*
G01X4409Y4566D01*
G01X4409Y4566D02*
G01X6377Y4566D01*
G01X6377Y4566D02*
G01X6991Y3953D01*
G01X6991Y3953D02*
G01X6991Y2283D01*
G01X13877Y6889D02*
G01X13346Y6889D01*
G01X13346Y6889D02*
G01X12913Y6456D01*
G01X12913Y6456D02*
G01X12913Y5393D01*
G01X12913Y5393D02*
G01X12322Y4803D01*
G01X12322Y4803D02*
G01X11417Y4803D01*
G01X11417Y4803D02*
G01X10708Y4094D01*
G01X10708Y4094D02*
G01X9527Y4094D01*
G01X9527Y4094D02*
G01X8267Y5354D01*
G01X8267Y5354D02*
G01X5984Y5354D01*
G01X5984Y5354D02*
G01X4409Y6929D01*
G01X4409Y6929D02*
G01X4409Y8425D01*
G01X4409Y8425D02*
G01X3228Y9606D01*
G01X3228Y9606D02*
G01X1574Y9606D01*
G01X1574Y9606D02*
G01X1299Y9330D01*
G01X1299Y9330D02*
G01X1299Y8188D01*
G01X1299Y8188D02*
G01X1456Y8031D01*
G01X1456Y8031D02*
G01X1456Y7283D01*
G01X1456Y7283D02*
G01X1653Y7086D01*
G01X1653Y7086D02*
G01X2244Y7086D01*
G01X2244Y7086D02*
G01X2047Y7086D01*
G01X13877Y6102D02*
G01X13661Y6102D01*
G01X13661Y6102D02*
G01X13543Y5984D01*
G01X13543Y5984D02*
G01X13543Y4094D01*
G01X13543Y4094D02*
G01X14071Y3566D01*
G01X14071Y3566D02*
G01X14071Y2283D01*
G01X2047Y7480D02*
G01X2362Y7480D01*
G01X2362Y7480D02*
G01X2519Y7322D01*
G01X2519Y7322D02*
G01X2519Y7086D01*
G01X2519Y7086D02*
G01X2834Y6771D01*
G54D71*
G01X2834Y6771D03*
G01X16850Y9212D03*
G54D70*
G01X16850Y9212D02*
G01X17244Y9212D01*
G01X17244Y9212D02*
G01X17401Y9370D01*
G01X17401Y9370D02*
G01X17401Y9822D01*
G01X17401Y9822D02*
G01X17401Y10157D01*
G01X17401Y10157D02*
G01X18031Y10787D01*
G01X18031Y10787D02*
G01X18976Y10787D01*
G01X18976Y10787D02*
G01X19606Y11417D01*
G01X19606Y11417D02*
G01X22047Y11417D01*
G01X22047Y11417D02*
G01X22204Y11259D01*
G01X22204Y11259D02*
G01X22204Y11102D01*
G01X21535Y5905D02*
G01X21496Y5905D01*
G01X21496Y5905D02*
G01X21889Y5905D01*
G01X21889Y5905D02*
G01X22047Y6062D01*
G01X22047Y6062D02*
G01X22047Y7322D01*
G01X22047Y7322D02*
G01X21889Y7480D01*
G01X21889Y7480D02*
G01X21535Y7480D01*
G01X9881Y7874D02*
G01X8425Y7874D01*
G01X8425Y7874D02*
G01X7952Y8346D01*
G01X7952Y8346D02*
G01X7952Y9055D01*
G01X7952Y9055D02*
G01X8661Y9763D01*
G01X8661Y9763D02*
G01X13779Y9763D01*
G01X13779Y9763D02*
G01X14960Y8582D01*
G01X14960Y8582D02*
G01X14960Y7086D01*
G01X14960Y7086D02*
G01X15748Y6299D01*
G01X15748Y6299D02*
G01X17244Y6299D01*
G01X17244Y6299D02*
G01X17637Y6692D01*
G01X17637Y6692D02*
G01X18366Y6692D01*
G01X18366Y6692D02*
G01X20787Y6692D01*
G01X20787Y6692D02*
G01X21102Y7007D01*
G01X21102Y7007D02*
G01X21102Y7401D01*
G01X21102Y7401D02*
G01X21181Y7480D01*
G01X21181Y7480D02*
G01X21535Y7480D01*
G01X23582Y11102D02*
G01X23582Y12204D01*
G01X23582Y12204D02*
G01X24055Y12677D01*
G01X24055Y12677D02*
G01X24055Y12874D01*
G01X24055Y12874D02*
G01X24330Y13149D01*
G01X24330Y13149D02*
G01X24094Y13385D01*
G01X24094Y13385D02*
G01X24330Y13385D01*
G01X24330Y13385D02*
G01X23858Y13858D01*
G01X23858Y13858D02*
G01X23070Y13858D01*
G01X23070Y13858D02*
G01X22834Y13622D01*
G01X22834Y13622D02*
G01X22834Y13149D01*
G01X22834Y13149D02*
G01X21732Y12047D01*
G01X21732Y12047D02*
G01X19291Y12047D01*
G01X19291Y12047D02*
G01X18661Y11417D01*
G01X18661Y11417D02*
G01X15354Y11417D01*
G01X15354Y11417D02*
G01X14960Y11023D01*
G01X14960Y11023D02*
G01X14960Y10551D01*
G01X14960Y10551D02*
G01X15236Y10275D01*
G01X15236Y10275D02*
G01X15236Y9822D01*
G01X2047Y7677D02*
G01X2480Y7677D01*
G01X2480Y7677D02*
G01X2834Y7322D01*
G54D71*
G01X2834Y7322D03*
G01X5433Y4015D03*
G54D70*
G01X5433Y4015D02*
G01X5811Y3637D01*
G01X5811Y3637D02*
G01X5811Y2283D01*
G01X15236Y5334D02*
G01X15236Y5787D01*
G01X15236Y5787D02*
G01X15039Y5984D01*
G01X15039Y5984D02*
G01X14409Y5984D01*
G01X14409Y5984D02*
G01X13779Y5354D01*
G01X13779Y5354D02*
G01X13779Y4094D01*
G01X13779Y4094D02*
G01X14661Y3212D01*
G01X14661Y3212D02*
G01X14661Y2283D01*
G01X13877Y8464D02*
G01X14291Y8464D01*
G01X14291Y8464D02*
G01X14803Y7952D01*
G01X14803Y7952D02*
G01X14803Y6614D01*
G01X14803Y6614D02*
G01X14645Y6456D01*
G54D71*
G01X14645Y6456D03*
G54D70*
G01X18366Y6102D02*
G01X18543Y6102D01*
G01X18543Y6102D02*
G01X18661Y5984D01*
G01X18661Y5984D02*
G01X18661Y5511D01*
G01X18661Y5511D02*
G01X18897Y5275D01*
G01X18897Y5275D02*
G01X19763Y5275D01*
G01X19763Y5275D02*
G01X20314Y4724D01*
G01X20314Y4724D02*
G01X20393Y4724D01*
G54D71*
G01X20393Y4724D03*
G54D70*
G01X18366Y6889D02*
G01X20748Y6889D01*
G01X20748Y6889D02*
G01X20944Y7086D01*
G01X20944Y7086D02*
G01X20944Y7480D01*
G01X20944Y7480D02*
G01X21141Y7677D01*
G01X21141Y7677D02*
G01X21535Y7677D01*
G01X9881Y7677D02*
G01X8385Y7677D01*
G01X8385Y7677D02*
G01X7795Y8267D01*
G01X7795Y8267D02*
G01X7795Y9133D01*
G01X7795Y9133D02*
G01X8582Y9921D01*
G01X8582Y9921D02*
G01X13858Y9921D01*
G01X13858Y9921D02*
G01X15118Y8661D01*
G01X15118Y8661D02*
G01X15118Y7165D01*
G01X15118Y7165D02*
G01X15826Y6456D01*
G01X15826Y6456D02*
G01X17165Y6456D01*
G01X17165Y6456D02*
G01X17598Y6889D01*
G01X17598Y6889D02*
G01X18366Y6889D01*
G01X16614Y9822D02*
G01X16614Y9448D01*
G01X16614Y9448D02*
G01X16535Y9370D01*
G01X16535Y9370D02*
G01X16535Y7874D01*
G01X16535Y7874D02*
G01X16850Y7559D01*
G54D71*
G01X16850Y7559D03*
G54D70*
G01X2047Y4724D02*
G01X2440Y4724D01*
G01X2440Y4724D02*
G01X2598Y4566D01*
G01X2598Y4566D02*
G01X3700Y4566D01*
G01X3700Y4566D02*
G01X4631Y3636D01*
G01X4631Y3636D02*
G01X4631Y2283D01*
G01X16023Y5334D02*
G01X16023Y4685D01*
G01X16023Y4685D02*
G01X17021Y3687D01*
G01X17021Y3687D02*
G01X17021Y2283D01*
G01X24566Y11102D02*
G01X24566Y10708D01*
G01X24566Y10708D02*
G01X24606Y10669D01*
G01X24606Y10669D02*
G01X26299Y10669D01*
G01X26299Y10669D02*
G01X26456Y10511D01*
G01X26456Y10511D02*
G01X27125Y10511D01*
G01X27125Y10511D02*
G01X27559Y10944D01*
G01X27559Y10944D02*
G01X28346Y10944D01*
G01X28346Y10944D02*
G01X28503Y10787D01*
G01X16456Y12303D02*
G01X16456Y13070D01*
G01X16456Y13070D02*
G01X16535Y13070D01*
G54D71*
G01X16535Y13070D03*
G01X25590Y8818D03*
G54D70*
G01X25590Y8818D02*
G01X25590Y8346D01*
G01X25590Y8346D02*
G01X26614Y7322D01*
G01X26614Y7322D02*
G01X27165Y7322D01*
G01X27165Y7322D02*
G01X27204Y7283D01*
G01X27204Y7283D02*
G01X27598Y7283D01*
G01X21330Y13385D02*
G01X20157Y12204D01*
G01X20157Y12204D02*
G01X19212Y12204D01*
G01X19212Y12204D02*
G01X18582Y11574D01*
G01X18582Y11574D02*
G01X15275Y11574D01*
G01X15275Y11574D02*
G01X14803Y11102D01*
G01X14803Y11102D02*
G01X14803Y10472D01*
G01X14803Y10472D02*
G01X15039Y10236D01*
G01X15039Y10236D02*
G01X15039Y9822D01*
G01X21330Y13385D02*
G01X21968Y14015D01*
G01X21968Y14015D02*
G01X24566Y14015D01*
G01X24566Y14015D02*
G01X24803Y13779D01*
G01X24803Y13779D02*
G01X24803Y13228D01*
G01X24803Y13228D02*
G01X24448Y12874D01*
G01X24448Y12874D02*
G01X24448Y12086D01*
G01X24448Y12086D02*
G01X23976Y11614D01*
G01X23976Y11614D02*
G01X23976Y11102D01*
G01X2047Y4527D02*
G01X2401Y4527D01*
G01X2401Y4527D02*
G01X3451Y3477D01*
G01X3451Y3477D02*
G01X3451Y2283D01*
G54D71*
G01X27007Y9685D03*
G54D70*
G01X27007Y9685D02*
G01X27165Y9842D01*
G01X27165Y9842D02*
G01X27598Y9842D01*
G01X2047Y5118D02*
G01X1653Y5118D01*
G01X1653Y5118D02*
G01X1417Y4881D01*
G01X1417Y4881D02*
G01X1417Y4409D01*
G01X1417Y4409D02*
G01X2271Y3555D01*
G01X2271Y3555D02*
G01X2271Y2283D01*
G01X13877Y7086D02*
G01X13307Y7086D01*
G01X13307Y7086D02*
G01X12755Y6535D01*
G01X12755Y6535D02*
G01X12755Y5472D01*
G01X12755Y5472D02*
G01X12244Y4960D01*
G01X12244Y4960D02*
G01X11338Y4960D01*
G01X11338Y4960D02*
G01X10629Y4251D01*
G01X10629Y4251D02*
G01X9606Y4251D01*
G01X9606Y4251D02*
G01X8346Y5511D01*
G01X8346Y5511D02*
G01X6062Y5511D01*
G01X6062Y5511D02*
G01X4566Y7007D01*
G01X4566Y7007D02*
G01X4566Y8503D01*
G01X4566Y8503D02*
G01X3070Y10000D01*
G01X3070Y10000D02*
G01X2755Y10000D01*
G01X2755Y10000D02*
G01X2519Y9763D01*
G01X2519Y9763D02*
G01X1496Y9763D01*
G01X1496Y9763D02*
G01X1141Y9409D01*
G01X1141Y9409D02*
G01X1141Y8110D01*
G01X1141Y8110D02*
G01X1299Y7952D01*
G01X1299Y7952D02*
G01X1299Y7204D01*
G01X1299Y7204D02*
G01X1614Y6889D01*
G01X1614Y6889D02*
G01X2047Y6889D01*
G01X23976Y5039D02*
G01X23976Y5472D01*
G01X23976Y5472D02*
G01X23700Y5748D01*
G01X23700Y5748D02*
G01X23700Y5826D01*
G01X23700Y5826D02*
G01X23543Y5984D01*
G01X23543Y5984D02*
G01X22598Y5984D01*
G01X22598Y5984D02*
G01X21811Y5196D01*
G01X21811Y5196D02*
G01X21811Y4566D01*
G01X21811Y4566D02*
G01X21496Y4251D01*
G01X21496Y4251D02*
G01X20157Y4251D01*
G01X20157Y4251D02*
G01X19448Y4960D01*
G01X19448Y4960D02*
G01X18740Y4960D01*
G01X18740Y4960D02*
G01X17716Y5984D01*
G01X17716Y5984D02*
G01X15275Y5984D01*
G01X15275Y5984D02*
G01X15118Y6141D01*
G01X15118Y6141D02*
G01X14409Y6141D01*
G01X14409Y6141D02*
G01X14330Y6220D01*
G01X14330Y6220D02*
G01X14330Y7007D01*
G01X14330Y7007D02*
G01X14251Y7086D01*
G01X14251Y7086D02*
G01X13877Y7086D01*
G01X2913Y10000D02*
G01X2755Y10000D01*
G01X2755Y10000D02*
G01X2519Y9763D01*
G01X2519Y9763D02*
G01X1496Y9763D01*
G01X1496Y9763D02*
G01X1141Y9409D01*
G01X1141Y9409D02*
G01X1141Y8110D01*
G01X1141Y8110D02*
G01X1299Y7952D01*
G01X1299Y7952D02*
G01X1299Y7204D01*
G01X1299Y7204D02*
G01X1614Y6889D01*
G01X1614Y6889D02*
G01X2047Y6889D01*
G54D71*
G01X25590Y10314D03*
G54D70*
G01X25590Y10314D02*
G01X25590Y9842D01*
G01X25590Y9842D02*
G01X26377Y9055D01*
G01X26377Y9055D02*
G01X27598Y9055D01*
G01X17598Y9822D02*
G01X17637Y9921D01*
G01X17637Y9921D02*
G01X18267Y10551D01*
G01X18267Y10551D02*
G01X19527Y10551D01*
G01X19527Y10551D02*
G01X20078Y11102D01*
G54D71*
G01X20078Y11102D03*
G54D70*
G01X2047Y5511D02*
G01X1574Y5511D01*
G01X1574Y5511D02*
G01X1102Y5039D01*
G01X1102Y5039D02*
G01X1102Y3385D01*
G01X1102Y3385D02*
G01X1091Y3375D01*
G01X1091Y3375D02*
G01X1091Y2283D01*
G54D78*
G01X16574Y10708D02*
G01X17047Y10708D01*
G01X17047Y10708D02*
G01X17086Y10787D01*
G54D71*
G01X17086Y10787D03*
G54D73*
G01X16574Y10708D02*
G01X16811Y10708D01*
G01X16811Y10708D02*
G01X16811Y9822D01*
G01X21535Y10433D02*
G01X21259Y10708D01*
G54D71*
G01X21259Y10708D03*
G54D73*
G01X27598Y6692D02*
G01X27244Y6692D01*
G01X27244Y6692D02*
G01X27007Y6929D01*
G54D71*
G01X27007Y6929D03*
G01X1023Y5984D02*
G01X551Y5511D01*
G01X551Y5511D03*
G54D73*
G01X9881Y8661D02*
G01X9527Y8661D01*
G01X9527Y8661D02*
G01X9291Y8897D01*
G01X9291Y8897D02*
G01X9291Y8976D01*
G54D71*
G01X9291Y8976D03*
G54D73*
G01X27598Y8464D02*
G01X27007Y8464D01*
G54D71*
G01X27007Y8464D03*
G01X29173Y8582D02*
G01X29173Y9645D01*
G01X11456Y8661D02*
G01X11456Y8110D01*
G01X11456Y8110D03*
G01X11456Y6929D02*
G01X11456Y7440D01*
G01X11456Y7440D03*
G54D73*
G01X21535Y5708D02*
G01X20984Y5708D01*
G01X20984Y5708D02*
G01X20944Y5669D01*
G54D71*
G01X20944Y5669D03*
G54D73*
G01X13877Y7480D02*
G01X14330Y7480D01*
G01X14330Y7480D02*
G01X14488Y7637D01*
G01X14488Y7637D02*
G01X14488Y7716D01*
G54D71*
G01X14488Y7716D03*
G01X20000Y7952D02*
G01X20000Y7401D01*
G01X20000Y7401D03*
G54D73*
G01X9881Y4724D02*
G01X9527Y4724D01*
G01X9527Y4724D02*
G01X9448Y4803D01*
G01X9448Y4803D02*
G01X9448Y4881D01*
G01X9448Y4881D02*
G01X9488Y4921D01*
G01X9488Y4921D02*
G01X9881Y4921D01*
G01X9881Y4921D02*
G01X9488Y4921D01*
G01X9488Y4921D02*
G01X9291Y5118D01*
G54D71*
G01X9291Y5118D03*
G54D73*
G01X15039Y4330D02*
G01X15629Y4921D01*
G01X15629Y4921D02*
G01X15629Y5334D01*
G54D71*
G01X15039Y4330D02*
G01X14724Y4330D01*
G01X14724Y4330D02*
G01X14566Y4488D01*
G01X14566Y4488D03*
G01X25629Y4173D02*
G01X25669Y4212D01*
G01X25669Y4212D02*
G01X26062Y4212D01*
G01X26062Y4212D03*
G01X23503Y4094D02*
G01X23937Y4094D01*
G01X23937Y4094D02*
G01X24094Y3937D01*
G01X24094Y3937D03*
G01X31181Y3937D03*
G01X6220Y11112D02*
G01X6181Y11456D01*
G01X6181Y11456D02*
G01X5944Y11692D01*
G01X5944Y11692D02*
G01X6496Y11692D01*
G01X6496Y11692D02*
G01X6496Y10551D01*
G01X6496Y10551D02*
G01X5944Y10551D01*
G01X5944Y10551D02*
G01X5944Y11692D01*
G01X6220Y11112D02*
G01X6181Y10767D01*
G01X6181Y10767D02*
G01X6496Y10551D01*
G01X6496Y10551D03*
G01X6220Y11112D02*
G01X6181Y11437D01*
G01X6181Y11437D02*
G01X6496Y11692D01*
G01X6496Y11692D03*
G54D73*
G01X26929Y11102D02*
G01X26929Y11062D01*
G01X26929Y11062D02*
G01X27204Y11299D01*
G54D71*
G01X27204Y11299D03*
G54D73*
G01X26929Y5039D02*
G01X26929Y5413D01*
G01X26929Y5413D02*
G01X26633Y5708D01*
G54D71*
G01X26633Y5708D03*
G01X29173Y9645D02*
G01X29173Y9133D01*
G01X29173Y9133D03*
G01X29724Y3937D03*
G01X6102Y3937D03*
G01X787Y3937D03*
G54D70*
G01X22401Y11102D02*
G01X22401Y10590D01*
G01X22401Y10590D02*
G01X22677Y10314D01*
G01X22677Y10314D02*
G01X23464Y10314D01*
G01X23464Y10314D02*
G01X24173Y9606D01*
G01X24173Y9606D02*
G01X24173Y9133D01*
G01X24173Y9133D02*
G01X26377Y6929D01*
G01X26377Y6929D02*
G01X27007Y6929D01*
G01X27007Y6929D02*
G01X27244Y6692D01*
G01X27244Y6692D02*
G01X27598Y6692D01*
G54D71*
G01X28503Y7322D02*
G01X28503Y6771D01*
G01X28503Y6771D03*
G01X28503Y6062D02*
G01X28503Y5511D01*
G01X28503Y5511D03*
G01X19881Y6299D02*
G01X19881Y5748D01*
G01X19881Y5748D03*
G54D73*
G01X18366Y8661D02*
G01X17716Y8661D01*
G54D71*
G01X17716Y8661D03*
G54D74*
G01X12301Y1973D02*
G01X12301Y4033D01*
G01X12301Y4033D02*
G01X12820Y4527D01*
G54D71*
G01X12820Y4527D03*
G01X12283Y8425D02*
G01X12283Y8976D01*
G01X12283Y8976D03*
G54D79*
G01X15511Y12303D02*
G01X15511Y12598D01*
G54D80*
G01X15511Y12598D02*
G01X15275Y12362D01*
G01X15275Y12362D02*
G01X15039Y12362D01*
G54D71*
G01X15039Y12362D03*
G01X6811Y9842D02*
G01X6771Y9842D01*
G01X6771Y9842D02*
G01X6850Y10000D01*
G01X6850Y10000D02*
G01X6456Y10393D01*
G01X6456Y10393D02*
G01X6456Y10708D01*
G01X6456Y10708D02*
G01X6476Y10728D01*
G01X6476Y10728D02*
G01X6476Y10846D01*
G01X6476Y10846D02*
G01X6220Y11102D01*
G01X6220Y11102D02*
G01X6220Y11112D01*
G54D70*
G01X23503Y4094D02*
G01X24094Y3937D01*
G01X24094Y3937D02*
G01X24094Y4330D01*
G01X24094Y4330D02*
G01X23779Y4645D01*
G01X23779Y4645D02*
G01X23779Y5039D01*
G01X7086Y10728D02*
G01X7086Y10629D01*
G54D74*
G01X7086Y10629D02*
G01X7086Y10393D01*
G01X7086Y10393D02*
G01X6614Y9921D01*
G01X6614Y9921D02*
G01X6811Y9842D01*
G54D71*
G01X6220Y11112D02*
G01X5944Y11692D01*
G01X5944Y11692D03*
G01X6220Y11112D02*
G01X5944Y10551D01*
G01X5944Y10551D03*
G01X3858Y10354D02*
G01X3858Y10393D01*
G01X3858Y10393D02*
G01X3858Y9842D01*
G01X3858Y9842D03*
G01X3858Y11417D02*
G01X3385Y11417D01*
G01X3385Y11417D03*
G01X12755Y12716D02*
G01X12755Y12125D01*
G01X12755Y12125D03*
G01X12755Y12716D02*
G01X12755Y12125D01*
G01X12755Y12125D02*
G01X11437Y12125D01*
G54D73*
G01X2362Y11377D02*
G01X2362Y12598D01*
G54D70*
G01X7086Y11240D02*
G01X7893Y11240D01*
G01X7893Y11240D02*
G01X8031Y11102D01*
G01X8031Y11102D02*
G01X8031Y10629D01*
G01X8031Y10629D02*
G01X7874Y10472D01*
G01X7874Y10472D02*
G01X7401Y10472D01*
G01X7401Y10472D02*
G01X7165Y10708D01*
G01X7165Y10708D02*
G01X7086Y10728D01*
G54D71*
G01X25472Y12007D02*
G01X25905Y12007D01*
G01X25905Y12007D03*
G54D73*
G01X34137Y9724D02*
G01X34133Y9606D01*
G01X34133Y9606D02*
G01X34133Y8897D01*
G01X34133Y8897D02*
G01X33976Y8740D01*
G54D71*
G01X33976Y8740D03*
G54D73*
G01X34137Y6259D02*
G01X34133Y6259D01*
G01X34133Y6259D02*
G01X34133Y5826D01*
G01X34133Y5826D02*
G01X33779Y5472D01*
G54D71*
G01X33779Y5472D03*
G54D73*
G01X32893Y11663D02*
G01X32834Y11732D01*
G01X32834Y11732D02*
G01X32834Y12086D01*
G54D71*
G01X32834Y12086D03*
G54D70*
G01X30708Y8818D02*
G01X30337Y9898D01*
G01X30337Y9898D02*
G01X29803Y10433D01*
G01X29803Y10433D02*
G01X29803Y10905D01*
G01X29803Y10905D02*
G01X29448Y11259D01*
G01X29448Y11259D02*
G01X27637Y11259D01*
G01X27637Y11259D02*
G01X27047Y10669D01*
G01X27047Y10669D02*
G01X26614Y10669D01*
G01X26614Y10669D02*
G01X26535Y10748D01*
G01X26535Y10748D02*
G01X26535Y11102D01*
G01X29173Y7322D02*
G01X29212Y7322D01*
G01X29212Y7322D02*
G01X30708Y8818D01*
G01X16141Y12303D02*
G01X16141Y13070D01*
G01X16141Y13070D02*
G01X16141Y12992D01*
G01X16141Y12992D02*
G01X16062Y13070D01*
G54D71*
G01X16062Y13070D03*
G01X25984Y8582D03*
G54D70*
G01X25984Y8582D02*
G01X25826Y8582D01*
G01X25826Y8582D02*
G01X25748Y8503D01*
G01X25748Y8503D02*
G01X25748Y8425D01*
G01X25748Y8425D02*
G01X26692Y7480D01*
G01X26692Y7480D02*
G01X27598Y7480D01*
G54D71*
G01X29133Y4960D03*
G54D70*
G01X29133Y4960D02*
G01X28661Y4488D01*
G01X28661Y4488D02*
G01X28031Y4488D01*
G54D71*
G01X28031Y4488D03*
G01X23385Y5669D03*
G54D70*
G01X23385Y5669D02*
G01X22598Y5669D01*
G01X22598Y5669D02*
G01X22401Y5472D01*
G01X22401Y5472D02*
G01X22401Y5039D01*
G01X22401Y5039D02*
G01X22401Y4685D01*
G01X22401Y4685D02*
G01X22283Y4566D01*
G01X22283Y4566D02*
G01X22047Y4566D01*
G01X22047Y4566D02*
G01X21574Y4094D01*
G01X21574Y4094D02*
G01X20078Y4094D01*
G01X20078Y4094D02*
G01X19370Y4803D01*
G01X19370Y4803D02*
G01X18661Y4803D01*
G01X18661Y4803D02*
G01X17637Y5826D01*
G01X17637Y5826D02*
G01X15511Y5826D01*
G01X15511Y5826D02*
G01X15433Y5748D01*
G01X15433Y5748D02*
G01X15433Y5334D01*
G54D76*
G01X16220Y9822D02*
G01X16220Y7480D01*
G01X16220Y7480D02*
G01X16141Y7401D01*
G54D71*
G01X16141Y7401D03*
G54D76*
G01X34137Y7755D02*
G01X34133Y7755D01*
G01X34133Y7755D02*
G01X34133Y7007D01*
G01X34133Y7007D02*
G01X34137Y7003D01*
G54D71*
G01X34137Y7003D03*
G01X34133Y5078D03*
G54D76*
G01X34133Y5078D02*
G01X34137Y4291D01*
G54D77*
G01X22992Y3700D03*
G54D71*
G01X32125Y3897D03*
G01X27007Y10157D03*
G54D70*
G01X27007Y10157D02*
G01X27125Y10039D01*
G01X27125Y10039D02*
G01X27598Y10039D01*
G54D76*
G01X2362Y10708D02*
G01X1889Y10708D01*
G01X12755Y13464D02*
G01X12755Y14094D01*
G01X14202Y13090D02*
G01X14202Y13848D01*
G01X14202Y13848D02*
G01X14212Y13858D01*
G01X14212Y13858D02*
G01X14763Y13858D01*
G01X14763Y13858D02*
G01X13661Y13858D01*
G01X18080Y13090D02*
G01X18080Y13848D01*
G01X18080Y13848D02*
G01X18070Y13858D01*
G01X18070Y13858D02*
G01X17519Y13858D01*
G01X17519Y13858D02*
G01X18661Y13858D01*
G54D70*
G01X2047Y8464D02*
G01X2952Y8464D01*
G01X2952Y8464D02*
G01X3464Y7952D01*
G01X3464Y7952D02*
G01X3464Y6220D01*
G01X3464Y6220D02*
G01X3622Y6062D01*
G54D71*
G01X3622Y6062D03*
G54D70*
G01X2047Y5708D02*
G01X1535Y5708D01*
G01X1535Y5708D02*
G01X472Y4645D01*
G01X472Y4645D02*
G01X472Y3464D01*
G01X472Y3464D02*
G01X501Y3435D01*
G01X501Y3435D02*
G01X501Y2283D01*
G01X18366Y6299D02*
G01X18346Y6299D01*
G01X18346Y6299D02*
G01X18740Y6299D01*
G01X18740Y6299D02*
G01X18818Y6220D01*
G01X18818Y6220D02*
G01X18818Y5590D01*
G01X18818Y5590D02*
G01X18976Y5433D01*
G01X18976Y5433D02*
G01X20157Y5433D01*
G01X20157Y5433D02*
G01X20866Y4724D01*
G54D71*
G01X20866Y4724D03*
G54D70*
G01X29173Y6062D02*
G01X30354Y6062D01*
G01X30354Y6062D02*
G01X30708Y5472D01*
G01X30708Y5472D02*
G01X30708Y6535D01*
G01X30708Y6535D02*
G01X31338Y7165D01*
G01X31338Y7165D02*
G01X31338Y9960D01*
G01X31338Y9960D02*
G01X31220Y10078D01*
G01X31220Y10078D02*
G01X30472Y10078D01*
G01X30472Y10078D02*
G01X30000Y10551D01*
G01X30000Y10551D02*
G01X30000Y11023D01*
G01X30000Y11023D02*
G01X29566Y11456D01*
G01X29566Y11456D02*
G01X27519Y11456D01*
G01X27519Y11456D02*
G01X27322Y11653D01*
G01X27322Y11653D02*
G01X26850Y11653D01*
G01X26850Y11653D02*
G01X26732Y11535D01*
G01X26732Y11535D02*
G01X26377Y11535D01*
G01X26377Y11535D02*
G01X26338Y11496D01*
G01X26338Y11496D02*
G01X26338Y11102D01*
G54D71*
G01X25984Y10078D03*
G54D70*
G01X25984Y10078D02*
G01X25826Y10078D01*
G01X25826Y10078D02*
G01X25748Y10000D01*
G01X25748Y10000D02*
G01X25748Y9921D01*
G01X25748Y9921D02*
G01X26456Y9212D01*
G01X26456Y9212D02*
G01X27165Y9212D01*
G01X27165Y9212D02*
G01X27204Y9251D01*
G01X27204Y9251D02*
G01X27598Y9251D01*
G01X9507Y12125D02*
G01X9527Y12125D01*
G01X9527Y12125D02*
G01X9488Y12165D01*
G54D71*
G01X9488Y12165D02*
G01X8031Y12165D01*
G54D75*
G01X5354Y11496D02*
G01X5354Y11791D01*
G01X5354Y11791D02*
G01X5669Y12125D01*
G01X5669Y12125D02*
G01X6771Y12125D01*
G54D70*
G01X6771Y12125D02*
G01X6811Y12165D01*
G54D74*
G01X6811Y12165D02*
G01X8031Y12165D01*
G54D70*
G01X27598Y6496D02*
G01X26574Y6496D01*
G01X26574Y6496D02*
G01X25590Y7480D01*
G01X25590Y7480D02*
G01X24724Y7480D01*
G01X24724Y7480D02*
G01X24409Y7795D01*
G54D71*
G01X24409Y7795D03*
G01X7716Y10866D03*
G54D70*
G01X7716Y10866D02*
G01X7598Y10984D01*
G01X7598Y10984D02*
G01X7086Y10984D01*
G01X2047Y6102D02*
G01X2401Y6102D01*
G01X2401Y6102D02*
G01X2834Y5669D01*
G01X2834Y5669D02*
G01X2834Y5118D01*
G54D71*
G01X2834Y5118D03*
G54D70*
G01X16023Y9822D02*
G01X16023Y7992D01*
G01X16023Y7992D02*
G01X15748Y7716D01*
G54D71*
G01X15748Y7716D03*
G54D76*
G01X33090Y11663D02*
G01X33110Y11692D01*
G01X33110Y11692D02*
G01X33110Y11889D01*
G01X33110Y11889D02*
G01X33228Y12086D01*
G01X33228Y12086D02*
G01X33228Y12284D01*
G01X33228Y12284D02*
G01X33086Y12421D01*
G01X33086Y12421D02*
G01X32657Y12421D01*
G01X32657Y12421D02*
G01X32480Y12244D01*
G01X32480Y12244D02*
G01X32480Y11023D01*
G01X32480Y11023D02*
G01X32165Y10708D01*
G01X32165Y10708D02*
G01X32165Y8070D01*
G01X32165Y8070D02*
G01X32322Y7913D01*
G01X32322Y7913D02*
G01X32322Y5157D01*
G01X32322Y5157D02*
G01X32401Y5078D01*
G01X32401Y5078D02*
G01X32401Y4645D01*
G01X32401Y4645D02*
G01X32637Y4409D01*
G01X32637Y4409D02*
G01X32637Y4291D01*
G54D70*
G01X2047Y5314D02*
G01X1614Y5314D01*
G01X1614Y5314D02*
G01X1259Y4960D01*
G01X1259Y4960D02*
G01X1259Y4330D01*
G01X1259Y4330D02*
G01X1681Y3908D01*
G01X1681Y3908D02*
G01X1681Y2283D01*
G01X13877Y7283D02*
G01X13267Y7283D01*
G01X13267Y7283D02*
G01X12598Y6614D01*
G01X12598Y6614D02*
G01X12598Y5590D01*
G01X12598Y5590D02*
G01X12125Y5118D01*
G01X12125Y5118D02*
G01X9881Y5118D01*
G01X15629Y9822D02*
G01X15629Y9291D01*
G54D71*
G01X15629Y9291D03*
G54D70*
G01X18366Y7283D02*
G01X17755Y7283D01*
G01X17755Y7283D02*
G01X17716Y7244D01*
G54D71*
G01X17716Y7244D03*
G54D76*
G01X33287Y11171D02*
G01X33267Y11141D01*
G01X33267Y11141D02*
G01X33267Y10984D01*
G01X33267Y10984D02*
G01X33385Y10826D01*
G01X33385Y10826D02*
G01X33385Y10472D01*
G01X33385Y10472D02*
G01X33267Y10314D01*
G01X33267Y10314D02*
G01X32401Y10314D01*
G01X32401Y10314D02*
G01X32322Y10236D01*
G01X32322Y10236D02*
G01X32322Y8779D01*
G01X32322Y8779D02*
G01X32637Y8464D01*
G01X32637Y8464D02*
G01X32637Y7755D01*
G54D70*
G01X9881Y5314D02*
G01X12086Y5314D01*
G01X12086Y5314D02*
G01X12440Y5669D01*
G01X12440Y5669D02*
G01X12440Y6692D01*
G01X12440Y6692D02*
G01X12834Y7086D01*
G01X12834Y7086D02*
G01X12834Y7322D01*
G01X12834Y7322D02*
G01X13188Y7677D01*
G01X13188Y7677D02*
G01X13877Y7677D01*
G01X25748Y5039D02*
G01X25748Y5433D01*
G01X25748Y5433D02*
G01X25905Y5590D01*
G01X25905Y5590D02*
G01X25905Y6062D01*
G01X25905Y6062D02*
G01X25905Y5984D01*
G54D71*
G01X25905Y5984D03*
G01X12834Y7322D03*
G54D70*
G01X12834Y7322D02*
G01X13188Y7677D01*
G01X13188Y7677D02*
G01X13877Y7677D01*
G01X2047Y4921D02*
G01X1692Y4921D01*
G01X1692Y4921D02*
G01X1574Y4803D01*
G01X1574Y4803D02*
G01X1574Y4488D01*
G01X1574Y4488D02*
G01X2440Y3622D01*
G01X2440Y3622D02*
G01X2755Y3622D01*
G01X2755Y3622D02*
G01X2861Y3516D01*
G01X2861Y3516D02*
G01X2861Y2283D01*
G01X18366Y7086D02*
G01X18346Y7086D01*
G01X18346Y7086D02*
G01X19055Y7086D01*
G01X19055Y7086D02*
G01X19212Y7244D01*
G54D71*
G01X19212Y7244D03*
G54D70*
G01X17204Y9822D02*
G01X17204Y10196D01*
G01X17204Y10196D02*
G01X17952Y10944D01*
G01X17952Y10944D02*
G01X18897Y10944D01*
G01X18897Y10944D02*
G01X19527Y11574D01*
G01X19527Y11574D02*
G01X22519Y11574D01*
G01X22519Y11574D02*
G01X22598Y11496D01*
G01X22598Y11496D02*
G01X22598Y11023D01*
G01X22598Y11023D02*
G01X22598Y11102D01*
G01X24370Y11102D02*
G01X24370Y10669D01*
G01X24370Y10669D02*
G01X24173Y10472D01*
G01X24173Y10472D02*
G01X22834Y10472D01*
G01X22834Y10472D02*
G01X22598Y10708D01*
G01X22598Y10708D02*
G01X22598Y11102D01*
G01X2047Y8661D02*
G01X2992Y8661D01*
G01X2992Y8661D02*
G01X3622Y8031D01*
G01X3622Y8031D02*
G01X3622Y6535D01*
G01X3622Y6535D02*
G01X4094Y6062D01*
G01X4094Y6062D02*
G01X4094Y5590D01*
G54D71*
G01X4094Y5590D03*
G01X3779Y3858D03*
G54D70*
G01X3779Y3858D02*
G01X4041Y3596D01*
G01X4041Y3596D02*
G01X4041Y2283D01*
G01X16811Y5334D02*
G01X16811Y4842D01*
G01X16811Y4842D02*
G01X17637Y4015D01*
G01X17637Y4015D02*
G01X18897Y4015D01*
G01X18897Y4015D02*
G01X19370Y3543D01*
G01X19370Y3543D02*
G01X19370Y2519D01*
G01X19370Y2519D02*
G01X19381Y2283D01*
G54D76*
G01X13877Y6299D02*
G01X13464Y6299D01*
G01X13464Y6299D02*
G01X13385Y6220D01*
G01X13385Y6220D02*
G01X13385Y4015D01*
G01X13385Y4015D02*
G01X13481Y3919D01*
G01X13481Y3919D02*
G01X13481Y2283D01*
G01X33637Y4291D02*
G01X33622Y4291D01*
G01X33622Y4291D02*
G01X33622Y4881D01*
G01X33622Y4881D02*
G01X33228Y5275D01*
G01X33228Y5275D02*
G01X33228Y5511D01*
G54D71*
G01X33228Y5511D03*
G01X33622Y7007D03*
G54D76*
G01X33622Y7007D02*
G01X33637Y7023D01*
G01X33637Y7023D02*
G01X33637Y7755D01*
G01X13481Y2283D02*
G01X13481Y3447D01*
G01X13481Y3447D02*
G01X13188Y3740D01*
G54D77*
G01X13188Y3740D03*
G54D71*
G01X32086Y4921D03*
G54D70*
G01X9881Y8070D02*
G01X8464Y8070D01*
G01X8464Y8070D02*
G01X8267Y8267D01*
G01X8267Y8267D02*
G01X8267Y9133D01*
G01X8267Y9133D02*
G01X8740Y9606D01*
G01X8740Y9606D02*
G01X13700Y9606D01*
G01X13700Y9606D02*
G01X13877Y9429D01*
G01X13877Y9429D02*
G01X13877Y9055D01*
G01X25551Y5039D02*
G01X25551Y5393D01*
G01X25551Y5393D02*
G01X25590Y5433D01*
G01X25590Y5433D02*
G01X25590Y6929D01*
G54D71*
G01X25590Y6929D03*
G01X8267Y8582D03*
G54D70*
G01X8267Y8582D02*
G01X8267Y8267D01*
G01X8267Y8267D02*
G01X8464Y8070D01*
G01X8464Y8070D02*
G01X9881Y8070D01*
G01X9881Y5511D02*
G01X12047Y5511D01*
G01X12047Y5511D02*
G01X12283Y5748D01*
G01X12283Y5748D02*
G01X12283Y6850D01*
G01X12283Y6850D02*
G01X12519Y7086D01*
G01X12519Y7086D02*
G01X12519Y7637D01*
G01X12519Y7637D02*
G01X12755Y7874D01*
G01X12755Y7874D02*
G01X13877Y7874D01*
G01X25354Y5039D02*
G01X25354Y5984D01*
G01X25354Y5984D02*
G01X25275Y5984D01*
G54D71*
G01X25275Y5984D03*
G01X12519Y7716D03*
G54D70*
G01X12519Y7716D02*
G01X12598Y7716D01*
G01X12598Y7716D02*
G01X12755Y7874D01*
G01X12755Y7874D02*
G01X13877Y7874D01*
G01X2047Y5905D02*
G01X2362Y5905D01*
G01X2362Y5905D02*
G01X2519Y5748D01*
G01X2519Y5748D02*
G01X2519Y4881D01*
G01X2519Y4881D02*
G01X2677Y4724D01*
G01X2677Y4724D02*
G01X3779Y4724D01*
G01X3779Y4724D02*
G01X5196Y3307D01*
G01X5196Y3307D02*
G01X5221Y2283D01*
G01X17598Y5334D02*
G01X17598Y5000D01*
G01X17598Y5000D02*
G01X17952Y4645D01*
G01X17952Y4645D02*
G01X19291Y4645D01*
G01X19291Y4645D02*
G01X20000Y3937D01*
G01X20000Y3937D02*
G01X21023Y3937D01*
G01X21023Y3937D02*
G01X21741Y3218D01*
G01X21741Y3218D02*
G01X21741Y2283D01*
G01X14645Y5334D02*
G01X14645Y5275D01*
G01X14645Y5275D02*
G01X14094Y4724D01*
G01X14094Y4724D02*
G01X14094Y4251D01*
G01X14094Y4251D02*
G01X14566Y3779D01*
G01X14566Y3779D02*
G01X15433Y3779D01*
G01X15433Y3779D02*
G01X15826Y3385D01*
G01X15826Y3385D02*
G01X15841Y2283D01*
G54D76*
G01X15905Y10708D02*
G01X15826Y10787D01*
G01X15826Y10787D02*
G01X15433Y10787D01*
G54D71*
G01X15433Y10787D03*
G54D76*
G01X15708Y4330D02*
G01X15905Y4330D01*
G01X15905Y4330D02*
G01X16141Y4094D01*
G54D71*
G01X16141Y4094D03*
G54D76*
G01X29173Y10787D02*
G01X29173Y10354D01*
G01X29173Y10354D02*
G01X29055Y10236D01*
G01X29055Y10236D02*
G01X28661Y10236D01*
G01X28661Y10236D02*
G01X28503Y10078D01*
G01X28503Y10078D02*
G01X28503Y9645D01*
G01X28503Y8582D02*
G01X28503Y9645D01*
G01X28503Y8582D02*
G01X28503Y8661D01*
G01X28503Y8661D02*
G01X27598Y8661D01*
G01X10787Y8661D02*
G01X10787Y8582D01*
G01X10787Y8582D02*
G01X10511Y8858D01*
G01X10511Y8858D02*
G01X9881Y8858D01*
G01X10787Y8661D02*
G01X10787Y8110D01*
G54D71*
G01X10787Y8110D03*
G54D76*
G01X10787Y6929D02*
G01X10787Y7440D01*
G54D71*
G01X10787Y7440D03*
G54D76*
G01X18366Y6496D02*
G01X18937Y6496D01*
G01X18937Y6496D02*
G01X19133Y6299D01*
G01X19133Y6299D02*
G01X19133Y6220D01*
G01X19133Y6220D02*
G01X19212Y6299D01*
G01X20669Y7952D02*
G01X20629Y7952D01*
G01X20629Y7952D02*
G01X20629Y7401D01*
G54D71*
G01X20629Y7401D03*
G54D76*
G01X24960Y4173D02*
G01X24881Y4173D01*
G01X24881Y4173D02*
G01X24881Y4330D01*
G01X24881Y4330D02*
G01X24566Y4645D01*
G01X24566Y4645D02*
G01X24566Y5039D01*
G01X19212Y6299D02*
G01X19212Y5748D01*
G54D71*
G01X19212Y5748D03*
G54D76*
G01X15708Y4330D02*
G01X15826Y4409D01*
G01X15826Y4409D02*
G01X15826Y5334D01*
G01X28503Y9645D02*
G01X27598Y9645D01*
G01X28503Y9645D02*
G01X28503Y9153D01*
G54D71*
G01X28503Y9153D03*
G54D76*
G01X12952Y8425D02*
G01X12874Y8267D01*
G01X12874Y8267D02*
G01X13877Y8267D01*
G01X15905Y10708D02*
G01X15826Y10629D01*
G01X15826Y10629D02*
G01X15826Y9822D01*
G01X24960Y4173D02*
G01X24881Y4173D01*
G01X24881Y4173D02*
G01X24842Y4212D01*
G01X24842Y4212D02*
G01X24488Y4212D01*
G54D71*
G01X24488Y4212D03*
G54D76*
G01X20669Y7952D02*
G01X20629Y8031D01*
G01X20629Y8031D02*
G01X20669Y8070D01*
G01X20669Y8070D02*
G01X21535Y8070D01*
G01X10787Y6929D02*
G01X10748Y6889D01*
G01X10748Y6889D02*
G01X9881Y6889D01*
G01X12952Y8425D02*
G01X12952Y8976D01*
G54D71*
G01X12952Y8976D03*
G54D76*
G01X5787Y9842D02*
G01X5748Y10000D01*
G01X4527Y10354D02*
G01X4566Y10314D01*
G01X4566Y10314D02*
G01X4881Y10629D01*
G01X4881Y10629D02*
G01X4881Y10866D01*
G01X4881Y10866D02*
G01X5000Y10984D01*
G01X5000Y10984D02*
G01X5354Y10984D01*
G01X5787Y9842D02*
G01X5354Y9842D01*
G01X5354Y9842D02*
G01X4842Y10354D01*
G01X4842Y10354D02*
G01X4527Y10354D01*
G01X5787Y9842D02*
G01X5590Y10000D01*
G01X5590Y10000D02*
G01X5196Y10000D01*
G01X5196Y10000D02*
G01X5039Y10157D01*
G54D71*
G01X5039Y10157D03*
G54D76*
G01X7086Y11496D02*
G01X7952Y11496D01*
G01X7952Y11496D02*
G01X8267Y11181D01*
G01X8267Y11181D02*
G01X8267Y10393D01*
G01X8267Y10393D02*
G01X7165Y9291D01*
G01X7165Y9291D02*
G01X6220Y9291D01*
G01X6220Y9291D02*
G01X5787Y9724D01*
G01X5787Y9724D02*
G01X5787Y9842D01*
G01X24803Y12007D02*
G01X24763Y11889D01*
G01X24763Y11889D02*
G01X24763Y11102D01*
G01X33137Y6259D02*
G01X32637Y6259D01*
G01X33637Y6259D02*
G01X33137Y6259D01*
G01X33637Y9724D02*
G01X33622Y9055D01*
G01X33622Y9055D02*
G01X33307Y8740D01*
G54D71*
G01X33307Y8740D03*
G54D76*
G01X32637Y6259D02*
G01X32637Y7007D01*
G54D71*
G01X32637Y7007D03*
G54D76*
G01X33137Y9724D02*
G01X33637Y9724D01*
G01X33137Y9724D02*
G01X32637Y9724D01*
G01X24803Y12007D02*
G01X24803Y12480D01*
G54D71*
G01X24803Y12480D03*
G54D76*
G01X33484Y11171D02*
G01X33503Y11141D01*
G01X33503Y11141D02*
G01X33582Y11062D01*
G01X33582Y11062D02*
G01X33582Y9881D01*
G01X33582Y9881D02*
G01X33637Y9724D01*
G54D70*
G01X18366Y7480D02*
G01X18897Y7480D01*
G01X18897Y7480D02*
G01X19881Y8464D01*
G01X19881Y8464D02*
G01X21535Y8464D01*
G01X21535Y8464D02*
G01X21929Y8464D01*
G01X21929Y8464D02*
G01X22047Y8346D01*
G01X22047Y8346D02*
G01X22047Y8110D01*
G01X22047Y8110D02*
G01X22204Y7952D01*
G01X22204Y7952D02*
G01X23149Y7952D01*
G54D71*
G01X23149Y7952D03*
G01X7480Y7559D03*
G54D70*
G01X7480Y7559D02*
G01X7480Y7244D01*
G01X7480Y7244D02*
G01X7637Y7086D01*
G01X7637Y7086D02*
G01X9921Y7086D01*
G01X9921Y7086D02*
G01X9881Y7086D01*
G54D76*
G01X16417Y9822D02*
G01X16417Y9488D01*
G01X16417Y9488D02*
G01X16377Y9448D01*
G01X16377Y9448D02*
G01X16377Y7716D01*
G01X16377Y7716D02*
G01X16496Y7598D01*
G01X16496Y7598D02*
G01X16496Y7440D01*
G01X16496Y7440D02*
G01X16850Y7086D01*
G54D71*
G01X16850Y7086D03*
G54D76*
G01X33137Y4291D02*
G01X33149Y4685D01*
G01X33149Y4685D02*
G01X32716Y5118D01*
G54D71*
G01X32716Y5118D03*
G01X33149Y7007D03*
G54D76*
G01X33149Y7007D02*
G01X33137Y7019D01*
G01X33137Y7019D02*
G01X33137Y7755D01*
G54D77*
G01X25000Y3661D03*

G04 Draw Text*
M00*
M02*
