;Holesize 1 =   39.0 PLATED MILS
;Holesize 2 =   90.0 PLATED MILS
;Holesize 3 =   20.0 PLATED MILS
;Holesize 4 =   10.0 PLATED MILS
M48
INCH,00.0000
T01C0.039
T02C0.090
T03C0.020
T04C0.010
%
G05
G90
T01
X005118Y012598
X004133Y012598
X003346Y012598
X002362Y012598
X029921Y012598
X028937Y012598
X028149Y012598
X027165Y012598
X024330Y013385
X023330Y013385
X022330Y013385
X021330Y013385
X020330Y013385
X019330Y013385
T02
X006326Y013665
X001153Y013665
X031129Y013665
X025956Y013665
X001181Y011338
X031102Y011338
T03
X022440Y008267
X007165Y008346
X024960Y006929
X008582Y008976
X024645Y005984
X012204Y007322
X010787Y006062
X007795Y004409
X000944Y007322
X021811Y003779
X004527Y010905
X023149Y008582
X006850Y007559
X027716Y011968
X023503Y012834
X022440Y008897
X006535Y008346
X010472Y004566
X024330Y006929
X008897Y008582
X026929Y007952
X017244Y012362
X007401Y012913
X023149Y009212
X006220Y007559
X015118Y006456
X021496Y004724
X005905Y008346
X022440Y009527
X004566Y005118
X032559Y010629
X031644Y010126
X026535Y011889
X024094Y012244
X031653Y004370
X033070Y010669
X002834Y006771
X016850Y009212
X002834Y007322
X005433Y004015
X014645Y006456
X020393Y004724
X016850Y007559
X016535Y013070
X025590Y008818
X027007Y009685
X025590Y010314
X020078Y011102
X017086Y010787
X021259Y010708
X027007Y006929
X000551Y005511
X009291Y008976
X027007Y008464
X011456Y008110
X011456Y007440
X020944Y005669
X014488Y007716
X020000Y007401
X009291Y005118
X014566Y004488
X026062Y004212
X024094Y003937
X031181Y003937
X006496Y010551
X006496Y011692
X027204Y011299
X026633Y005708
X029173Y009133
X029724Y003937
X006102Y003937
X000787Y003937
X028503Y006771
X028503Y005511
X019881Y005748
X017716Y008661
X012820Y004527
X012283Y008976
X015039Y012362
X005944Y011692
X005944Y010551
X003858Y009842
X003385Y011417
X012755Y012125
X025905Y012007
X033976Y008740
X033779Y005472
X032834Y012086
X016062Y013070
X025984Y008582
X029133Y004960
X028031Y004488
X023385Y005669
X016141Y007401
X034137Y007003
X034133Y005078
X032125Y003897
X027007Y010157
X003622Y006062
X020866Y004724
X025984Y010078
X024409Y007795
X007716Y010866
X002834Y005118
X015748Y007716
X015629Y009291
X017716Y007244
X025905Y005984
X012834Y007322
X019212Y007244
X004094Y005590
X003779Y003858
X033228Y005511
X033622Y007007
X032086Y004921
X025590Y006929
X008267Y008582
X025275Y005984
X012519Y007716
X015433Y010787
X016141Y004094
X010787Y008110
X010787Y007440
X020629Y007401
X019212Y005748
X028503Y009153
X024488Y004212
X012952Y008976
X005039Y010157
X033307Y008740
X032637Y007007
X024803Y012480
X023149Y007952
X007480Y007559
X016850Y007086
X032716Y005118
X033149Y007007
T04
X025551Y003661
X022992Y003700
X013188Y003740
X025000Y003661
M30
